<svg xmlns="http://www.w3.org/2000/svg" width="295" height="281.194" viewBox="0 0 295 281.194">
  <g id="Grupo_876665" data-name="Grupo 876665" transform="translate(-76.019 -212.794)">
    <g id="Grupo_876663" data-name="Grupo 876663" transform="translate(97.498 212.794)">
      <path id="Trazado_120684" data-name="Trazado 120684" d="M86.879,383.81c4.429,23.056,22.162,44.4,43.548,53.882,22.472,9.969,47.825,12.563,72.163,13.028a229.94,229.94,0,0,0,87.728-15.446c25.765-10.052,45.909-33.084,56.556-58.508,16.475-39.344,10.658-87.345-20.384-117.793-11.49-11.27-25.91-19.787-41.658-23.107s-32.817-1.2-46.656,7.022c-24.336,14.455-35.734,44.938-60.212,59.153a77.308,77.308,0,0,1-20.263,7.766c-6.7,1.676-13.354,1.526-20.131,2.872a63.968,63.968,0,0,0-50.491,48.949A51.613,51.613,0,0,0,86.879,383.81Z" transform="translate(-85.771 -186.853)" fill="#ffd29a"/>
      <g id="Grupo_876647" data-name="Grupo 876647" transform="translate(21.5 10.193)">
        <path id="Trazado_120685" data-name="Trazado 120685" d="M172.837,306.915l56.371,30.712a13.278,13.278,0,1,1-1.3,1.447l-55.973-30.5Z" transform="translate(-3.662 -109.805)" fill="#8fc9c2"/>
        <path id="Trazado_120686" data-name="Trazado 120686" d="M150.705,229.065a11.644,11.644,0,1,1,21.032,6.867l59.415,50.687,24.4-30.549a11.782,11.782,0,1,1,1.438,1.238l-30.148,37.738,28.816,59.62a20.466,20.466,0,1,1-1.832.566l-28.294-58.545-14.827,18.561-1.48-1.183L229.969,288.1,170.5,237.37a11.639,11.639,0,0,1-19.8-8.306Z" transform="translate(-29.188 -217.422)" fill="#8fc9c2"/>
        <path id="Trazado_120687" data-name="Trazado 120687" d="M182.233,260.932a15.573,15.573,0,0,1-7-1.656l-29.5,36.485.313.733-1.379.586-10.92,13.506-1.473-1.191,11.272-13.94-12.374-29.093a25.071,25.071,0,1,1,1.683-.885l12.039,28.309,28.677-35.469a15.654,15.654,0,1,1,8.663,2.617Z" transform="translate(-95.533 -215.668)" fill="#8fc9c2"/>
      </g>
      <ellipse id="Elipse_4978" data-name="Elipse 4978" cx="16.093" cy="15.603" rx="16.093" ry="15.603" transform="translate(64.439 63.953) rotate(-11.451)" fill="#3f3829" style="isolation: isolate"/>
      <path id="Trazado_120688" data-name="Trazado 120688" d="M184.9,279.8a54.822,54.822,0,0,0,.5-14.5,24.037,24.037,0,0,0-5.623-13.178c-5.059-5.57-13.149-6.588-20.265-6.061-5.121.379-9.9,1.969-14.9,2.9-4.414.817-8.8.628-12.894,2.83-4.24,2.284-5.989,6.156-6.757,10.7a8.116,8.116,0,0,0-5.484,3.575c-2.467,3.839-1.868,9.354-.989,13.561a42.091,42.091,0,0,0,5.991,14.464" transform="translate(-47.344 -172.939)" fill="#3f3829" style="isolation: isolate"/>
      <path id="Trazado_120689" data-name="Trazado 120689" d="M147.417,260.114c2.189-.2,4.1,1.542,5.218,3.434a13.818,13.818,0,0,1,1.716,9.317c-.581,3.363-2.443,6.96-6,7.841" transform="translate(-11.641 -155.91)" fill="#df5856"/>
      <path id="Trazado_120690" data-name="Trazado 120690" d="M121.145,298.373c7.3-13.4,30.619-15.455,38.148-15.77a16.525,16.525,0,0,0,21.378-.923c.053,0,.1.013.154.011,6.912-.187,27.487.771,33.3,18.246,7.024,21.109-20.99,40.035-20.99,40.035s14.7,45.436,13.151,46.275-44.665,20.426-87.841-3.757L125.1,361.23l-16.7-33.677S111.923,315.31,121.145,298.373Z" transform="translate(-58.559 -129.966)" fill="#fddace"/>
      <path id="Trazado_120691" data-name="Trazado 120691" d="M138.571,335.471c-4.141-4.379-9.755-10.991-9.689-17.3a13.3,13.3,0,0,1,4.068-9.372,17.892,17.892,0,0,1-6.762-2.493c-5.608-4.046-2.5-11.931.615-16.543a27.058,27.058,0,0,1,6.923-6.982c3.273-.427,6.068-.61,7.911-.687a17.346,17.346,0,0,0,2.951,1.786l10.817,47.7q.373,7.586.744,15.171A43.067,43.067,0,0,1,138.571,335.471Z" transform="translate(-40.903 -129.458)" fill="#e3c8c0"/>
      <path id="Trazado_120692" data-name="Trazado 120692" d="M159.638,286.58c3.718,4.147,7.863,11.537,2.859,16.307a17.89,17.89,0,0,1-6.363,3.387,13.311,13.311,0,0,1,5.306,8.733c.921,6.24-3.742,13.554-7.251,18.455a43.065,43.065,0,0,1-15.88,13.567q-.664-7.566-1.324-15.131l4.081-46.982a17.4,17.4,0,0,0,5.231-3.238c.053,0,.1.013.154.011a53.7,53.7,0,0,1,7.92.392A26.651,26.651,0,0,1,159.638,286.58Z" transform="translate(-24.186 -129.965)" fill="#e3c8c0"/>
      <path id="Trazado_120693" data-name="Trazado 120693" d="M133.791,282.6a16.526,16.526,0,0,0,21.378-.923c.053,0,.1.013.154.011.947-.024,2.158-.026,3.544.031-.137,11.49-1.321,46.462-10.521,62.877,0,0-14.226-25.012-18.737-61.719C131.266,282.732,132.7,282.648,133.791,282.6Z" transform="translate(-33.057 -129.965)" fill="#217e70"/>
      <g id="Grupo_876648" data-name="Grupo 876648" transform="translate(73.611 79.661)">
        <path id="Trazado_120694" data-name="Trazado 120694" d="M165.162,312.987l.286,5.815a2.335,2.335,0,0,0,2.4,2.225c-.053,0-.1-.009-.154-.011a16.526,16.526,0,0,1-21.378.923l.24-.011a2.338,2.338,0,0,0,2.247-2.22l.293-5.909c-8.874-1.326-17.539-10.057-17.539-10.057s-9.537,2.555-12.01-8.1,8.852-11.22,8.852-11.22-1.89-8.107-.414-20.206,33.066-15.155,33.066-15.155,13.918-2.405,19.133,16.829S188.373,310.822,165.162,312.987Z" transform="translate(-119.192 -248.962)" fill="#ee7686"/>
      </g>
      <g id="Grupo_876656" data-name="Grupo 876656" transform="translate(77.596 97.002)">
        <g id="Grupo_876649" data-name="Grupo 876649" transform="translate(0 22.924)">
          <path id="Trazado_120695" data-name="Trazado 120695" d="M121.009,269.02c-.035-.026.059-.286.4-.643a3.822,3.822,0,0,1,1.813-1,4.94,4.94,0,0,1,3.081.251,5.755,5.755,0,0,1,2.727,2.619,7.624,7.624,0,0,1,.868,3.636,10.415,10.415,0,0,1-.474,2.973,6.081,6.081,0,0,1-1.172,2.469,16.326,16.326,0,0,1,.6-2.619,11.844,11.844,0,0,0,.278-2.813,7.46,7.46,0,0,0-.837-3.253,5.232,5.232,0,0,0-2.3-2.306,4.638,4.638,0,0,0-2.645-.377,4.249,4.249,0,0,0-1.72.663C121.247,268.877,121.064,269.064,121.009,269.02Z" transform="translate(-121.002 -267.243)" fill="#852c2d"/>
        </g>
        <g id="Grupo_876650" data-name="Grupo 876650" transform="translate(3.495 26.829)">
          <path id="Trazado_120696" data-name="Trazado 120696" d="M123.045,273.381c-.093.042-.381-.315-.445-1.026a3.1,3.1,0,0,1,3.608-3.293c.7.13,1.031.447.98.537-.051.114-.436.018-1.02.055a3.037,3.037,0,0,0-2.976,2.716C123.1,272.947,123.164,273.342,123.045,273.381Z" transform="translate(-122.589 -269.016)" fill="#852c2d"/>
        </g>
        <g id="Grupo_876651" data-name="Grupo 876651" transform="translate(35.747 3.615)">
          <path id="Trazado_120697" data-name="Trazado 120697" d="M137.239,275.423c.048-.04.3.211.733.639a3.483,3.483,0,0,0,2.106,1.141,1.415,1.415,0,0,0,1.28-.584,1.462,1.462,0,0,0-.17-1.586c-.352-.592-.806-1.286-1.163-2.006A21,21,0,0,1,139,270.719a20.607,20.607,0,0,1-1.2-8.693,8.947,8.947,0,0,1,.775-3.548c.141.029-.156,1.379-.183,3.577a23.426,23.426,0,0,0,1.4,8.374,22.823,22.823,0,0,0,.967,2.227c.346.718.729,1.324,1.11,2.009a3.108,3.108,0,0,1,.383,1.152,1.777,1.777,0,0,1-.317,1.2,2.021,2.021,0,0,1-1.91.782,3.012,3.012,0,0,1-1.487-.659,4.851,4.851,0,0,1-.808-.855C137.351,275.767,137.2,275.456,137.239,275.423Z" transform="translate(-137.232 -258.477)" fill="#852c2d"/>
        </g>
        <g id="Grupo_876652" data-name="Grupo 876652" transform="translate(47.401 10.173)">
          <path id="Trazado_120698" data-name="Trazado 120698" d="M143.089,269.55c-.231.009-.476-1.8-.546-4.035s.06-4.055.293-4.061.476,1.8.546,4.035S143.32,269.544,143.089,269.55Z" transform="translate(-142.523 -261.454)" fill="#852c2d"/>
        </g>
        <g id="Grupo_876653" data-name="Grupo 876653" transform="translate(24.788 12.472)">
          <path id="Trazado_120699" data-name="Trazado 120699" d="M132.822,270.6c-.231.007-.476-1.8-.546-4.037s.059-4.055.291-4.061.478,1.8.548,4.035S133.053,270.588,132.822,270.6Z" transform="translate(-132.256 -262.498)" fill="#852c2d"/>
        </g>
        <g id="Grupo_876654" data-name="Grupo 876654" transform="translate(43.773)">
          <path id="Trazado_120700" data-name="Trazado 120700" d="M140.876,257.258c-.018-.1.54-.319,1.5-.4a9.37,9.37,0,0,1,6.885,2.432c.694.661.991,1.181.914,1.249-.181.176-1.791-1.48-4.39-2.372C143.2,257.229,140.9,257.509,140.876,257.258Z" transform="translate(-140.876 -256.835)" fill="#852c2d"/>
        </g>
        <g id="Grupo_876655" data-name="Grupo 876655" transform="translate(17.747 1.067)">
          <path id="Trazado_120701" data-name="Trazado 120701" d="M129.081,262.152c-.09-.051.1-.643.692-1.447a8.663,8.663,0,0,1,6.74-3.385c1,.007,1.588.207,1.573.308-.011.128-.608.141-1.529.282a11.243,11.243,0,0,0-6.334,3.183C129.559,261.747,129.191,262.216,129.081,262.152Z" transform="translate(-129.059 -257.32)" fill="#852c2d"/>
        </g>
        <path id="Trazado_120702" data-name="Trazado 120702" d="M146.145,269.658a5.74,5.74,0,0,1-5.632,3.445,5.643,5.643,0,0,1-5.5-4.861A18.356,18.356,0,0,0,146.145,269.658Z" transform="translate(-104.153 -243.119)" fill="#fff"/>
      </g>
      <path id="Trazado_120703" data-name="Trazado 120703" d="M173.2,254.632a20.751,20.751,0,0,1-23.131,3.191c-.725,3.405-3.872,5.918-7.255,6.738s-6.953.209-10.29-.784a20.437,20.437,0,0,1-.551,17.814c-.993,1.861-2.59,3.733-4.7,3.766a4.755,4.755,0,0,1-4.031-2.764,14,14,0,0,1-1.178-4.98,47.982,47.982,0,0,1-.385-10.372,16.153,16.153,0,0,1,3.94-9.427c2.328-2.462,5.57-3.821,8.777-4.914a80.106,80.106,0,0,1,24.148-4.282c4.581-.092,9.656.434,12.779,3.786" transform="translate(-42.771 -169.725)" fill="#2e281c" style="isolation: isolate"/>
      <path id="Trazado_120704" data-name="Trazado 120704" d="M129.241,282.956c2.007-.2,3.727-.3,4.991-.355a16.526,16.526,0,0,0,21.378-.923c.053,0,.1.013.154.011,1-.026,2.286-.026,3.769.04a18.826,18.826,0,0,1-30.291,1.227Z" transform="translate(-33.498 -129.965)" fill="#1d907e"/>
      <path id="Trazado_120705" data-name="Trazado 120705" d="M113.7,325.453c1.493.729,3,1.548,4.63,2.247.819.366,1.643.756,2.491,1.117l2.6,1.057a100.8,100.8,0,0,0,11.283,3.718,97.764,97.764,0,0,0,25.221,3.357,101.057,101.057,0,0,0,11.861-.634l1.628-.2c.824.159,1.652.291,2.484.41-.405.068-.811.136-1.22.2l-2.8.361a99.483,99.483,0,0,1-11.953.687,96.491,96.491,0,0,1-25.43-3.385,99.721,99.721,0,0,1-11.356-3.793l-2.61-1.079c-.852-.372-1.681-.769-2.5-1.143-1.59-.7-3.07-1.511-4.531-2.242Z" transform="translate(-52.438 -77.32)" fill="#cda599"/>
      <g id="Grupo_876657" data-name="Grupo 876657" transform="translate(124.155)">
        <path id="Trazado_120706" data-name="Trazado 120706" d="M200,306.841l8.9-38.5,33.4,7.572-9.026,39.051A60.726,60.726,0,0,1,224.6,424.308a13.824,13.824,0,0,1-8.057.531l-51.012-11.79a13.742,13.742,0,0,1-6.953-3.96A60.759,60.759,0,0,1,200,306.841Z" transform="translate(-142.141 -146)" fill="#fff"/>
        <path id="Trazado_120707" data-name="Trazado 120707" d="M173.159,303.943a34.563,34.563,0,0,0-14.565-1.912c-3.277.375-10.171,1.363-8.8,6.015a9.689,9.689,0,0,0,2.3,3.594c7.048,7.837,16.57,13.209,26.65,16.277s20.732,3.923,31.267,3.652A81.846,81.846,0,0,0,231.27,328.6a83,83,0,0,0,9.773-3.92c2.447-1.077,1.989-3.2.452-5.046-2.854-3.425-7.973-5.275-12.165-6.374-5.445-1.425-11.16-1.317-16.783-1.084s-11.3.579-16.84-.4C187.856,310.392,180.726,306.443,173.159,303.943Z" transform="translate(-133.154 -105.68)" fill="#8bd2e1"/>
        <path id="Trazado_120708" data-name="Trazado 120708" d="M160.407,303.526c10.1,3.059,18.169,10.579,27.816,14.7a84.186,84.186,0,0,0,35.584,6.539c7.647-.244,14.931-1.147,21.7-3.674.119,1.159.211,2.326.249,3.509a49.209,49.209,0,0,1-35.187,48.684c-15.466-3.509-30.976-6.837-46.464-10.248a49.151,49.151,0,0,1-10.962-59.97A15.413,15.413,0,0,1,160.407,303.526Z" transform="translate(-135.818 -104.522)" fill="#9ddaee"/>
        <path id="Trazado_120709" data-name="Trazado 120709" d="M179.49,289a7.439,7.439,0,0,0-2.458,1.169c-5.8,4.266-3.255,11.6-2,17.36.824,3.777,2.954,7.132,4.48,10.713a109.5,109.5,0,0,1,4.33,12.1c.9,3.075,1.068,5.982,1.676,9.057s1.407,6.447.656,9.579A52.971,52.971,0,0,1,199.8,324.3c2.117-2.123,4.751-3.727,7-5.727,3.1-2.755,5.854-6.209,6.544-10.3s-1.271-8.825-5.18-10.211c3.423-1.936,6.87-3.971,9.548-6.852,3.26-3.509,7.05-9.764,4.5-14.519a8.132,8.132,0,0,0-7.048-4.2c5.348-4.537,10.739-9.121,14.988-14.7a35.42,35.42,0,0,0,6.83-14.42c.89-4.526,1.247-13.352-4-15.73-2.588-1.176-7.389.982-9.733,2.1-11.2,5.352-17.664,19.759-19.067,31.531-.742-4.343-6.557-6.262-10.55-4.4s-6.271,6.16-7.508,10.391a39.961,39.961,0,0,0-1.515,12.156c.062,3.96,1.018,7.537,1.954,11.414A6.925,6.925,0,0,0,179.49,289Z" transform="translate(-104.574 -195.346)" fill="#217e70"/>
        <path id="Trazado_120710" data-name="Trazado 120710" d="M171.116,290.966c4.614,3.282,7.3,8.742,8.4,14.3.993,5.028.822,10.2.537,15.325.916-5.244,1.883-10.323,2.78-15.219.185-1,.359-1.978.535-2.965-1.989-4.87-4.79-9.385-7.163-14.094-2.634-5.233-4.773-10.949-4.42-16.8,4.9,2.837,8.09,8.022,9.7,13.451,1.6,5.381,1.821,11.057,2.024,16.666.94-5.264,1.777-10.319,2.427-15.118q.482-3.67.861-7.138c-2.145-4.8-5.088-9.22-7.607-13.847-2.8-5.147-5.121-10.792-4.956-16.649,4.989,2.678,8.341,7.757,10.125,13.131,1.747,5.262,2.165,10.856,2.542,16.389.311-2.934.559-5.753.736-8.433.244-3.506.344-6.779.337-9.8-2.531-4.722-5.876-8.973-8.8-13.473-3.2-4.909-5.949-10.356-6.244-16.208,5.185,2.28,8.925,7.081,11.123,12.3s3.044,10.891,3.87,16.495l.055.161a96.88,96.88,0,0,0-.967-13.482c-.07-.454-.143-.881-.214-1.3-1.9-5.2-4.777-9.986-7.174-14.982-2.535-5.282-4.564-11.039-4.1-16.878,4.846,2.927,7.936,8.171,9.442,13.631,1.361,4.927,1.579,10.077,1.681,15.2.3,1.183.617,2.595.925,4.24a89.272,89.272,0,0,1,1.284,13.757l.189-.718c.452-5.645.914-11.361,2.762-16.715s5.255-10.394,10.277-13.015c.1,5.859-2.288,11.475-5.149,16.589-2.694,4.817-5.848,9.4-8.068,14.444.057,3.028,0,6.31-.194,9.819q-.221,4.113-.652,8.616l.059-.17c.89-5.594,1.8-11.255,4.059-16.448s6.055-9.951,11.264-12.171c-.361,5.848-3.178,11.261-6.431,16.136-3.009,4.511-6.44,8.762-9.035,13.512q-.344,3.482-.8,7.169-.578,4.576-1.363,9.436a50.794,50.794,0,0,1,3.484-10.88c2.425-5.116,6.37-9.751,11.647-11.8-.548,5.834-3.537,11.156-6.942,15.922-3.046,4.262-6.482,8.268-9.187,12.739-.2,1.169-.405,2.337-.617,3.526-.883,5.053-1.872,10.288-2.795,15.689,1.515-5.187,3.11-10.4,5.868-15.045,2.892-4.868,7.253-9.112,12.7-10.66-1.095,5.755-4.568,10.775-8.4,15.2-3.454,3.984-7.279,7.674-10.4,11.909a211.255,211.255,0,0,0-2.993,26.221,187.529,187.529,0,0,0,3,43.5c1.218,6.6,2.813,12.805,4.1,18.675a126.787,126.787,0,0,1,2.74,16.51,62.4,62.4,0,0,1-.26,13.832,43.985,43.985,0,0,1-2.559,10.127,35.008,35.008,0,0,1-2.947,5.9c-.405.637-.753,1.095-.978,1.409s-.357.463-.377.447a54.712,54.712,0,0,0,3.769-7.955,45.272,45.272,0,0,0,2.282-10.032,63.109,63.109,0,0,0,.042-13.631,129.7,129.7,0,0,0-2.892-16.343c-1.33-5.832-2.971-12.037-4.235-18.688a184.653,184.653,0,0,1-3.134-43.815,191.942,191.942,0,0,1,2.434-22.648c.194-1.2.4-2.39.6-3.577-1.526-4.971-3.863-9.673-5.76-14.526C171.812,302.646,170.22,296.754,171.116,290.966Z" transform="translate(-107.604 -212.794)" fill="#fb9127"/>
        <path id="Trazado_120711" data-name="Trazado 120711" d="M165.29,430.619l.879-.839,1.031-1.044c.747-.751,1.612-1.612,2.537-2.63a99.511,99.511,0,0,0,6.471-7.634,101.565,101.565,0,0,0,7.376-10.991,106.22,106.22,0,0,0,6.964-14.431,89.459,89.459,0,0,0,4.975-17.658,151.16,151.16,0,0,0,1.769-20.267c.242-7.075.249-14.433.742-21.972.048-.94.126-1.881.207-2.817s.134-1.87.253-2.795q.317-2.779.628-5.52l.8-5.416c.077-.566.172-1.128.273-1.687-.824-2.044-2.366-6.392-4.05-11.471-2.35-7.1-4.079-12.913-3.861-12.986s2.306,5.623,4.658,12.722c1.511,4.561,2.762,8.581,3.407,10.9l.026-.145.487-2.636c.17-.874.311-1.749.5-2.612l.573-2.57c.385-1.7.725-3.4,1.183-5.055l1.288-4.916,1.429-4.757q.952-2.983,1.949-5.841c-.335-2.147-.905-7.691-1.44-14.2-.687-8.389-1.059-15.206-.828-15.226s.976,6.768,1.665,15.158c.48,5.845.806,10.924.881,13.475,1.337-3.777,2.749-7.381,4.273-10.757,1.11-2.689,2.418-5.183,3.577-7.621.581-1.218,1.255-2.361,1.859-3.506.623-1.134,1.2-2.262,1.826-3.33q1.024-1.768,2.042-3.41c.156-1.656.892-6.046,1.9-11.193,1.273-6.533,2.489-11.79,2.718-11.746s-.621,5.374-1.894,11.907c-.855,4.379-1.681,8.178-2.2,10.2a115.878,115.878,0,0,1,10.891-14.9l1.262-1.493c.405-.458.811-.866,1.172-1.253l1.863-1.943a12.919,12.919,0,0,1,1.6-1.54,12.4,12.4,0,0,1-1.381,1.738l-1.753,2.031c-.344.4-.731.822-1.117,1.293l-1.2,1.531a127.1,127.1,0,0,0-10.4,14.843c1.722-1.339,4.72-3.524,8.174-5.938,5.5-3.841,10.066-6.8,10.2-6.612s-4.22,3.458-9.72,7.3c-4,2.8-7.506,5.121-9.169,6.108q-1.034,1.728-2.081,3.583c-.6,1.068-1.165,2.2-1.771,3.33-.584,1.143-1.238,2.284-1.8,3.5-1.123,2.434-2.4,4.918-3.473,7.6-1.522,3.449-2.925,7.136-4.255,11,.407-.4.929-.892,1.548-1.454,1.663-1.5,4.042-3.484,6.793-5.515s5.348-3.72,7.273-4.865a14.277,14.277,0,0,1,3.224-1.667,17.249,17.249,0,0,1-2.9,2.167c-1.835,1.266-4.361,3.024-7.1,5.039s-5.156,3.916-6.907,5.295c-.923.727-1.654,1.3-2.161,1.672q-.942,2.762-1.841,5.638l-1.394,4.729-1.255,4.885c-.447,1.641-.777,3.328-1.156,5.02l-.557,2.553c-.183.857-.322,1.725-.487,2.592l-.478,2.619c-.066.355-.13.709-.194,1.066,1.414-1.61,4.15-4.5,7.356-7.751,4.795-4.859,8.814-8.665,8.98-8.5s-3.588,4.233-8.383,9.09c-3.5,3.55-6.585,6.53-8.061,7.819-.048.308-.1.614-.141.925l-.788,5.374-.617,5.478c-.117.918-.163,1.846-.249,2.771s-.156,1.857-.2,2.793c-.489,7.48-.507,14.823-.769,21.926a149.761,149.761,0,0,1-1.872,20.448,89.3,89.3,0,0,1-5.178,17.873,103.932,103.932,0,0,1-7.2,14.51,97.735,97.735,0,0,1-7.621,10.971,90.193,90.193,0,0,1-6.707,7.524c-.96.993-1.863,1.828-2.645,2.548l-1.081,1-.929.788a12.406,12.406,0,0,1-1.747,1.372A13.02,13.02,0,0,1,165.29,430.619Z" transform="translate(-116.167 -188.268)" fill="#125e52"/>
      </g>
      <g id="Grupo_876658" data-name="Grupo 876658" transform="translate(64.513 109.029)">
        <path id="Trazado_120712" data-name="Trazado 120712" d="M115.921,270.76c1.438-2.522,4.416-3.768,6.953-4.865a87.915,87.915,0,0,1,10.632-3.6c.084.861.192,1.727.333,2.592-3.114,1.057-6.229,2.114-9.273,3.346-1.784.72-3.912,1.251-5.268,2.7-1.877,2.009-1.273,4.114-.652,6.484a1.013,1.013,0,0,1-.079.965c-.273.286-.753.154-1.095-.044C114.783,276.764,114.463,273.313,115.921,270.76Z" transform="translate(-115.062 -262.296)" fill="#fff"/>
      </g>
      <path id="Trazado_120713" data-name="Trazado 120713" d="M138.331,284.852c6.746-.1,10.519-5.861,14.25-10.854,1.425-1.907,3.965-3.535,6.26-1.973,1.692,1.152,2.469,3.385,3.72,4.96a14.532,14.532,0,0,0,5.638,4.553,8.283,8.283,0,0,0,7-.128,9.725,9.725,0,0,0,4.348-5.806c1.579-5.061,1.293-11.03.993-16.266-9.286-.086-18.514-.4-27.8.207q-7.453.486-14.865,1.478c-2.8.374-5.566.936-8.323,1.546a36.46,36.46,0,0,0-6.176,1.958c.322,5.222,1.606,10.847,4.429,15.294C129.937,283.172,134.622,284.91,138.331,284.852Z" transform="translate(-40.546 -157.014)" fill="#fff" style="mix-blend-mode: overlay;isolation: isolate"/>
      <path id="Trazado_120714" data-name="Trazado 120714" d="M153.053,316.181a41.6,41.6,0,0,1,9.819.09c3.057.39,5.923,1.4,8.958,1.808a47.7,47.7,0,0,0,6.724.43c1.064-.007,4.6-.676,4.665,1.251.042,1.225-2.978,2.176-3.894,2.443-1.661.485-4.661.167-5.967,1.192,2.095.562,4.72.337,6.9.463l7.125.407c2.394.137,3.493,2.158.659,2.808a32.573,32.573,0,0,1-4.683.692,80.68,80.68,0,0,1-9.546,0l15.519,1.209c.907.07,3.835.258,2.509,1.958a2.428,2.428,0,0,1-1.233.722c-4.953,1.588-10.722.936-15.84.6a88.807,88.807,0,0,0,13.043,2.3,2.515,2.515,0,0,1,1.943.9,1.711,1.711,0,0,1-.813,2.2,4.952,4.952,0,0,1-2.551.412l-13.449-.209,9.94,1.9c.872.165,1.932.52,2.046,1.4a1.441,1.441,0,0,1-.824,1.37,4.042,4.042,0,0,1-1.652.361c-2.786.189-5.581.174-8.374.156a108.264,108.264,0,0,1-14.589-.747c-4.868-.694-8.962-2.487-13.486-4.216-3.694-1.412-6.207-5.812-6.929-9.585" transform="translate(-21.669 -88.767)" fill="#ee625f"/>
      <g id="Grupo_876662" data-name="Grupo 876662" transform="translate(42.898 159.365)">
        <path id="Trazado_120715" data-name="Trazado 120715" d="M134.249,285.233s14.867,4.244,10.16,24.8-7.147,26.741-7.147,26.741l66.364,11.852-6.7,36.723s-70.815-6.766-88.953-29.219a10.247,10.247,0,0,1-2.006-4.183C100.654,328.341,126.148,287.043,134.249,285.233Z" transform="translate(-105.248 -285.05)" fill="#fddace"/>
        <path id="Trazado_120716" data-name="Trazado 120716" d="M147.348,335.786c1.5-8.2,2.632-15.655,3.394-21.063l.163-1.17.553.1c-.042.372-.084.753-.128,1.147-.612,5.436-1.656,12.924-3.158,21.138-1,5.425-2.066,10.48-3.068,14.814-.231-.026-.476-.057-.722-.088C145.315,346.3,146.348,341.226,147.348,335.786Z" transform="translate(-58.19 -250.994)" fill="#cda599"/>
        <g id="Grupo_876659" data-name="Grupo 876659" transform="translate(28.231)">
          <path id="Trazado_120717" data-name="Trazado 120717" d="M122.434,335.777a7.925,7.925,0,0,1,.4-2.18c.339-1.381.921-3.357,1.685-5.777s1.711-5.282,2.546-8.5a64.713,64.713,0,0,0,1.9-10.629,30.668,30.668,0,0,0-.839-10.627,22.431,22.431,0,0,0-3.872-7.757,18.232,18.232,0,0,0-4.326-3.973l-.791-.493-.6-.337c-.322-.185-.487-.3-.471-.337s.2.013.562.137c.178.064.4.137.654.247l.859.416a16.512,16.512,0,0,1,4.709,3.85,22.136,22.136,0,0,1,4.242,7.969,30.324,30.324,0,0,1,.96,10.993c-.681,7.832-3.095,14.543-4.8,19.3l-2.011,5.649A9.41,9.41,0,0,1,122.434,335.777Z" transform="translate(-118.066 -285.15)" fill="#cda599"/>
        </g>
        <g id="Grupo_876660" data-name="Grupo 876660" transform="translate(28.375 50.083)">
          <path id="Trazado_120718" data-name="Trazado 120718" d="M118.131,307.9a13.8,13.8,0,0,1,2.744.489c2.112.476,4.57,1.029,7.4,1.667,6.244,1.414,14.882,3.308,24.468,5.169s18.3,3.326,24.615,4.346l7.48,1.218a13.683,13.683,0,0,1,2.731.573,13.623,13.623,0,0,1-2.782-.15c-1.784-.163-4.359-.46-7.535-.874-6.35-.826-15.1-2.178-24.706-4.037s-18.235-3.881-24.444-5.491c-3.1-.8-5.608-1.493-7.328-2.007A13.72,13.72,0,0,1,118.131,307.9Z" transform="translate(-118.131 -307.889)" fill="#cda599"/>
        </g>
        <g id="Grupo_876661" data-name="Grupo 876661" transform="translate(0.575 65.456)">
          <path id="Trazado_120719" data-name="Trazado 120719" d="M105.52,314.869c.117-.033.361,1.377,1.555,3.583A18.584,18.584,0,0,0,109.8,322.1,29.7,29.7,0,0,0,114.46,326c1.852,1.291,3.993,2.605,6.31,3.923a72.943,72.943,0,0,0,7.689,3.7,179.01,179.01,0,0,0,18.646,6.194c13.427,3.872,25.829,6.488,34.846,8.129,4.509.822,8.174,1.405,10.7,1.828,1.266.2,2.251.363,2.916.487a3.717,3.717,0,0,1,1.007.242,3.678,3.678,0,0,1-1.035-.024c-.676-.053-1.67-.143-2.947-.284-2.553-.293-6.242-.762-10.781-1.487a300.517,300.517,0,0,1-35.02-7.841,165.875,165.875,0,0,1-18.737-6.317,70.525,70.525,0,0,1-7.748-3.837c-2.339-1.377-4.447-2.722-6.312-4.083a29.081,29.081,0,0,1-4.654-4.119,17.836,17.836,0,0,1-2.654-3.861,14.117,14.117,0,0,1-1.009-2.766A3.507,3.507,0,0,1,105.52,314.869Z" transform="translate(-105.509 -314.869)" fill="#cda599"/>
        </g>
      </g>
    </g>
    <g id="Grupo_876664" data-name="Grupo 876664" transform="translate(76.019 341.921)">
      <g id="Grupo_78300" data-name="Grupo 78300" transform="translate(0 60.856)">
        <path id="Trazado_113504" data-name="Trazado 113504" d="M88.375,303.977a93.354,93.354,0,0,0,84.253,73.8,6.225,6.225,0,0,1,5.74,5.9v0a6.234,6.234,0,0,1-5.881,6.57,6.314,6.314,0,0,1-.764,0,105.874,105.874,0,0,1-95.58-83.737,6.229,6.229,0,0,1,5.8-7.449h0A6.221,6.221,0,0,1,88.375,303.977Z" transform="translate(-76.019 -299.052)" fill="#fb9127"/>
      </g>
      <path id="Rectángulo_33710" data-name="Rectángulo 33710" d="M132.016,312.025h0a4.957,4.957,0,0,0,.148,7.008l43.8,41.978a4.958,4.958,0,0,0,7.008-.148h0a4.958,4.958,0,0,0-.15-7.011l-43.8-41.978A4.958,4.958,0,0,0,132.016,312.025Z" transform="translate(-10.34 -224.431)" fill="#fff"/>
      <path id="Rectángulo_33712" data-name="Rectángulo 33712" d="M147.936,315.173h0a4.957,4.957,0,0,0,.148,7.008l22.232,21.307a4.956,4.956,0,0,0,7.008-.15h0a4.956,4.956,0,0,0-.15-7.008l-22.23-21.307A4.958,4.958,0,0,0,147.936,315.173Z" transform="translate(8.804 -220.646)" fill="#db5b1e"/>
      <path id="Rectángulo_33713" data-name="Rectángulo 33713" d="M131.336,324.276h0a4.956,4.956,0,0,0,.15,7.008l10.581,10.143a4.96,4.96,0,0,0,7.011-.148h0a4.958,4.958,0,0,0-.15-7.011l-10.583-10.143A4.956,4.956,0,0,0,131.336,324.276Z" transform="translate(-11.157 -209.7)" fill="#fb9127"/>
      <path id="Rectángulo_33716" data-name="Rectángulo 33716" d="M85.478,272.949h0a4.956,4.956,0,0,0,.148,7.008l29.791,28.553a4.956,4.956,0,0,0,7.008-.15h0a4.958,4.958,0,0,0-.148-7.008L92.486,272.8A4.956,4.956,0,0,0,85.478,272.949Z" transform="translate(-66.304 -271.421)" fill="none" stroke="#db5b1e" stroke-width="1"/>
      <g id="Grupo_78303" data-name="Grupo 78303" transform="translate(114.803 141.046)">
        <path id="Trazado_113163" data-name="Trazado 113163" d="M137.776,336.66v5.6a1.2,1.2,0,0,0,1.2,1.2h0a1.2,1.2,0,0,0,1.2-1.2h0v-5.6a1.2,1.2,0,0,0-1.2-1.2h0A1.2,1.2,0,0,0,137.776,336.66Z" transform="translate(-116.559 -335.46)" fill="#003351"/>
        <path id="Trazado_113164" data-name="Trazado 113164" d="M135.368,336.66v5.6a1.2,1.2,0,0,0,1.2,1.2h0a1.2,1.2,0,0,0,1.2-1.2h0v-5.6a1.2,1.2,0,0,0-1.2-1.2h0A1.2,1.2,0,0,0,135.368,336.66Z" transform="translate(-119.455 -335.46)" fill="#003351"/>
        <path id="Trazado_113165" data-name="Trazado 113165" d="M132.96,336.66v5.6a1.2,1.2,0,0,0,1.2,1.2h0a1.2,1.2,0,0,0,1.2-1.2h0v-5.6a1.2,1.2,0,0,0-1.2-1.2h0a1.2,1.2,0,0,0-1.2,1.2Z" transform="translate(-122.351 -335.46)" fill="#003351"/>
        <path id="Trazado_113166" data-name="Trazado 113166" d="M130.552,336.66v5.6a1.2,1.2,0,0,0,1.2,1.2h0a1.2,1.2,0,0,0,1.2-1.2h0v-5.6a1.2,1.2,0,0,0-1.2-1.2h0A1.2,1.2,0,0,0,130.552,336.66Z" transform="translate(-125.246 -335.46)" fill="#003351"/>
        <path id="Trazado_113167" data-name="Trazado 113167" d="M128.143,336.66v5.6a1.2,1.2,0,0,0,1.2,1.2h0a1.2,1.2,0,0,0,1.2-1.2h0v-5.6a1.2,1.2,0,0,0-1.2-1.2h0a1.2,1.2,0,0,0-1.2,1.2Z" transform="translate(-128.143 -335.46)" fill="#003351"/>
      </g>
    </g>
  </g>
</svg>
