<svg xmlns="http://www.w3.org/2000/svg" width="294.665" height="344.071" viewBox="0 0 294.665 344.071">
  <g id="Grupo_876666" data-name="Grupo 876666" transform="translate(-383.699 -360.384)">
    <g id="Grupo_876710" data-name="Grupo 876710" transform="translate(518.029 449.946)">
      <g id="Grupo_876668" data-name="Grupo 876668" transform="translate(0 200.41)">
        <g id="Grupo_876667" data-name="Grupo 876667">
          <path id="Trazado_120720" data-name="Trazado 120720" d="M594.019,503.155h-133.4c-2.46,0-12.759,1.188-10.448,3.808,2.143,2.427,16.892,3.808,19.354,3.808H597.982c7.484,0,14.122-1.714,11.672-3.808h0C607.207,504.867,602.164,503.155,594.019,503.155Z" transform="translate(-449.838 -503.155)" fill="#7eabb4"/>
        </g>
      </g>
      <g id="Grupo_876680" data-name="Grupo 876680" transform="translate(2.255 5.251)">
        <g id="Grupo_876669" data-name="Grupo 876669">
          <path id="Trazado_120721" data-name="Trazado 120721" d="M562.74,587.4c-.325-3.071-1.9-2.175-2.965-3.778s-.983-5.614-.181-7.486,2.8-2.8,3.146-7.878c.183-2.634-.457-9.266-1.095-10.072a4.893,4.893,0,0,1-1.072-3.138l1.078-41.193a17.055,17.055,0,0,1,.973-5.549c1.316-3.56.853-7.612.457-11.213-.648-5.9-3.087-7.627-3.487-8.295s0-4.673-.132-6.544,1.334-1.6,1.735-2.937,2.137-6.01,1.336-7.746-.727-5.874-7.344-10.417c-2.78-1.905-21.5-10.949-27.912-14.688s-10.149-10.417-10.417-11.62c-.1-.427-.14-3.554-.158-7.4,0-.632,0-1.282-.006-1.942a2.967,2.967,0,0,0,1.377-2.5v-2.031a2.97,2.97,0,0,0-1.375-2.5c.01-4.058.028-7.269.028-7.269.045-.075.087-.148.128-.221a2.67,2.67,0,0,0-2.374-3.918H500.566c-5.608,0-5.784.9-5.784.9-.605.666.561,2.953.561,2.953l-.156,7.456a2.977,2.977,0,0,0-1.531,2.6V423a2.972,2.972,0,0,0,1.385,2.5l-.215,10.4-1.736,3.473c-3.2,4.807-24.974,17.093-31.65,19.5s-9.538,7.856-10.283,14.422a10.238,10.238,0,0,0,2.135,7.88s.136,6.944,0,7.878a2.71,2.71,0,0,1-.355.841,15.313,15.313,0,0,0-1.984,7.856,59.142,59.142,0,0,0,.471,8.13,5.1,5.1,0,0,0,.985,1.8,9.8,9.8,0,0,1,2.12,6.085c.079,11.045.24,41.488-.3,42.353-.668,1.068-1.6,1.6-2,2.537a24.6,24.6,0,0,0-.534,4.673s.112,2.322,0,7.318c-.053,2.305,1.867,6.548,1.867,6.548s.668,4.541-.132,6.41,0,0-1.336,2.4c-.79,1.42-.646,6.8-.4,10.968a9.438,9.438,0,0,0,5.888,8.2c10.34,4.166,100.144,2.8,103.215,0,2.675-2.443,2.411-11.8,2.084-16.2C562.832,588.334,562.783,587.793,562.74,587.4Zm-87.28-33.23c-4.81,1.334-8.549-2.07-9.016-4.608V515.172s-.266-3.674,5.141-4.074a7.147,7.147,0,0,1,3.869.8,8.209,8.209,0,0,1,4.346,7.316v29.74S480.268,552.831,475.461,554.168Z" transform="translate(-450.948 -407.066)" fill="#afe0eb"/>
        </g>
        <g id="Grupo_876670" data-name="Grupo 876670" transform="translate(6.463 72.939)">
          <path id="Trazado_120722" data-name="Trazado 120722" d="M503.935,447.263c-32.726,0-48.794-2.279-48.952-2.3a1,1,0,1,1,.286-1.972c.156.022,16.106,2.279,48.666,2.279,26.168,0,48.487-2.263,48.708-2.285a1,1,0,0,1,.205,1.982C552.625,444.988,530.211,447.263,503.935,447.263Z" transform="translate(-454.13 -442.979)" fill="#65b0be"/>
        </g>
        <g id="Grupo_876671" data-name="Grupo 876671" transform="translate(42.959 79.865)">
          <path id="Trazado_120723" data-name="Trazado 120723" d="M477.626,450.525q-2.227,0-4.533-.01a1,1,0,0,1,0-1.992h0c40.4.179,61.735-2.1,61.947-2.129a1,1,0,0,1,.217,1.982C535.061,448.4,515.2,450.525,477.626,450.525Z" transform="translate(-472.099 -446.389)" fill="#65b0be"/>
        </g>
        <g id="Grupo_876672" data-name="Grupo 876672" transform="translate(10.367 150.254)">
          <path id="Trazado_120724" data-name="Trazado 120724" d="M503.594,485.147c-30.742,0-46.523-2.1-46.679-2.118a1,1,0,1,1,.268-1.974c.154.02,15.824,2.1,46.411,2.1,26.81,0,47.8-2.082,48.008-2.1a1,1,0,1,1,.2,1.982C551.592,483.053,530.509,485.147,503.594,485.147Z" transform="translate(-456.052 -481.045)" fill="#65b0be"/>
        </g>
        <g id="Grupo_876673" data-name="Grupo 876673" transform="translate(10.368 183.004)">
          <path id="Trazado_120725" data-name="Trazado 120725" d="M505.156,501.714c-33.232,0-48.131-2.539-48.28-2.565a1,1,0,0,1,.343-1.964c.146.026,14.912,2.537,47.936,2.537,23.723,0,46.208-2.518,46.433-2.545a1,1,0,0,1,.223,1.98C551.587,499.183,528.99,501.714,505.156,501.714Z" transform="translate(-456.053 -497.17)" fill="#65b0be"/>
        </g>
        <g id="Grupo_876674" data-name="Grupo 876674" transform="translate(19.732 49.598)">
          <path id="Trazado_120726" data-name="Trazado 120726" d="M461.77,435.585a1.106,1.106,0,0,1-.27-2.179,38.9,38.9,0,0,0,5.786-1.838,1.107,1.107,0,1,1,.831,2.051,40.549,40.549,0,0,1-6.075,1.934A1.147,1.147,0,0,1,461.77,435.585Z" transform="translate(-460.663 -431.486)" fill="#fff"/>
        </g>
        <g id="Grupo_876675" data-name="Grupo 876675" transform="translate(30.248 35.968)">
          <path id="Trazado_120727" data-name="Trazado 120727" d="M466.95,438.651a1.106,1.106,0,0,1-.487-2.1,45.321,45.321,0,0,0,14.914-11.343,1.108,1.108,0,0,1,1.759,1.349c-.215.28-5.38,6.928-15.7,11.983A1.122,1.122,0,0,1,466.95,438.651Z" transform="translate(-465.841 -424.776)" fill="#fff"/>
        </g>
        <g id="Grupo_876676" data-name="Grupo 876676" transform="translate(5.394 84.542)">
          <path id="Trazado_120728" data-name="Trazado 120728" d="M456.269,464.1l-2.159-.491a.414.414,0,0,0-.022.138,26.862,26.862,0,0,0-.374-3.487c-.489-3.5.813-10.379.867-10.669a1.107,1.107,0,1,1,2.175.414c-.014.067-1.288,6.81-.851,9.948C456.4,463.515,456.305,463.942,456.269,464.1Z" transform="translate(-453.604 -448.691)" fill="#fff"/>
        </g>
        <g id="Grupo_876677" data-name="Grupo 876677" transform="translate(46.077 147.28)">
          <path id="Trazado_120729" data-name="Trazado 120729" d="M488.3,482.652c-7.486,0-13.49-.229-13.6-.234a1.107,1.107,0,0,1,.087-2.212c.211.008,21.3.812,33.67-.619a1.107,1.107,0,0,1,.254,2.2A194.294,194.294,0,0,1,488.3,482.652Z" transform="translate(-473.635 -479.581)" fill="#fff"/>
        </g>
        <g id="Grupo_876678" data-name="Grupo 876678" transform="translate(46.077 179.422)">
          <path id="Trazado_120730" data-name="Trazado 120730" d="M488.3,498.477c-7.486,0-13.49-.228-13.6-.234a1.107,1.107,0,0,1,.087-2.212c.211.008,21.3.812,33.67-.617a1.106,1.106,0,1,1,.254,2.2A194.294,194.294,0,0,1,488.3,498.477Z" transform="translate(-473.635 -495.406)" fill="#fff"/>
        </g>
        <g id="Grupo_876679" data-name="Grupo 876679" transform="translate(45.926 10.726)">
          <path id="Trazado_120731" data-name="Trazado 120731" d="M489.609,414.561H474.667a1.107,1.107,0,1,1,0-2.214h14.942a1.107,1.107,0,1,1,0,2.214Z" transform="translate(-473.56 -412.347)" fill="#fff"/>
        </g>
      </g>
      <g id="Grupo_876709" data-name="Grupo 876709" transform="translate(69.475)">
        <g id="Grupo_876681" data-name="Grupo 876681" transform="translate(0 43.74)" opacity="0.22">
          <path id="Trazado_120732" data-name="Trazado 120732" d="M522.381,557.407a3.909,3.909,0,0,1-7.2,1.346c-12.631-20.775-4.277-73.592-6.906-89.493-1.141-6.873-3.353-12.328-8.959-19.813l-.047-.057c-4.946-6.231-11.989-13.305-15.107-21.182a1.593,1.593,0,0,1,2.616-1.706,30.272,30.272,0,0,0,6.164,4.82c6.355,3.707,25.315,12.921,27.6,14.489,4.682,3.213,4.489,5.421,5.33,7.691a22.848,22.848,0,0,1-1.006,3.835,6.722,6.722,0,0,0-2.248,5.742c.177,2.508-.666,6.282.847,8.8a8.032,8.032,0,0,0,.9,1.182c.827.938,1.574,2.139,1.9,5.149.4,3.672.676,6.465-.246,8.961-1.424,3.845-1.139,2.527-2.3,48.235a10.011,10.011,0,0,0,1.609,5.618,40.4,40.4,0,0,1,.571,7.34c-.25,3.615-1.466,3.24-2.746,6.223A12.4,12.4,0,0,0,522.381,557.407Z" transform="translate(-484.045 -426.017)" fill="#3e5678"/>
        </g>
        <g id="Grupo_876682" data-name="Grupo 876682" transform="translate(35.569 73.166)">
          <path id="Trazado_120733" data-name="Trazado 120733" d="M517.26,574.141h0a.981.981,0,0,0,.977-1.091L516.8,560.212H538.45l.341,3.091c0,.034.014.069.02.1l1.1,9.863a.981.981,0,0,0,.977.871h0a.98.98,0,0,0,.975-1.091l-1.109-9.891a.874.874,0,0,0,0-.1l-13.594-121.63a1.007,1.007,0,0,0-.977-.92,1.024,1.024,0,0,0-.979,1.166l1.338,11.955H504.9l-1.365-12.2a1.008,1.008,0,0,0-.979-.92h-.012a1.023,1.023,0,0,0-.977,1.166l14.719,131.6A.981.981,0,0,0,517.26,574.141Zm20.95-16.114.01.087H516.57l-.033-.274-1.653-15.019h21.625Zm-1.954-17.44H514.634l-1.712-15.294h21.651Zm-1.919-17.392H512.687L510.974,507.9h21.287a.94.94,0,0,0,.355-.073Zm-1.946-17.38a.9.9,0,0,0-.13-.012H510.739l-1.712-15.3h21.651Zm-1.948-17.406H508.793l-1.712-15.294h21.651Zm-3.66-32.685,1.712,15.294H506.845l-1.712-15.294Z" transform="translate(-501.558 -440.505)" fill="#2e3846"/>
        </g>
        <g id="Grupo_876683" data-name="Grupo 876683" transform="translate(19.223 30.909)">
          <path id="Trazado_120734" data-name="Trazado 120734" d="M522.485,420.239c-1.434-1.2-4.158-.613-7.35,4.025s-7.08,11.81-8.161,12.018c-2.07.4-9.8-15.84-12.007-13.955-3.132,2.679-1.7,19.642,9.075,22.615C515.919,448.221,527.372,424.34,522.485,420.239Z" transform="translate(-493.51 -419.699)" fill="#ee6360"/>
        </g>
        <g id="Grupo_876684" data-name="Grupo 876684" transform="translate(39.741 60.852)">
          <path id="Trazado_120735" data-name="Trazado 120735" d="M528.4,451.47c-.388,8.256-1.4,16.114-1.4,16.114s-.268,40.233-3.215,41.409c-2.082.831-3.2-1.361-4.322-8.149-2.36-14.288-3.617-44.081-4.592-49.517-.091-.512-.181-.808-.268-.855s-.124.242-.152.8c-.353,7.042,2.711,58.006-.8,58.2-6.487.361-8.853-38.62-9.164-44.171-.376-6.757-.754-12.47-.851-17.158a56.6,56.6,0,0,1,.313-8.4,15.028,15.028,0,0,1,1.113-4.247c.922-2.732,22.691.571,22.9,1.665.148.792.266,1.669.353,2.608A87.337,87.337,0,0,1,528.4,451.47Z" transform="translate(-503.612 -434.442)" fill="#3e5678"/>
        </g>
        <g id="Grupo_876685" data-name="Grupo 876685" transform="translate(39.741 66.155)">
          <path id="Trazado_120736" data-name="Trazado 120736" d="M528.31,437.079c-.7,0-1.383.035-2.029.077a129.959,129.959,0,0,1-21.614-.037c-.232-.024-.473-.049-.719-.067a56.6,56.6,0,0,0-.313,8.4,37.935,37.935,0,0,0,10.815,3.126c.028-.556.077-.839.152-.8s.177.343.268.855c.835.108,1.676.189,2.523.25a83,83,0,0,0,11.01-.108A87.338,87.338,0,0,0,528.31,437.079Z" transform="translate(-503.612 -437.053)" fill="#2e3846"/>
        </g>
        <g id="Grupo_876687" data-name="Grupo 876687" transform="translate(36.348 30.909)">
          <g id="Grupo_876686" data-name="Grupo 876686">
            <path id="Trazado_120737" data-name="Trazado 120737" d="M513.792,420.239c-1.434-1.2-4.158-.613-7.35,4.025-1.466,2.131-3.079,4.8-4.5,7.076a16.558,16.558,0,0,0,8.047,5.352C514.326,430.352,516.416,422.443,513.792,420.239Z" transform="translate(-501.941 -419.699)" fill="#f18b4c"/>
          </g>
        </g>
        <g id="Grupo_876688" data-name="Grupo 876688" transform="translate(38.552 29.405)">
          <path id="Trazado_120738" data-name="Trazado 120738" d="M531.491,425.785c-3.128-7.964-16.366-7.425-20.485-5.929-7.031,2.551-6.507,37.854-7.98,43.555,2.157,2.364,7.671,4.306,20.329,2.275a51.833,51.833,0,0,0,2.835-5.407s1.489,3.642,1.846,4.667c1.1-.288,1.7-.849,2.9-1.208C530.78,463.3,533.116,429.923,531.491,425.785Z" transform="translate(-503.026 -418.959)" fill="#fb9127"/>
        </g>
        <g id="Grupo_876692" data-name="Grupo 876692" transform="translate(15.857)">
          <g id="Grupo_876689" data-name="Grupo 876689" transform="translate(0 1.306)">
            <path id="Trazado_120739" data-name="Trazado 120739" d="M496.462,405.124l-4.586,48.351a5.376,5.376,0,1,0,10.7,1.016l4.586-48.351Z" transform="translate(-491.852 -405.124)" fill="#d5e7e5"/>
          </g>
          <g id="Grupo_876690" data-name="Grupo 876690" transform="translate(1.695 11.983)">
            <path id="Trazado_120740" data-name="Trazado 120740" d="M500.031,448.91a3.68,3.68,0,0,1-7.328-.695l3.469-37.834,7.326.695Z" transform="translate(-492.687 -410.381)" fill="#46b5b8"/>
          </g>
          <g id="Grupo_876691" data-name="Grupo 876691" transform="translate(3.442)">
            <path id="Trazado_120741" data-name="Trazado 120741" d="M505.758,405.541l-11.14-1.056a.978.978,0,0,0-.185,1.948l11.14,1.056a.978.978,0,1,0,.185-1.948Z" transform="translate(-493.547 -404.481)" fill="#d5e7e5"/>
          </g>
        </g>
        <g id="Grupo_876693" data-name="Grupo 876693" transform="translate(50.962 29.665)">
          <path id="Trazado_120742" data-name="Trazado 120742" d="M509.314,421.33a2.893,2.893,0,0,1,2.687-2.2,14.051,14.051,0,0,1,4.31.234c1.2.542-3.105,5.52-5.843,5.061C508.973,424.173,508.989,422.656,509.314,421.33Z" transform="translate(-509.137 -419.087)" fill="#ef6c66"/>
        </g>
        <g id="Grupo_876694" data-name="Grupo 876694" transform="translate(26.848 33.911)">
          <path id="Trazado_120743" data-name="Trazado 120743" d="M536.715,423.618c-.02,7.119-12.422,20.018-21.224,20.676-8.573.642-21.561-17.146-17.44-20.489,2.374-1.925,12.686,11.5,17.709,11.356,2.1-.061,10.941-9.607,14.786-12.42C534.506,419.84,536.721,421.473,536.715,423.618Z" transform="translate(-497.264 -421.177)" fill="#ef6c66"/>
        </g>
        <g id="Grupo_876695" data-name="Grupo 876695" transform="translate(22.63 32.377)">
          <path id="Trazado_120744" data-name="Trazado 120744" d="M501.309,424.072a10.091,10.091,0,0,1-1.03-1.881c-.087-.465.646-1.576.219-1.751s-1.119.967-1.253,1.529-3.5-1.921-3.9-1.474.091,1.645-.02,2.212.067,1.537,1.9,2.955S502.875,427.194,501.309,424.072Z" transform="translate(-495.187 -420.422)" fill="#ef6c66"/>
        </g>
        <g id="Grupo_876696" data-name="Grupo 876696" transform="translate(52.556 18.691)">
          <path id="Trazado_120745" data-name="Trazado 120745" d="M510.071,417.643a3.563,3.563,0,0,1-.014-1.871c.313-.554.577-.6.577-.6a1.758,1.758,0,0,1,2.033-1.483,2.927,2.927,0,0,1,2.689,1.891c.116.428.626.467.658.78s-.516.4-.516.4a14.291,14.291,0,0,1-.292,2.153c-.2.733-.983,2.1-1.936,2.053S510.065,419.343,510.071,417.643Z" transform="translate(-509.921 -413.684)" fill="#5a302d"/>
        </g>
        <g id="Grupo_876702" data-name="Grupo 876702" transform="translate(52.148 20.87)">
          <g id="Grupo_876697" data-name="Grupo 876697" transform="translate(0.432 2.995)">
            <path id="Trazado_120746" data-name="Trazado 120746" d="M514.1,416.231s.666,4.619.646,6.168c-.008.662-3.837,2.4-4.757,1.428-.268-.284.435-2.374.814-3.014l1.938-3.711Z" transform="translate(-509.933 -416.231)" fill="#ef6c66"/>
          </g>
          <g id="Grupo_876698" data-name="Grupo 876698" transform="translate(0.25)">
            <path id="Trazado_120747" data-name="Trazado 120747" d="M513.472,416.086l.66,2.673a1.68,1.68,0,0,1-1.336,1.925,3.428,3.428,0,0,1-2.258-.13c-.76-.351-.731-1.115-.66-2.094a7.663,7.663,0,0,1,.682-2.722C511.183,414.376,512.914,414.376,513.472,416.086Z" transform="translate(-509.843 -414.756)" fill="#ef6c66"/>
          </g>
          <g id="Grupo_876699" data-name="Grupo 876699" transform="translate(0 2.175)">
            <path id="Trazado_120748" data-name="Trazado 120748" d="M509.891,416.731s.057-.288.479-.362a1.623,1.623,0,0,1,.849.12,4.653,4.653,0,0,1,.82-.014c.361.077.491,1.009.827,1.18s.758-.859.808-1.2.181-.676.226-.624.183,1.761.25,1.956a2.237,2.237,0,0,1-.8,1.767,1.707,1.707,0,0,1-1.249.246,1.678,1.678,0,0,1-1.328.244,1.542,1.542,0,0,1-.8-1.013,1.069,1.069,0,0,1-.24-.764C509.762,417.807,509.891,416.731,509.891,416.731Z" transform="translate(-509.72 -415.827)" fill="#5a302d"/>
          </g>
          <g id="Grupo_876700" data-name="Grupo 876700" transform="translate(0.674 3.05)">
            <path id="Trazado_120749" data-name="Trazado 120749" d="M511.553,416.323a4.5,4.5,0,0,1-1.493-.065s-.079.534.25.758S511.3,416.987,511.553,416.323Z" transform="translate(-510.052 -416.258)" fill="#fff"/>
          </g>
          <g id="Grupo_876701" data-name="Grupo 876701" transform="translate(4.138 1.607)">
            <path id="Trazado_120750" data-name="Trazado 120750" d="M511.911,416.475c.069-.156.173-.292.238-.451.126-.3.382-.713.733-.309.514.587-.37,2.061-.875,1.856C511.724,417.458,511.667,417.025,511.911,416.475Z" transform="translate(-511.758 -415.547)" fill="#ef6c66"/>
          </g>
        </g>
        <g id="Grupo_876703" data-name="Grupo 876703" transform="translate(41.549 132.517)">
          <path id="Trazado_120751" data-name="Trazado 120751" d="M508.416,474.47c.987-.433,1.113-1.31,1.533-2.143.028-.057.191-1.253.191-1.349.006-.414,1.2-1.511,1.755-.65,1.095,1.694,2.056-1.194,1.992-.487-.189,2.106,1.018,5.742.234,5.971-1.672.492-9.469,1.062-9.617.242C504.415,475.562,506.71,475.217,508.416,474.47Z" transform="translate(-504.502 -469.727)" fill="#2b3746"/>
        </g>
        <g id="Grupo_876704" data-name="Grupo 876704" transform="translate(51.668 132.574)">
          <path id="Trazado_120752" data-name="Trazado 120752" d="M513.4,474.441c.985-.433,1.111-1.31,1.531-2.143.028-.057.191-1.253.191-1.349.006-.414,1.2-1.511,1.755-.65.684,1.058,1.188.3,1.542-.205.213-.3.449-.473.424-.207-.189,2.106,1.044,5.667.26,5.9-1.672.492-9.469,1.062-9.617.242C509.4,475.533,511.694,475.188,513.4,474.441Z" transform="translate(-509.484 -469.755)" fill="#2b3746"/>
        </g>
        <g id="Grupo_876706" data-name="Grupo 876706" transform="translate(52.665 33.308)">
          <g id="Grupo_876705" data-name="Grupo 876705">
            <path id="Trazado_120753" data-name="Trazado 120753" d="M523.609,423.924c.006-2.145-2.866-4.625-6.826-1.726-1.8,1.314-4.028,4.948-6.808,7.547.307,1.54,1.538,6.189,5.478,7.75C520.075,433.147,523.6,427.716,523.609,423.924Z" transform="translate(-509.975 -420.88)" fill="#ffd454"/>
          </g>
        </g>
        <g id="Grupo_876707" data-name="Grupo 876707" transform="translate(42.629 47.462)">
          <path id="Trazado_120754" data-name="Trazado 120754" d="M506.164,428.842a6.1,6.1,0,0,1-.947-.069.222.222,0,0,1,.075-.437,4.977,4.977,0,0,0,3.006-.453.222.222,0,0,1,.24.374A4.5,4.5,0,0,1,506.164,428.842Z" transform="translate(-505.034 -427.849)" fill="#b05655"/>
        </g>
        <g id="Grupo_876708" data-name="Grupo 876708" transform="translate(57.811 40.842)">
          <path id="Trazado_120755" data-name="Trazado 120755" d="M512.841,434a.34.34,0,0,1-.258-.122.334.334,0,0,1,.047-.467,31.085,31.085,0,0,0,6.7-8.642.332.332,0,1,1,.593.3,31.19,31.19,0,0,1-6.871,8.857A.332.332,0,0,1,512.841,434Z" transform="translate(-512.508 -424.59)" fill="#f18b4c"/>
        </g>
      </g>
    </g>
    <g id="Grupo_876772" data-name="Grupo 876772" transform="translate(383.699 360.384)">
      <g id="Grupo_876711" data-name="Grupo 876711" transform="translate(99.626 18.091)">
        <path id="Trazado_120756" data-name="Trazado 120756" d="M439.042,370.4c1.294-.656,3.8-1.818,5.823-.536s1.761,2.583,2.482,2.9,3.646-.337,4.771.349,1.363,2.63,1.363,2.63,2.529.829,3.339,2.512-.6,4.476-1.255,5.358,3.343,3.2,4.214,5.876c1.649,5.059-1.527,7.261-1.158,8.045s2.634,3.441,2.068,5.137-2.7,2.293-2.451,4.086-5.2,3.583-8.356,2.709-13.328-4-15.556-5.147-1.629-5.823-.987-6.908.132-4.56.071-5.508,1.716-3.991,2.506-5.027-.926-6.351-.9-7.492C435.14,374.874,435.912,371.986,439.042,370.4Z" transform="translate(-432.75 -369.291)" fill="#614947"/>
      </g>
      <g id="Grupo_876712" data-name="Grupo 876712" transform="translate(79.969 182.365)">
        <path id="Trazado_120757" data-name="Trazado 120757" d="M461.491,478.786c-19.7,4.426-38.419-1.769-38.419-1.769s10.5-25.524,11.177-26.8S481.188,474.36,461.491,478.786Z" transform="translate(-423.072 -450.173)" fill="#bfb9b9"/>
      </g>
      <g id="Grupo_876713" data-name="Grupo 876713" transform="translate(35.171 33.836)">
        <path id="Trazado_120758" data-name="Trazado 120758" d="M470.72,392.886c-4.946-3.386-13.194,4.235-20.881,12.27-10.127,10.584-22.317,21.99-24.579,20.623-4.7-2.841-3.887-46.618-3.887-46.618s-4.22-1.968-11.7-2.116a5,5,0,0,0-1.022.089,5.482,5.482,0,0,0-4.259,3.885,92.771,92.771,0,0,0-3.335,26.952c.494,16.642.465,33.662,14.636,40.4C440.7,460.254,482.483,400.94,470.72,392.886Z" transform="translate(-401.015 -377.044)" fill="#a3d7d3"/>
      </g>
      <g id="Grupo_876719" data-name="Grupo 876719" transform="translate(36.706)">
        <g id="Grupo_876718" data-name="Grupo 876718">
          <g id="Grupo_876714" data-name="Grupo 876714" transform="translate(0 0.27)">
            <path id="Trazado_120759" data-name="Trazado 120759" d="M438.847,408.078,427.721,388.8V360.517H413.864V388.8l-11.126,19.283c-2.817,4.881.861,10.872,6.674,10.872h22.762C437.986,418.95,441.664,412.958,438.847,408.078Z" transform="translate(-401.771 -360.517)" fill="#d5e7e5"/>
          </g>
          <g id="Grupo_876716" data-name="Grupo 876716" transform="translate(1.851 34.682)">
            <g id="Grupo_876715" data-name="Grupo 876715">
              <path id="Trazado_120760" data-name="Trazado 120760" d="M411.582,377.493l16.236-.033,8.473,14.008a5.307,5.307,0,0,1-.075,5.506,5.781,5.781,0,0,1-4.982,2.734H408.472a5.775,5.775,0,0,1-4.98-2.734,5.3,5.3,0,0,1-.077-5.506Z" transform="translate(-402.682 -377.46)" fill="#46b5b8"/>
            </g>
          </g>
          <g id="Grupo_876717" data-name="Grupo 876717" transform="translate(11.229)">
            <path id="Trazado_120761" data-name="Trazado 120761" d="M408.031,360.384h14.122a.7.7,0,1,1,0,1.405H408.031a.7.7,0,1,1,0-1.405Z" transform="translate(-407.3 -360.384)" fill="#d5e7e5"/>
          </g>
        </g>
      </g>
      <g id="Grupo_876721" data-name="Grupo 876721" transform="translate(0 340.121)">
        <g id="Grupo_876720" data-name="Grupo 876720">
          <path id="Trazado_120762" data-name="Trazado 120762" d="M421.972,527.846H540.365c5.831,0,30.236.617,24.76,1.974-5.08,1.261-40.032,1.976-45.863,1.976H412.585c-17.735,0-33.463-.89-27.661-1.976h0C390.727,528.734,402.673,527.846,421.972,527.846Z" transform="translate(-383.699 -527.846)" fill="#91c5ce"/>
        </g>
      </g>
      <g id="Grupo_876726" data-name="Grupo 876726" transform="translate(25.327 309.462)">
        <g id="Grupo_876723" data-name="Grupo 876723" transform="translate(7.237)">
          <g id="Grupo_876722" data-name="Grupo 876722">
            <path id="Trazado_120763" data-name="Trazado 120763" d="M414.873,527.269c-1.8,1.661-8.89,11.435-11.622,11.7a11.356,11.356,0,0,1-3.52-.2c1.655-1.318,8.52-14.483,9.422-24.848l12.137-1.166s-2.9,12.631-2.59,13.35A5.533,5.533,0,0,0,414.873,527.269Z" transform="translate(-399.732 -512.751)" fill="#ef6c66"/>
          </g>
        </g>
        <g id="Grupo_876725" data-name="Grupo 876725" transform="translate(0 13.348)">
          <g id="Grupo_876724" data-name="Grupo 876724">
            <path id="Trazado_120764" data-name="Trazado 120764" d="M396.578,535.665a16.174,16.174,0,0,1,5.88-3.12,3.336,3.336,0,0,0,.948-.557,11.354,11.354,0,0,0,3.52.205c2.732-.266,9.818-10.039,11.622-11.7a5.532,5.532,0,0,1,3.828-1.168c.707,1.617,1.8,4.523,1.456,6.351-.5,2.642-1.6,10.184-1.152,12.548h-3.439l-.5-6.867s-2.634-.264-3.9,1.188a8.393,8.393,0,0,0-1.255,2.435,5.123,5.123,0,0,1-4.925,3.244H397.845A1.553,1.553,0,0,1,396.578,535.665Z" transform="translate(-396.169 -519.323)" fill="#354152"/>
          </g>
        </g>
      </g>
      <g id="Grupo_876731" data-name="Grupo 876731" transform="translate(114.867 309.462)">
        <g id="Grupo_876728" data-name="Grupo 876728" transform="translate(7.238)">
          <g id="Grupo_876727" data-name="Grupo 876727">
            <path id="Trazado_120765" data-name="Trazado 120765" d="M458.959,527.269c-1.806,1.661-8.89,11.435-11.622,11.7a11.356,11.356,0,0,1-3.52-.2c1.655-1.318,7.7-14.439,4.712-24.848l12.135-1.166s1.808,12.631,2.122,13.35A5.533,5.533,0,0,0,458.959,527.269Z" transform="translate(-443.818 -512.751)" fill="#ef6c66"/>
          </g>
        </g>
        <g id="Grupo_876730" data-name="Grupo 876730" transform="translate(0 13.348)">
          <g id="Grupo_876729" data-name="Grupo 876729">
            <path id="Trazado_120766" data-name="Trazado 120766" d="M440.662,535.665a16.207,16.207,0,0,1,5.882-3.12,3.337,3.337,0,0,0,.948-.557,11.354,11.354,0,0,0,3.52.205c2.732-.266,9.816-10.039,11.622-11.7a5.532,5.532,0,0,1,3.828-1.168c.7,1.617,1.8,4.523,1.456,6.351-.5,2.642-1.6,10.184-1.152,12.548h-3.439l-.5-6.867s-2.634-.264-3.9,1.188a8.294,8.294,0,0,0-1.255,2.435,5.125,5.125,0,0,1-4.925,3.244H441.931A1.554,1.554,0,0,1,440.662,535.665Z" transform="translate(-440.254 -519.323)" fill="#354152"/>
          </g>
        </g>
      </g>
      <g id="Grupo_876733" data-name="Grupo 876733" transform="translate(38.521 170.229)">
        <g id="Grupo_876732" data-name="Grupo 876732">
          <path id="Trazado_120767" data-name="Trazado 120767" d="M422.635,471.84,461.415,444.2c-9.383,43.578-40.564,148.235-40.564,148.235s-18.314-2.358-18.186-3.223C404.79,574.767,418.891,510.737,422.635,471.84Z" transform="translate(-402.665 -444.198)" fill="#2e3846"/>
        </g>
      </g>
      <g id="Grupo_876735" data-name="Grupo 876735" transform="translate(42.432 51.005)">
        <g id="Grupo_876734" data-name="Grupo 876734">
          <path id="Trazado_120768" data-name="Trazado 120768" d="M421.512,391.322c-.542-.751-3.339-1.962-4.883-2.419-2.951-.875-4.3-2.183-4.945-3.124s-1.657.652-.526,1.942,4.005,2.813,2.364,2.762-7.4-2.661-8.815,0c-1.182,2.216,6.834,6.532,13.795,6.516C420.474,396.991,424.526,395.516,421.512,391.322Z" transform="translate(-404.591 -385.497)" fill="#ef6c66"/>
        </g>
      </g>
      <g id="Grupo_876737" data-name="Grupo 876737" transform="translate(105.001 193.417)">
        <g id="Grupo_876736" data-name="Grupo 876736">
          <path id="Trazado_120769" data-name="Trazado 120769" d="M472.778,580.662l-15.8-.555s-18.015-97.754-21.58-124.492l32.641,1.247C472.778,501.742,472.778,580.662,472.778,580.662Z" transform="translate(-435.397 -455.615)" fill="#2e3846"/>
        </g>
      </g>
      <g id="Grupo_876739" data-name="Grupo 876739" transform="translate(43.396 47.972)">
        <g id="Grupo_876738" data-name="Grupo 876738">
          <path id="Trazado_120770" data-name="Trazado 120770" d="M501.277,537.861s-9.523,3.244-43.385,2.953c-1.964-.016-4-25.132-6.116-25.191-1.572-.041-6.164,25.258-7.817,25.191-23.635-.967-38.894-12.261-38.894-12.261,2.722-8.417,7.941-19,13.435-30.866.26-.562.522-1.129.782-1.7v0c2.291-4.98,4.61-10.176,6.794-15.521.116-.278.229-.554.339-.831,1.737-4.279,3.382-8.654,4.858-13.094q.625-1.88,1.243-3.768c1.523-4.629,3.018-9.284,4.46-13.911q1.121-3.595,2.191-7.161c3.611-12.042,2.931-28.684,6.341-37.554,3.946-10.261,8.573-14.66,11.758-16.914a15.722,15.722,0,0,1,12.976-2.854c1.838.382,7.553.857,9.54,1.978,15.659,8.829,10.994,53.067,12.968,62.219C494.292,455.724,498.367,500.9,501.277,537.861Z" transform="translate(-405.065 -384.004)" fill="#daeae8"/>
        </g>
      </g>
      <g id="Grupo_876740" data-name="Grupo 876740" transform="translate(96.11 48.213)">
        <path id="Trazado_120771" data-name="Trazado 120771" d="M449.584,386.279s-8.047,17.327-9.962,22.2-6.221,25.695-8.209,25.059c-.841-.268-.227-13.571.847-23.5.648-5.977,4.21-24.45,9.4-25.418C444.945,384.006,449.862,383.446,449.584,386.279Z" transform="translate(-431.02 -384.122)" fill="#fff"/>
      </g>
      <g id="Grupo_876742" data-name="Grupo 876742" transform="translate(104.061 38.082)">
        <g id="Grupo_876741" data-name="Grupo 876741">
          <path id="Trazado_120772" data-name="Trazado 120772" d="M443.911,379.134l-.14,12.076c-.03,1.986-5.287,6.973-8.514,4.381-.944-.76.388-3.461,1.347-5.5l2.732-10.312Z" transform="translate(-434.934 -379.134)" fill="#ef6c66"/>
        </g>
      </g>
      <g id="Grupo_876743" data-name="Grupo 876743" transform="translate(107.315 39.894)">
        <path id="Trazado_120773" data-name="Trazado 120773" d="M436.536,383.19l.839-3.164,3.544.022S439.046,382.65,436.536,383.19Z" transform="translate(-436.536 -380.026)" fill="#b05655"/>
      </g>
      <g id="Grupo_876745" data-name="Grupo 876745" transform="translate(101.018 25.085)">
        <g id="Grupo_876744" data-name="Grupo 876744">
          <path id="Trazado_120774" data-name="Trazado 120774" d="M446.4,377.663a27.346,27.346,0,0,1,.053,6c-.556,3.684-3.345,5.1-7.241,5.063-3.8-.033-5.193-1.066-5.665-3.648a6.21,6.21,0,0,1-.03-2.133,12,12,0,0,1,2.431-5.3,20.213,20.213,0,0,0,1.318-2.693C439.8,371.165,445.4,372.331,446.4,377.663Z" transform="translate(-433.436 -372.735)" fill="#ef6c66"/>
        </g>
      </g>
      <g id="Grupo_876747" data-name="Grupo 876747" transform="translate(104.345 31.983)">
        <g id="Grupo_876746" data-name="Grupo 876746">
          <path id="Trazado_120775" data-name="Trazado 120775" d="M436.116,377.614a.233.233,0,0,0,.242-.164.222.222,0,0,0-.162-.274c-.77-.205-.65-.745-.644-.768a.227.227,0,0,0-.175-.27.234.234,0,0,0-.28.169,1.118,1.118,0,0,0,.975,1.3Z" transform="translate(-435.074 -376.131)" fill="#b05655"/>
        </g>
      </g>
      <g id="Grupo_876749" data-name="Grupo 876749" transform="translate(107.664 30.447)">
        <g id="Grupo_876748" data-name="Grupo 876748">
          <path id="Trazado_120776" data-name="Trazado 120776" d="M436.716,375.765c-.037.238.063.451.225.475s.325-.15.364-.388-.063-.451-.225-.475S436.754,375.528,436.716,375.765Z" transform="translate(-436.708 -375.375)" fill="#263d55"/>
        </g>
      </g>
      <g id="Grupo_876751" data-name="Grupo 876751" transform="translate(104.051 29.935)">
        <g id="Grupo_876750" data-name="Grupo 876750">
          <path id="Trazado_120777" data-name="Trazado 120777" d="M434.937,375.513c-.039.238.061.451.223.475s.325-.15.363-.388-.063-.451-.225-.475S434.976,375.276,434.937,375.513Z" transform="translate(-434.929 -375.123)" fill="#263d55"/>
        </g>
      </g>
      <g id="Grupo_876752" data-name="Grupo 876752" transform="translate(70.847 104.901)">
        <path id="Trazado_120778" data-name="Trazado 120778" d="M460.14,412.033s-5.078,19.027-22.309,22.63c-8.754,1.834-15.113.735-19.25-.788,1.523-4.629,3.018-9.284,4.46-13.91,3.891,1.326,9.052,2.813,12.913,2.931C443.022,423.108,455.329,416.548,460.14,412.033Z" transform="translate(-418.581 -412.033)" fill="#769a9d"/>
      </g>
      <g id="Grupo_876753" data-name="Grupo 876753" transform="translate(90.176 119.173)">
        <path id="Trazado_120779" data-name="Trazado 120779" d="M428.56,480.659l-.033,0a.449.449,0,0,1-.429-.471c.022-.321,2.305-32.08,2.472-36.689.167-4.637,2.557-23.259,2.659-24.049a.459.459,0,0,1,.514-.384.446.446,0,0,1,.4.494c-.024.193-2.486,19.372-2.653,23.97-.167,4.625-2.449,36.4-2.474,36.719A.453.453,0,0,1,428.56,480.659Z" transform="translate(-428.098 -419.06)" fill="#9d9f9f"/>
      </g>
      <g id="Grupo_876760" data-name="Grupo 876760" transform="translate(100.322 27.821)">
        <g id="Grupo_876755" data-name="Grupo 876755">
          <g id="Grupo_876754" data-name="Grupo 876754">
            <path id="Trazado_120780" data-name="Trazado 120780" d="M434.726,378.938a3.589,3.589,0,0,1-.489-.106,1.371,1.371,0,0,1-.859-.506,1.254,1.254,0,0,1-.272-.963l.317-2.25a1.229,1.229,0,0,1,1.42-1.018l1.834.268a1.386,1.386,0,0,1,.879.51,1.263,1.263,0,0,1,.272.963l-.136.971a2.988,2.988,0,0,1-.262.91A2.428,2.428,0,0,1,434.726,378.938Zm.134-4.4a.873.873,0,0,0-1,.717l-.317,2.25a.77.77,0,0,0,.158.589.828.828,0,0,0,.532.3l.043.01c.079.026,1.962.636,2.74-.938a2.653,2.653,0,0,0,.227-.8l.136-.971a.758.758,0,0,0-.16-.589.829.829,0,0,0-.53-.3Z" transform="translate(-433.093 -374.082)" fill="#fff"/>
          </g>
        </g>
        <g id="Grupo_876757" data-name="Grupo 876757" transform="translate(6.328 0.894)">
          <g id="Grupo_876756" data-name="Grupo 876756">
            <path id="Trazado_120781" data-name="Trazado 120781" d="M439.081,379.608c-1.087-.16-2.522-.717-2.817-2.1a3.112,3.112,0,0,1-.035-.965l.1-.975a1.188,1.188,0,0,1,1.385-1.032l2.429.357a1.426,1.426,0,0,1,.888.51,1.3,1.3,0,0,1,.3.961l-.236,2.263a1.184,1.184,0,0,1-1.367,1.032A4.622,4.622,0,0,1,439.081,379.608Zm-1.349-4.631a.832.832,0,0,0-.957.717l-.1.975a2.667,2.667,0,0,0,.026.827c.359,1.688,2.937,1.718,2.963,1.718l.032,0a.829.829,0,0,0,.957-.715l.236-2.263a.808.808,0,0,0-.181-.6.867.867,0,0,0-.546-.309Z" transform="translate(-436.209 -374.522)" fill="#fff"/>
          </g>
        </g>
        <g id="Grupo_876759" data-name="Grupo 876759" transform="translate(4.186 1.984)">
          <g id="Grupo_876758" data-name="Grupo 876758">
            <path id="Trazado_120782" data-name="Trazado 120782" d="M437.561,376.038a.247.247,0,0,1-.134-.063,1.615,1.615,0,0,0-1.907-.282.248.248,0,0,1-.315-.085.209.209,0,0,1,.028-.3,2.086,2.086,0,0,1,2.445.355.234.234,0,0,1,.057.317A.185.185,0,0,1,437.561,376.038Z" transform="translate(-435.154 -375.059)" fill="#fff"/>
          </g>
        </g>
      </g>
      <g id="Grupo_876761" data-name="Grupo 876761" transform="translate(102.452 34.046)">
        <path id="Trazado_120783" data-name="Trazado 120783" d="M439.716,378.347a39.832,39.832,0,0,1-5.551-1.2s-.234,1.836.786,2.622C435.83,380.447,438.812,380.456,439.716,378.347Z" transform="translate(-434.142 -377.147)" fill="#fff"/>
      </g>
      <g id="Grupo_876763" data-name="Grupo 876763" transform="translate(111.659 30.642)">
        <g id="Grupo_876762" data-name="Grupo 876762">
          <path id="Trazado_120784" data-name="Trazado 120784" d="M442.812,377.815c-.232-.264-2.543-.6-4.137-1.672l.122-.672c.41.276,3.965,1.584,4.3,1.974Z" transform="translate(-438.675 -375.471)" fill="#263d55"/>
        </g>
      </g>
      <g id="Grupo_876765" data-name="Grupo 876765" transform="translate(112.81 30.807)">
        <g id="Grupo_876764" data-name="Grupo 876764">
          <path id="Trazado_120785" data-name="Trazado 120785" d="M440.13,378.095a6.221,6.221,0,0,0,.6-1.221c.3-.806.951-1.938,1.984-.914,1.5,1.489-.362,5.7-2.575,5.3C438.491,380.968,439.5,379.057,440.13,378.095Z" transform="translate(-439.242 -375.552)" fill="#ef6c66"/>
        </g>
      </g>
      <g id="Grupo_876766" data-name="Grupo 876766" transform="translate(54.885 56.325)">
        <path id="Trazado_120786" data-name="Trazado 120786" d="M422.868,402.191c-.961-2.035-2.076-4-3.069-6.022-.585-1.186-3.674-7.088-4.789-7.744-2.033-1.2-3.889,1.345-4.206,3.382-.573.063,2.007,7.789,3.365,10.85,1.2,2.693.912,5.439,2.963,7.687a1.313,1.313,0,0,0,1.8,0,8.708,8.708,0,0,1,3.128-2.061,2.99,2.99,0,0,0,1.865-1.932C424.263,404.949,423.449,403.426,422.868,402.191Z" transform="translate(-410.722 -388.116)" fill="#ef6c66"/>
      </g>
      <g id="Grupo_876767" data-name="Grupo 876767" transform="translate(50.001 54.85)">
        <path id="Trazado_120787" data-name="Trazado 120787" d="M477.531,387.916c-5.429-2.618-8.817,4.875-13.62,14.762-6.327,13.025-13.872,28.91-16.461,28.262-5.376-1.347-24.159-34.292-24.159-34.292l-14.973,8.912s.754-.051,6.29,15.212c5.7,15.724,15.192,32.163,30.819,34.477C473.014,459.332,499,398.269,477.531,387.916Z" transform="translate(-408.317 -387.39)" fill="#daeae8"/>
      </g>
      <g id="Grupo_876768" data-name="Grupo 876768" transform="translate(41.296 24.122)">
        <path id="Trazado_120788" data-name="Trazado 120788" d="M404.037,384.5s.252-4.7.967-6.2,6.189-6.448,7.005-6.014-1.946,3.954-1.946,3.954,2.23-2.831,3.049-2.4,1,2.843.422,4.359-4.722,7.182-6.43,7.793S403.923,386.022,404.037,384.5Z" transform="translate(-404.031 -372.261)" fill="#ee6360"/>
      </g>
      <g id="Grupo_876769" data-name="Grupo 876769" transform="translate(105.394 150.876)">
        <path id="Trazado_120789" data-name="Trazado 120789" d="M447.467,462.079a4.668,4.668,0,0,1-1.706-.333c-4.669-1.836-7.9-7.05-9.345-15.074a56.571,56.571,0,0,1-.788-11.583.436.436,0,0,1,.158-.313.467.467,0,0,1,.347-.1l20.32,1.946a.452.452,0,0,1,.416.429c.313,11.776-2.322,21.265-6.713,24.171A4.834,4.834,0,0,1,447.467,462.079ZM436.532,435.6c-.087,3.164-.158,21.5,9.578,25.325a3.658,3.658,0,0,0,3.524-.437c3.359-2.224,6.6-10.2,6.323-23.028Z" transform="translate(-435.591 -434.67)" fill="#769a9d"/>
      </g>
      <g id="Grupo_876771" data-name="Grupo 876771" transform="translate(56.831 143.604)">
        <g id="Grupo_876770" data-name="Grupo 876770">
          <path id="Trazado_120790" data-name="Trazado 120790" d="M426.962,432.992l-7.367-1.9c-.11.276-.223.552-.339.831l7.029,1.818c-1.572,5.994-4.844,15.724-9.751,16.983a3.784,3.784,0,0,1-3.63-.983,3.6,3.6,0,0,1-.443-2.3q-.39.853-.782,1.7a2.217,2.217,0,0,0,.561,1.211,4.787,4.787,0,0,0,3.313,1.385,4.868,4.868,0,0,0,1.221-.158c5.2-1.336,8.591-10.553,10.515-18.052A.444.444,0,0,0,426.962,432.992Z" transform="translate(-411.68 -431.089)" fill="#769a9d"/>
        </g>
      </g>
    </g>
  </g>
</svg>
