<svg xmlns="http://www.w3.org/2000/svg" width="295" height="273.055" viewBox="0 0 295 273.055">
  <g id="Grupo_876817" data-name="Grupo 876817" transform="translate(-63.607 -599.321)">
    <path id="Trazado_120791" data-name="Trazado 120791" d="M257.494,777.659c9.882-5.521,20.425-12.158,23.909-22.928,2.876-8.882.067-18.311-2.567-26.871-2.155-7-9.264-12.209-15.352-15.982-4.272-2.647-8.892-4.849-12.55-8.294-5.953-5.608-5.484-12.707-2.782-19.7,2.725-7.043-.333-14.431-4.606-20.3-4.315-5.933-10.768-9.205-17.27-12.3a29.122,29.122,0,0,1-7.445-4.417c-5.484-5.051-5.755-13.411-7.76-20.593-4.519-16.17-21.885-32.938-39.3-24.852a7.4,7.4,0,0,1-2.5.859,7.643,7.643,0,0,1-2.9-.623c-4.81-1.586-10.009-1.363-15.058-.982-8.025.6-16.1,1.574-23.7,4.2-19.24,6.625-38.739,31.793-21.46,50.645,1.949,2.127,4.437,4.357,4.247,7.235a7.865,7.865,0,0,1-1.353,3.5c-3.843,6.26-9.67,11.052-13.99,17s-7.033,14.08-3.621,20.585c2.172,4.143,6.4,6.8,9.1,10.619,3.049,4.3,3.953,9.839,3.543,15.1-.712,9.158-3.1,18.3-4.819,27.315,6.588,2.453,13.856,1.763,20.885,1.71,10.6-.08,21.152,1.372,31.748,1.608s21.5-.833,30.967-5.608c6.082-3.068,11.794-8.337,12.4-15.123" transform="translate(25.25)" fill="#3f3829"/>
    <path id="Trazado_120792" data-name="Trazado 120792" d="M139.819,605.852A85.775,85.775,0,0,0,115.479,612c-4.719,1.964-9.521,4.6-12,9.066-3.51,6.333-1.316,14.217,1.376,20.938s5.884,13.913,4.1,20.93c-1.859,7.317-8.709,12.47-10.974,19.672a17.125,17.125,0,0,0,.72,12.062c2.7,5.984,8.547,9.841,12.7,14.931a34.968,34.968,0,0,1,7.374,23.474,46.937,46.937,0,0,1-8.019,23.52,82.931,82.931,0,0,0,47.549,1.6,21.7,21.7,0,0,0,7.619-3.265,20.343,20.343,0,0,0,4.4-4.937,55.43,55.43,0,0,0-2.325-65.626" transform="translate(32.283 6.274)" fill="#8d4191" opacity="0.41" style="mix-blend-mode: multiply;isolation: isolate"/>
    <path id="Trazado_120793" data-name="Trazado 120793" d="M117.854,688.7h104.03c-4.717-4.976-9.029-8.164-12.59-8.831a143.612,143.612,0,0,0-31.467-1.837L157.64,643.066,141.118,659.01l5.294,25.464S130.157,681.462,117.854,688.7Z" transform="translate(52.115 42.025)" fill="#e06a7e"/>
    <path id="Trazado_120794" data-name="Trazado 120794" d="M109.082,632.745a8.637,8.637,0,0,0-8.686,2.7,12.777,12.777,0,0,0-2.953,8.9,17,17,0,0,0,4.121,10.574c5.372,6.178,13.748,8.117,20.913,3.657" transform="translate(32.5 31.806)" fill="#e6677a"/>
    <g id="Grupo_876775" data-name="Grupo 876775" transform="translate(134.941 671.478)">
      <g id="Grupo_876773" data-name="Grupo 876773" transform="translate(0)">
        <path id="Trazado_120795" data-name="Trazado 120795" d="M113.179,649.377a7.808,7.808,0,0,0-.812-2.806,21.926,21.926,0,0,0-3.537-6.131,12.556,12.556,0,0,0-5.9-3.988c-1.792-.512-2.955-.3-2.945-.2-.008.163,1.11.212,2.719.853a14.019,14.019,0,0,1,5.372,3.969,29.862,29.862,0,0,1,3.653,5.78A9.847,9.847,0,0,0,113.179,649.377Z" transform="translate(-99.989 -636.123)" fill="#9f3f53"/>
      </g>
      <g id="Grupo_876774" data-name="Grupo 876774" transform="translate(5.254 3.453)">
        <path id="Trazado_120796" data-name="Trazado 120796" d="M109.62,648.739a15.111,15.111,0,0,1-2.186-.165,4.9,4.9,0,0,1-1.992-1.063,5.417,5.417,0,0,1-1.48-2.318,8.373,8.373,0,0,1,.125-5.129c.412-1.31.806-2.1.676-2.176-.1-.065-.714.6-1.327,1.931a7.868,7.868,0,0,0-.406,5.688,5.819,5.819,0,0,0,1.829,2.7,5.015,5.015,0,0,0,2.443,1.051C108.849,649.445,109.689,648.823,109.62,648.739Z" transform="translate(-102.669 -637.884)" fill="#9f3f53"/>
      </g>
    </g>
    <path id="Trazado_120797" data-name="Trazado 120797" d="M299.033,754.789c-15.844-38.49-45.5-89.057-61-91.958a143.015,143.015,0,0,0-30.352-1.9A25.236,25.236,0,0,1,192.211,670a33.925,33.925,0,0,1-19.089-2.851c-6.278-.718-25.616-1.647-34.93,12.4-11.209,16.9-36.306,94.4-50.253,113.43l43.606,4.365s15.089-20.56,18.3-36.426c0,0,.635,25.542-1.292,36.426s117.528,0,117.528,0S314.877,793.28,299.033,754.789Z" transform="translate(23.376 59.064)" fill="#fceef5"/>
    <path id="Trazado_120798" data-name="Trazado 120798" d="M182.39,660.871c-5.029-.145-8.988-.021-10.815.063A25.236,25.236,0,0,1,156.1,670a33.925,33.925,0,0,1-19.089-2.851,55.218,55.218,0,0,0-11.49-.08,51.84,51.84,0,0,0,23.981,30.467S173.688,684.338,182.39,660.871Z" transform="translate(59.483 59.066)" fill="#217e70"/>
    <path id="Trazado_120799" data-name="Trazado 120799" d="M145.245,715.169c0,2.62-.923,4.743-2.061,4.743s-2.061-2.123-2.061-4.743.922-4.745,2.061-4.745S145.245,712.547,145.245,715.169Z" transform="translate(74.47 106.736)" fill="#6bb4cf"/>
    <path id="Trazado_120800" data-name="Trazado 120800" d="M161.239,717.872c-5.7,1.765-11.825.267-17.633-1.09s-12.088-2.531-17.576-.2c-.867.369-1.827,1.39-1.186,2.08a1.587,1.587,0,0,0,1.347.282c5.19-.518,10.864-.97,15.189,1.943q-5.844.594-11.633,1.624a40.391,40.391,0,0,0-10.411,2.966,16.343,16.343,0,0,0-7.809,7.249c3.117.467,5.882-1.8,8.521-3.521a29.2,29.2,0,0,1,17.376-4.666,86.623,86.623,0,0,0-12.488,5.376,24.5,24.5,0,0,0-6.943,4.914,10.025,10.025,0,0,0-2.819,7.79c6.613-6.143,13.984-12.627,22.991-13.223a30.391,30.391,0,0,0-16.029,14.54c2.567-2.623,5.5-5.419,9.162-5.592,3.949-.186,7.282,2.721,10.962,4.167a23.819,23.819,0,0,0,9.807,1.241c7.08-.323,14.327-2.223,19.75-6.79a13.309,13.309,0,0,0,4.449-6.219" transform="translate(46.037 111.375)" fill="#ee7686"/>
    <g id="Grupo_876776" data-name="Grupo 876776" transform="translate(205.453 756.609)">
      <path id="Trazado_120801" data-name="Trazado 120801" d="M140.215,679.907l-.045-.006a4.018,4.018,0,0,1-.831-.359,100.47,100.47,0,0,1,.6,12.423c-.049,5.427-.531,11.88-1.237,19.056-.686,7.174-1.533,15.1-1.621,23.5-.08,8.431,1.084,16.337,1.449,23.483a123.91,123.91,0,0,1-.543,19.017c-.535,5.41-1.161,9.778-1.547,12.805s-.574,4.709-.437,4.735.563-1.614,1.192-4.608,1.457-7.341,2.174-12.776a112.369,112.369,0,0,0,.971-19.26c-.275-7.272-1.374-15.136-1.292-23.385.086-8.266.871-16.15,1.461-23.35a184.62,184.62,0,0,0,.822-19.223A79.392,79.392,0,0,0,140.215,679.907Z" transform="translate(-135.952 -679.542)" fill="#bda9d1"/>
    </g>
    <path id="Trazado_120802" data-name="Trazado 120802" d="M261.5,765.013c-.961-7.151-3.868-13.447-6.533-20.058-2.165-5.376-3.286-10.2-6.28-15.36-7.466-12.88-13.282-26.138-21.958-38.563-6.788-9.725-16.387-26.436-29.683-27.94-15.289-1.727-16.509,20.717-15.776,30.871.8,11.07,4.241,21.622,9.135,31.532,2.053,4.157,3.386,8.325,5.78,12.292,2.567,4.255,4.057,10.613,4.284,15.544a4.427,4.427,0,0,1-.8,3.28,4.632,4.632,0,0,1-2.284,1.11c-9.154,2.425-18.705,2.839-28.167,3.239l-34.681,1.465a123.606,123.606,0,0,0-.214,29.283c3.853.755,7.733,1.427,11.478,2.5,3.341.959,6.237,2.855,9.519,3.927,10.15,3.316,23.081,2.969,33.638,2.518,16.919-.722,33.963-2.392,50.162-7.582,6.715-2.153,11.668-2.706,16.472-8.474A25.439,25.439,0,0,0,261.5,765.013Z" transform="translate(67.194 61.174)" fill="#fceef5"/>
    <path id="Rectángulo_293781" data-name="Rectángulo 293781" d="M3.6,0H95.664a3.6,3.6,0,0,1,3.6,3.6v6.894a0,0,0,0,1,0,0H0a0,0,0,0,1,0,0V3.6A3.6,3.6,0,0,1,3.6,0Z" transform="translate(86.05 840.846)" fill="#16205a"/>
    <g id="Grupo_876778" data-name="Grupo 876778" transform="translate(130.782 666.308)">
      <g id="Grupo_876777" data-name="Grupo 876777">
        <path id="Trazado_120803" data-name="Trazado 120803" d="M98.627,637.08l17.472-2c1.006-.116,1.018-1.7,0-1.588l-17.472,2c-1.006.116-1.018,1.706,0,1.59Z" transform="translate(-97.868 -633.486)" fill="#fceef5"/>
      </g>
    </g>
    <path id="Trazado_120804" data-name="Trazado 120804" d="M144.461,701.412a39.785,39.785,0,0,0,23.37-7.288c7.553-5.486,10.872-12.98,14.6-21.2a6.142,6.142,0,0,0,4.9.714c11.639-2.249,19.842-15.964,10.917-26.089-4.141-4.7-12.5-5.529-16.546-.745a53.774,53.774,0,0,0-7.645-24.164c-10.323-16.785-31.042-22.126-48.972-14.67-11.266,4.684-20.356,15.054-22.1,27.128a57.857,57.857,0,0,0,.192,14.092c1.023,10.047,2.488,20.179,6.345,29.514C115.486,693.148,129.007,701.406,144.461,701.412Z" transform="translate(37.478 5.143)" fill="#ee7686"/>
    <path id="Trazado_120805" data-name="Trazado 120805" d="M112.183,606.825a13.865,13.865,0,0,0,8.76,15.789c3.874,1.3,8.433.88,11.678,3.366,2.916,2.233,3.857,6.117,5.2,9.537a27.306,27.306,0,0,0,11.825,14.1c5.482,3.019,12.431,3.586,18.042.814a2.957,2.957,0,0,0,1.063-.759c.961-1.233-.227-2.943-1.3-4.076a54.081,54.081,0,0,1-10.431-15.805c-1.469-3.41-2.594-6.988-4.478-10.186s-4.7-6.07-8.3-6.984" transform="translate(46.353 7.209)" fill="#8d4191" opacity="0.13" style="mix-blend-mode: multiply;isolation: isolate"/>
    <g id="Grupo_876779" data-name="Grupo 876779" transform="translate(145.89 640.698)">
      <path id="Trazado_120806" data-name="Trazado 120806" d="M113.8,636.318c.414,2.586-.19,4.831-1.347,5.015s-2.431-1.759-2.845-4.343.188-4.831,1.347-5.016S113.387,633.734,113.8,636.318Z" transform="translate(-101.822 -609.339)" fill="#9f3f53"/>
      <path id="Trazado_120807" data-name="Trazado 120807" d="M127.442,633.6c.414,2.586-.19,4.831-1.347,5.015s-2.433-1.759-2.847-4.343.19-4.831,1.349-5.016S127.028,631.011,127.442,633.6Z" transform="translate(-88.719 -611.955)" fill="#9f3f53"/>
      <path id="Trazado_120808" data-name="Trazado 120808" d="M115.311,625.135c.759,1.549-.763,3.851-3.4,5.141s-5.386,1.08-6.145-.469.763-3.851,3.4-5.141S114.553,623.586,115.311,625.135Z" transform="translate(-105.573 -617.161)" fill="#3f3829"/>
      <path id="Trazado_120809" data-name="Trazado 120809" d="M130.96,625.251c-.48,1.657-3.155,2.337-5.972,1.518s-4.712-2.823-4.231-4.48,3.157-2.335,5.974-1.518S131.442,623.6,130.96,625.251Z" transform="translate(-91.059 -620.424)" fill="#3f3829"/>
    </g>
    <g id="Grupo_876785" data-name="Grupo 876785" transform="translate(161.14 648.68)">
      <g id="Grupo_876780" data-name="Grupo 876780" transform="translate(0)">
        <path id="Trazado_120810" data-name="Trazado 120810" d="M124.5,651.846c-.059-.047-.394.357-1.031,1.008a4.988,4.988,0,0,1-1.28.963,2.362,2.362,0,0,1-1.914.11,1.448,1.448,0,0,1-.878-1.8,30.766,30.766,0,0,0,.451-3.1,30.344,30.344,0,0,0-.28-7.225,52.54,52.54,0,0,0-3.819-12.466,26.224,26.224,0,0,0-2.38-4.833c-.131.055.582,1.986,1.735,5.09a65.094,65.094,0,0,1,3.494,12.358,32.664,32.664,0,0,1,.349,7.007c-.061,1.092-.214,2.057-.359,3.073a2.639,2.639,0,0,0,.249,1.608,2.15,2.15,0,0,0,1.2.949,2.914,2.914,0,0,0,2.412-.282,4.786,4.786,0,0,0,1.3-1.192C124.327,652.35,124.546,651.881,124.5,651.846Z" transform="translate(-113.351 -624.495)" fill="#9f3f53"/>
      </g>
      <g id="Grupo_876781" data-name="Grupo 876781" transform="translate(5.95 28.329)">
        <path id="Trazado_120811" data-name="Trazado 120811" d="M125.81,638.944c-.153,0-.2.747-.614,1.808a6.371,6.371,0,0,1-6.923,4.135c-1.131-.135-1.81-.451-1.882-.316-.065.1.518.657,1.749,1a6.265,6.265,0,0,0,7.721-4.611C126.143,639.711,125.925,638.932,125.81,638.944Z" transform="translate(-116.386 -638.944)" fill="#9f3f53"/>
      </g>
      <g id="Grupo_876784" data-name="Grupo 876784" transform="translate(59.28 4.192)">
        <g id="Grupo_876782" data-name="Grupo 876782">
          <path id="Trazado_120812" data-name="Trazado 120812" d="M147.649,649.892c.024-.073-.345-.21-.882-.612a5.355,5.355,0,0,1-1.684-2.21,9.784,9.784,0,0,1-.59-4.143,20.286,20.286,0,0,1,.851-5.166A21.5,21.5,0,0,1,150,629.5c1.639-1.843,2.935-2.712,2.835-2.855a9.118,9.118,0,0,0-3.337,2.372,19.568,19.568,0,0,0-5.1,8.466,19.147,19.147,0,0,0-.814,5.435,9.691,9.691,0,0,0,.865,4.451,5.1,5.1,0,0,0,2.112,2.239C147.22,649.939,147.637,649.949,147.649,649.892Z" transform="translate(-143.585 -626.633)" fill="#9f3f53"/>
        </g>
        <g id="Grupo_876783" data-name="Grupo 876783" transform="translate(2.775 6.856)">
          <path id="Trazado_120813" data-name="Trazado 120813" d="M147.139,642.411c.061.094.876-.292,1.684-1.457a7.047,7.047,0,0,0,1.035-5.284,7.835,7.835,0,0,0-2.853-4.557c-1.106-.849-1.951-1.065-2-.959-.071.135.637.567,1.537,1.478a8.575,8.575,0,0,1,2.353,4.231,7.411,7.411,0,0,1-.671,4.735C147.652,641.731,147.037,642.292,147.139,642.411Z" transform="translate(-145.001 -630.13)" fill="#9f3f53"/>
        </g>
      </g>
    </g>
    <g id="Grupo_876786" data-name="Grupo 876786" transform="translate(146.409 660.54)" opacity="0.14" style="mix-blend-mode: multiply;isolation: isolate">
      <circle id="Elipse_4993" data-name="Elipse 4993" cx="12.023" cy="12.023" r="12.023" transform="matrix(0.861, -0.509, 0.509, 0.861, 34.064, 12.241)" fill="#8d4191"/>
      <path id="Trazado_120814" data-name="Trazado 120814" d="M124.751,652.554a12.014,12.014,0,0,0-18.913-9.845c.2.514.374,1.035.584,1.545a35.912,35.912,0,0,0,14.478,17.1A11.974,11.974,0,0,0,124.751,652.554Z" transform="translate(-105.838 -620.95)" fill="#8d4191"/>
    </g>
    <path id="Trazado_120815" data-name="Trazado 120815" d="M146.61,604.772a64.079,64.079,0,0,0-17.152-1.039c-2.223.122-16.929,2.169-17.234,3.925-.784,4.478,4.145,8.407,7.641,10.182a77.766,77.766,0,0,0,12.525,5.041c2.339.712,4.98,1.523,6.082,3.706a11.073,11.073,0,0,1,.694,4.408c.422,7.111,4.215,10.121,8.86,14.6,4.764,4.59,10.988,8.055,17.827,6.445a8.948,8.948,0,0,0,5.849-3.869c2.78-4.839,1-13.348-1.753-17.856-3.415-5.594-6.037-11.639-9.97-16.931C156.206,608.307,153.043,606.19,146.61,604.772Z" transform="translate(46.626 4.099)" fill="#3f3829"/>
    <g id="Grupo_876787" data-name="Grupo 876787" transform="translate(156.887 742.343)">
      <path id="Trazado_120816" data-name="Trazado 120816" d="M127.591,748.113c.049-.078-.947-.716-2.621-2.014a35.338,35.338,0,0,1-6.315-6.307,32.725,32.725,0,0,1-3.27-5.2,28.77,28.77,0,0,1-2.433-6.6,29.424,29.424,0,0,1,.633-15.913,117.7,117.7,0,0,1,6.329-15.019,76.46,76.46,0,0,0,4.888-12.507,32.521,32.521,0,0,0,1.212-8.984,23.42,23.42,0,0,0-.19-2.457,2.82,2.82,0,0,0-.149-.847,31.134,31.134,0,0,0-.043,3.3,35.813,35.813,0,0,1-1.5,8.8,82.007,82.007,0,0,1-5.037,12.307,110.693,110.693,0,0,0-6.453,15.123,29.863,29.863,0,0,0-.571,16.415,29,29,0,0,0,2.586,6.753,32.1,32.1,0,0,0,10.084,11.445,21.236,21.236,0,0,0,2.08,1.319A2.784,2.784,0,0,0,127.591,748.113Z" transform="translate(-111.182 -672.266)" fill="#bda9d1"/>
    </g>
    <g id="Grupo_876788" data-name="Grupo 876788" transform="translate(163.7 747.787)">
      <path id="Trazado_120817" data-name="Trazado 120817" d="M116.767,692.6c.237.065,1.214-3.963.6-8.97-.574-5.011-2.463-8.7-2.678-8.582-.278.108,1.151,3.851,1.7,8.7C116.986,688.584,116.471,692.556,116.767,692.6Z" transform="translate(-114.657 -675.043)" fill="#bda9d1"/>
    </g>
    <g id="Grupo_876789" data-name="Grupo 876789" transform="translate(200.332 736.751)">
      <path id="Trazado_120818" data-name="Trazado 120818" d="M177.383,669.414a4.454,4.454,0,0,0-.149,1.52l-.035,1.847c0,.731.074,1.571.125,2.517a62.567,62.567,0,0,0,3.294,15.723c2.139,6.464,5.664,13.76,9.572,21.758.971,2,1.951,4.061,2.925,6.17s1.951,4.261,2.757,6.5a38.68,38.68,0,0,1,2.657,14.3,15.886,15.886,0,0,1-1.735,6.9,11.874,11.874,0,0,1-2.057,2.733,12.731,12.731,0,0,1-2.745,1.986,18.955,18.955,0,0,1-6.478,1.923q-3.444.421-6.762.663c-8.843.612-16.878.459-23.63.6-6.755.088-12.231.433-15.989.88-1.88.22-3.333.439-4.312.637a4.551,4.551,0,0,0-1.48.38,4.494,4.494,0,0,0,1.527.014c.99-.073,2.449-.169,4.329-.269,3.757-.212,9.194-.341,15.931-.253,6.733.039,14.778.337,23.744-.18q3.362-.206,6.874-.608a20.669,20.669,0,0,0,7.153-2.086,14.559,14.559,0,0,0,3.192-2.29,13.871,13.871,0,0,0,2.423-3.194,17.755,17.755,0,0,0,1.98-7.749,39.988,39.988,0,0,0-2.814-15.05c-.849-2.325-1.88-4.51-2.861-6.631q-1.5-3.179-3-6.178c-4.008-7.976-7.615-15.117-9.886-21.419a70.58,70.58,0,0,1-3.843-15.339c-.108-.929-.247-1.755-.3-2.474-.053-.635-.1-1.241-.153-1.825A4.628,4.628,0,0,0,177.383,669.414Z" transform="translate(-133.34 -669.414)" fill="#bda9d1"/>
    </g>
    <path id="Trazado_120819" data-name="Trazado 120819" d="M137.755,697.53l20.954,16.438s18.852-18.4,12.405-53.092q-1.482-.047-2.831-.065Z" transform="translate(71.233 59.074)" fill="#eadeee"/>
    <path id="Trazado_120820" data-name="Trazado 120820" d="M128.648,663.916q-1.121.068-2.294.19c-1.367,7.3-4.423,28.142,1.963,42.588l22.254-12.147Z" transform="translate(58.417 62.056)" fill="#eadeee"/>
    <path id="Trazado_120821" data-name="Trazado 120821" d="M166.062,673.525a34.139,34.139,0,0,0,13.158-12.7c-4.129-.07-7.353.033-8.947.106A25.236,25.236,0,0,1,154.8,670a33.925,33.925,0,0,1-19.089-2.851,55.566,55.566,0,0,0-8.835-.278,24.507,24.507,0,0,0,12.023,8.7A34.2,34.2,0,0,0,166.062,673.525Z" transform="translate(60.784 59.066)" fill="#77cde6"/>
    <path id="Trazado_120822" data-name="Trazado 120822" d="M145.023,692.612c0,2.621-.924,4.745-2.061,4.745s-2.063-2.123-2.063-4.745.923-4.743,2.063-4.743S145.023,689.992,145.023,692.612Z" transform="translate(74.255 85.067)" fill="#6bb4cf"/>
    <path id="Trazado_120823" data-name="Trazado 120823" d="M145.023,704.468c0,2.621-.924,4.745-2.061,4.745s-2.063-2.123-2.063-4.745.923-4.743,2.063-4.743S145.023,701.848,145.023,704.468Z" transform="translate(74.255 96.457)" fill="#6bb4cf"/>
    <path id="Trazado_120824" data-name="Trazado 120824" d="M234.34,743.24a45.041,45.041,0,0,0-4.717-11.533c-4.049-7.109-9.16-13.084-13.721-18.911-9.184-11.623-16.462-22.877-21.238-33-2.418-5.041-4.163-9.807-5.88-13.935-.212-.512-.422-1.014-.633-1.5-.19.167-.371.343-.551.521.169.414.337.829.5,1.257,1.647,4.133,3.337,8.941,5.723,14.054,4.7,10.254,11.954,21.644,21.125,33.351,4.553,5.868,9.605,11.827,13.552,18.8a43.866,43.866,0,0,1,4.568,11.205,33.47,33.47,0,0,1,.9,6.109,28.862,28.862,0,0,1-.278,6.231,25.97,25.97,0,0,1-1.651,5.982,21.456,21.456,0,0,1-3.176,5.19,24.057,24.057,0,0,1-9.776,6.741,51.81,51.81,0,0,1-11.36,2.925c-.953.151-1.89.359-2.841.459s-1.892.208-2.831.312c-1.874.247-3.741.335-5.584.435a186.039,186.039,0,0,1-21-.312l-18.319-1.274c-4.747-.333-9.115-.488-13.058-.506.112-5.855.523-11.088.973-15.16l-.949.041a124.814,124.814,0,0,0-1.31,15.119c-3.455.012-6.551.131-9.253.329,0,.192,0,.386,0,.58,2.7-.141,5.788-.206,9.237-.165-.037,1.67-.049,3.378-.02,5.131.073,3.735.314,7.288.643,10.574.422.1.839.216,1.259.327-.294-3.382-.516-7.059-.59-10.925-.031-1.739-.025-3.431,0-5.088,3.923.076,8.274.284,13.005.667,5.594.394,11.715.98,18.311,1.433a182.535,182.535,0,0,0,21.128.433c1.863-.092,3.749-.175,5.649-.416l2.87-.306c.961-.1,1.916-.306,2.882-.455a52.851,52.851,0,0,0,11.629-2.967,25.3,25.3,0,0,0,10.3-7.1,22.719,22.719,0,0,0,3.382-5.516,27.189,27.189,0,0,0,1.743-6.3,29.912,29.912,0,0,0,.288-6.5A34.542,34.542,0,0,0,234.34,743.24Z" transform="translate(67.199 62.477)" fill="#bda9d1"/>
    <g id="Grupo_876792" data-name="Grupo 876792" transform="translate(193.08 779.059)">
      <g id="Grupo_876790" data-name="Grupo 876790" transform="translate(0.374)">
        <path id="Trazado_120825" data-name="Trazado 120825" d="M139.2,691.647c0-.363-2.1-.655-4.682-.655s-4.682.292-4.682.655,2.1.655,4.682.655S139.2,692.01,139.2,691.647Z" transform="translate(-129.832 -690.992)" fill="#bda9d1"/>
      </g>
      <g id="Grupo_876791" data-name="Grupo 876791" transform="translate(0 23.072)">
        <path id="Trazado_120826" data-name="Trazado 120826" d="M137.019,703.055c-.075-.361-1.718-.32-3.7-.247s-3.627.175-3.672.539,1.618.859,3.723.771S137.093,703.4,137.019,703.055Z" transform="translate(-129.641 -702.759)" fill="#bda9d1"/>
      </g>
    </g>
    <path id="Trazado_120827" data-name="Trazado 120827" d="M204.118,739.125a25.439,25.439,0,0,0,5.911-19.583,48.06,48.06,0,0,0-2.282-9.211,37.338,37.338,0,0,0-11.319,8.7,39.244,39.244,0,0,0-9.17,28.689c.129-.041.259-.077.388-.118C194.362,745.446,199.314,744.893,204.118,739.125Z" transform="translate(118.669 106.645)" fill="#eadeee"/>
    <path id="Trazado_120828" data-name="Trazado 120828" d="M182.353,680.513c-2.559-4.388-8.57-10.113-14.18-8.509-5.186,1.482-6.749,7.627-5.688,12.192,1.757,7.553,8.139,14.3,15.876,14.811a5.887,5.887,0,0,0,2.67-.316,5.377,5.377,0,0,0,2.218-1.941C186.559,692.069,185.24,685.465,182.353,680.513Z" transform="translate(94.691 69.56)" fill="#217e70"/>
    <path id="Trazado_120829" data-name="Trazado 120829" d="M137.207,623.573a52.38,52.38,0,0,1,7.5,38.261c-2.135,10.966-7.823,21.342-7.574,32.512a29.366,29.366,0,0,0,11.243,22.56,25.814,25.814,0,0,0,24.691,3.539c4.523-1.825,8.374-4.988,12.717-7.213a33.984,33.984,0,0,1,22.111-3.023c1.984-5.245-1.557-11.2-6.292-14.2s-10.437-3.951-15.786-5.633a57.733,57.733,0,0,1-19.738-10.819,18.746,18.746,0,0,1-5.361-6.384c-1.4-3.118-1.3-6.67-1.227-10.086.165-7.627.043-15.376-2.119-22.693s-6.615-14.24-13.319-17.88" transform="translate(70.628 22.279)" fill="#3f3829"/>
    <g id="Grupo_876793" data-name="Grupo 876793" transform="translate(228.845 667.619)">
      <path id="Trazado_120830" data-name="Trazado 120830" d="M192.917,692.127a2.666,2.666,0,0,0-.282-.788,17.471,17.471,0,0,0-1.1-2.131,24.231,24.231,0,0,0-5.99-6.468,37.812,37.812,0,0,0-11.68-5.87c-2.355-.749-4.864-1.321-7.408-2.053a28.743,28.743,0,0,1-7.46-3.088,16.018,16.018,0,0,1-3.121-2.568,18.166,18.166,0,0,1-2.292-3.2,26.343,26.343,0,0,1-2.525-7.076,127.2,127.2,0,0,1-1.684-12.833c-.388-3.68-.72-6.659-.969-8.713a20.412,20.412,0,0,0-.488-3.182,19.833,19.833,0,0,0,.106,3.218c.133,2.067.359,5.055.657,8.743a113.368,113.368,0,0,0,1.492,12.96,26.814,26.814,0,0,0,2.569,7.351,18.825,18.825,0,0,0,2.416,3.4,16.842,16.842,0,0,0,3.316,2.737,29.241,29.241,0,0,0,7.721,3.182c2.58.729,5.088,1.282,7.406,1.992a38.549,38.549,0,0,1,11.531,5.563,25.873,25.873,0,0,1,6.084,6.119C192.36,691.117,192.829,692.17,192.917,692.127Z" transform="translate(-147.882 -634.155)" fill="#8d4191" opacity="0.41" style="mix-blend-mode: multiply;isolation: isolate"/>
    </g>
    <g id="Grupo_876800" data-name="Grupo 876800" transform="translate(130.865 643.94)">
      <g id="Grupo_876794" data-name="Grupo 876794" transform="translate(0 8.343)">
        <path id="Trazado_120831" data-name="Trazado 120831" d="M114.709,659.93a16.8,16.8,0,1,1,16.8-16.8A16.818,16.818,0,0,1,114.709,659.93Zm0-31.895a15.1,15.1,0,1,0,15.1,15.1A15.112,15.112,0,0,0,114.709,628.035Z" transform="translate(-97.91 -626.333)" fill="#fceef5"/>
      </g>
      <g id="Grupo_876795" data-name="Grupo 876795" transform="translate(40)">
        <path id="Trazado_120832" data-name="Trazado 120832" d="M135.108,655.674a16.8,16.8,0,1,1,16.8-16.8A16.818,16.818,0,0,1,135.108,655.674Zm0-31.895a15.1,15.1,0,1,0,15.1,15.1A15.113,15.113,0,0,0,135.108,623.78Z" transform="translate(-118.311 -622.078)" fill="#fceef5"/>
      </g>
      <g id="Grupo_876797" data-name="Grupo 876797" transform="translate(69.296 0.88)">
        <g id="Grupo_876796" data-name="Grupo 876796">
          <path id="Trazado_120833" data-name="Trazado 120833" d="M134.226,630.39a156.037,156.037,0,0,1,18.456-4.815c3.327-.655,6.694-1.133,10.066-1.5,5.847-.631,8.98,2.267,11.607,6.919a.8.8,0,0,0,1.372-.8c-3.594-6.366-7.553-8.292-14.88-7.5a133.424,133.424,0,0,0-27.044,6.164c-.969.318-.555,1.851.422,1.531Z" transform="translate(-133.253 -622.526)" fill="#fceef5"/>
        </g>
      </g>
      <g id="Grupo_876799" data-name="Grupo 876799" transform="translate(31.514 15.815)">
        <g id="Grupo_876798" data-name="Grupo 876798">
          <path id="Trazado_120834" data-name="Trazado 120834" d="M115.536,635.032a3.948,3.948,0,0,1,7.145-1.6c.625.81,1.741-.323,1.123-1.123a5.524,5.524,0,0,0-9.8,2.3c-.21,1,1.322,1.425,1.533.423Z" transform="translate(-113.983 -630.144)" fill="#fceef5"/>
        </g>
      </g>
    </g>
    <path id="Trazado_120835" data-name="Trazado 120835" d="M347.705,749.267H74.506a10.9,10.9,0,0,1-10.9-10.9h0a10.9,10.9,0,0,1,10.9-10.9h273.2a10.9,10.9,0,0,1,10.9,10.9h0A10.9,10.9,0,0,1,347.705,749.267Z" transform="translate(0 123.11)" fill="#db5b1e"/>
    <g id="Grupo_876816" data-name="Grupo 876816" transform="translate(79.574 690.848)">
      <g id="Grupo_876801" data-name="Grupo 876801" transform="translate(4.777 7.189)">
        <path id="Trazado_120836" data-name="Trazado 120836" d="M75.383,663.553q19.837-6.012,39.673-12.027a.947.947,0,0,0-.549-1.812L74.834,661.743a.946.946,0,0,0,.549,1.81Z" transform="translate(-74.187 -649.669)" fill="#88c9e8"/>
      </g>
      <g id="Grupo_876802" data-name="Grupo 876802" transform="translate(7.248 15.338)">
        <path id="Trazado_120837" data-name="Trazado 120837" d="M76.643,667.711l39.673-12.029a.947.947,0,0,0-.549-1.812L76.094,665.9a.947.947,0,0,0,.549,1.812Z" transform="translate(-75.447 -653.825)" fill="#88c9e8"/>
      </g>
      <g id="Grupo_876803" data-name="Grupo 876803" transform="translate(16.645 25.588)">
        <path id="Trazado_120838" data-name="Trazado 120838" d="M81.438,668.737l25.818-7.829a.946.946,0,0,0-.549-1.81l-25.82,7.827a.947.947,0,0,0,.551,1.812Z" transform="translate(-80.24 -659.053)" fill="#88c9e8"/>
      </g>
      <g id="Grupo_876804" data-name="Grupo 876804" transform="translate(21.355 40.578)">
        <path id="Trazado_120839" data-name="Trazado 120839" d="M83.838,676.59l26.5-8.035a.947.947,0,0,0-.549-1.812l-26.5,8.035a.947.947,0,0,0,.549,1.812Z" transform="translate(-82.642 -666.698)" fill="#88c9e8"/>
      </g>
      <g id="Grupo_876805" data-name="Grupo 876805" transform="translate(18.712 46.789)">
        <path id="Trazado_120840" data-name="Trazado 120840" d="M82.492,683.011l37.23-11.288a.947.947,0,0,0-.549-1.812L81.943,681.2a.947.947,0,0,0,.549,1.812Z" transform="translate(-81.294 -669.866)" fill="#88c9e8"/>
      </g>
      <g id="Grupo_876806" data-name="Grupo 876806" transform="translate(17.332 53.959)">
        <path id="Trazado_120841" data-name="Trazado 120841" d="M81.788,688.58l43.539-13.2a.947.947,0,0,0-.549-1.812q-21.77,6.6-43.539,13.2a.946.946,0,0,0,.549,1.81Z" transform="translate(-80.59 -673.523)" fill="#88c9e8"/>
      </g>
      <g id="Grupo_876807" data-name="Grupo 876807" transform="translate(21 62.085)">
        <path id="Trazado_120842" data-name="Trazado 120842" d="M83.657,692.151,125.3,679.524a.947.947,0,0,0-.549-1.812q-20.823,6.314-41.647,12.627a.947.947,0,0,0,.549,1.812Z" transform="translate(-82.461 -677.667)" fill="#88c9e8"/>
      </g>
      <g id="Grupo_876808" data-name="Grupo 876808" transform="translate(26.56 70.594)">
        <path id="Trazado_120843" data-name="Trazado 120843" d="M86.493,694.96l36.6-11.1a.947.947,0,0,0-.549-1.812q-18.3,5.547-36.6,11.1a.947.947,0,0,0,.549,1.812Z" transform="translate(-85.297 -682.007)" fill="#88c9e8"/>
      </g>
      <g id="Grupo_876809" data-name="Grupo 876809" transform="translate(35.907 80.058)">
        <path id="Trazado_120844" data-name="Trazado 120844" d="M91.26,696.151l24.611-7.46a.947.947,0,0,0-.549-1.812l-24.611,7.462a.946.946,0,0,0,.549,1.81Z" transform="translate(-90.064 -686.834)" fill="#88c9e8"/>
      </g>
      <g id="Grupo_876810" data-name="Grupo 876810" transform="translate(36.455 95.491)">
        <path id="Trazado_120845" data-name="Trazado 120845" d="M91.541,705.518q14.773-4.479,29.542-8.956a.947.947,0,0,0-.549-1.812l-29.542,8.956a.947.947,0,0,0,.549,1.812Z" transform="translate(-90.343 -694.705)" fill="#88c9e8"/>
      </g>
      <g id="Grupo_876811" data-name="Grupo 876811" transform="translate(33.768 102.639)">
        <path id="Trazado_120846" data-name="Trazado 120846" d="M90.169,711.261l36.457-11.054a.946.946,0,0,0-.549-1.81L89.62,709.449a.947.947,0,0,0,.549,1.812Z" transform="translate(-88.973 -698.351)" fill="#88c9e8"/>
      </g>
      <g id="Grupo_876812" data-name="Grupo 876812" transform="translate(32.966 109.025)">
        <path id="Trazado_120847" data-name="Trazado 120847" d="M89.76,716.8l44-13.341a.946.946,0,0,0-.551-1.81q-22,6.67-44,13.339a.947.947,0,0,0,.549,1.812Z" transform="translate(-88.564 -701.608)" fill="#88c9e8"/>
      </g>
      <g id="Grupo_876815" data-name="Grupo 876815">
        <g id="Grupo_876813" data-name="Grupo 876813" transform="translate(0 12.898)">
          <path id="Trazado_120848" data-name="Trazado 120848" d="M71.93,656.33C76.163,668.6,86.3,676.774,98.7,679.949c7.2,1.845,14.315,2.361,20.826,6.272a26.6,26.6,0,0,1,11.533,15.327c4.282,14.7-10.235,26.956-18.542,36.961-8.062,9.709-15.06,23.9-6.784,35.655,2.21,3.137,7.286-.033,5.059-3.2-9.537-13.546,6.233-28.5,14.476-38.043,8.158-9.443,14.566-20.287,11.515-33.112-2.743-11.542-13.09-19.783-24.017-22.987-7.358-2.159-14.829-2.459-21.709-6.178a29.033,29.033,0,0,1-13.4-16.052c-1.255-3.639-6.984-1.916-5.725,1.735Z" transform="translate(-71.75 -652.58)" fill="#fb9127"/>
        </g>
        <g id="Grupo_876814" data-name="Grupo 876814" transform="translate(16.991)">
          <path id="Trazado_120849" data-name="Trazado 120849" d="M105.94,649.813a29.76,29.76,0,0,1-1.61,19.5c-3,7.043-9.021,11.87-14.162,17.287A34.484,34.484,0,0,0,81.5,719.053c3.31,12.627,15.415,18.472,26.893,21.925,12.356,3.717,35.04,6.782,34.616,24.016-.1,3.867,5.886,3.684,5.98-.153.341-13.86-12.323-21.517-23.917-25.4-12.9-4.327-30.873-5.425-37.034-19.742-2.551-5.929-2.023-12.578-.067-18.572,2.345-7.184,8.311-12.168,13.435-17.366,9.345-9.482,13.676-22.648,10.252-35.679-.98-3.735-6.7-1.986-5.723,1.735Z" transform="translate(-80.416 -646.002)" fill="#e3e2e0"/>
        </g>
      </g>
    </g>
  </g>
</svg>
