<svg xmlns="http://www.w3.org/2000/svg" width="101.862" height="101.862" viewBox="0 0 101.862 101.862">
  <g id="Grupo_108340" data-name="Grupo 108340" transform="translate(-927.04 -320.078)">
    <circle id="Elipse_4738" data-name="Elipse 4738" cx="8.186" cy="8.186" r="8.186" transform="translate(969.785 362.824)" fill="#e26c1e"/>
    <g id="Grupo_108332" data-name="Grupo 108332">
      <path id="Trazado_113603" data-name="Trazado 113603" d="M977.97,421.44c-10.043,0-17.91-22.152-17.91-50.431s7.867-50.431,17.91-50.431,17.91,22.153,17.91,50.431S988.013,421.44,977.97,421.44Zm0-99.461c-8.949,0-16.509,22.453-16.509,49.03s7.56,49.031,16.509,49.031,16.51-22.454,16.51-49.031S986.919,321.979,977.97,321.979Z" fill="#fff" stroke="#fff" stroke-miterlimit="10" stroke-width="1"/>
    </g>
    <g id="Grupo_108333" data-name="Grupo 108333">
      <path id="Trazado_113604" data-name="Trazado 113604" d="M948.712,408.93a8.7,8.7,0,0,1-6.4-2.261c-7.1-7.1,3-28.328,23-48.324,15.108-15.107,31.954-25.257,41.923-25.257a8.7,8.7,0,0,1,6.4,2.261c3.478,3.478,2.924,10.476-1.559,19.706-4.377,9.008-11.989,19.172-21.436,28.618C975.529,398.78,958.681,408.93,948.712,408.93Zm58.517-74.442c-9.621,0-26.071,9.985-40.933,24.847-18.793,18.793-29.324,40.016-23,46.344a7.369,7.369,0,0,0,5.412,1.851c9.623,0,26.072-9.985,40.933-24.847,9.339-9.339,16.857-19.368,21.166-28.24,4.142-8.526,4.809-15.125,1.829-18.1A7.365,7.365,0,0,0,1007.229,334.488Z" fill="#fff" stroke="#fff" stroke-miterlimit="10" stroke-width="1"/>
    </g>
    <g id="Grupo_108334" data-name="Grupo 108334">
      <path id="Trazado_113605" data-name="Trazado 113605" d="M977.97,388.92c-28.278,0-50.43-7.868-50.43-17.911s22.152-17.91,50.43-17.91,50.432,7.867,50.432,17.91S1006.25,388.92,977.97,388.92Zm0-34.42c-26.577,0-49.03,7.56-49.03,16.509s22.453,16.51,49.03,16.51,49.032-7.56,49.032-16.51S1004.548,354.5,977.97,354.5Z" fill="#fff" stroke="#fff" stroke-miterlimit="10" stroke-width="1"/>
    </g>
    <g id="Grupo_108335" data-name="Grupo 108335">
      <path id="Trazado_113606" data-name="Trazado 113606" d="M1007.229,408.93c-9.969,0-26.816-10.15-41.923-25.257-20-20-30.1-41.222-23-48.324a8.7,8.7,0,0,1,6.4-2.261c9.968,0,26.816,10.15,41.923,25.257,20,20,30.1,41.222,22.995,48.324A8.693,8.693,0,0,1,1007.229,408.93Zm-58.517-74.442a7.368,7.368,0,0,0-5.412,1.851c-6.328,6.328,4.2,27.551,23,46.344,14.862,14.862,31.311,24.847,40.933,24.847a7.365,7.365,0,0,0,5.411-1.851c6.328-6.328-4.2-27.551-22.995-46.344C974.784,344.473,958.334,334.488,948.712,334.488Z" fill="#fff" stroke="#fff" stroke-miterlimit="10" stroke-width="1"/>
    </g>
    <path id="Trazado_113607" data-name="Trazado 113607" d="M943.051,360.181a3.726,3.726,0,1,0-3.726,3.726A3.726,3.726,0,0,0,943.051,360.181Z" fill="#afd9f2"/>
    <path id="Trazado_113608" data-name="Trazado 113608" d="M1016.958,350.074a3.726,3.726,0,1,0-3.726,3.725A3.726,3.726,0,0,0,1016.958,350.074Z" fill="#afd9f2"/>
    <path id="Trazado_113609" data-name="Trazado 113609" d="M1016.958,390.993a3.726,3.726,0,1,0-3.726,3.726A3.726,3.726,0,0,0,1016.958,390.993Z" fill="#afd9f2"/>
    <circle id="Elipse_4739" data-name="Elipse 4739" cx="3.726" cy="3.726" r="3.726" transform="translate(958.669 391.004)" fill="#afd9f2"/>
  </g>
</svg>
