<svg xmlns="http://www.w3.org/2000/svg" width="90.485" height="116.839" viewBox="0 0 90.485 116.839">
  <g id="Grupo_108341" data-name="Grupo 108341" transform="translate(-1272.688 -188.103)">
    <path id="Trazado_113610" data-name="Trazado 113610" d="M1281.64,197.055l15.533,34.691,45.633,17.145,11.415,47.1" fill="none" stroke="#fff" stroke-miterlimit="10" stroke-width="2.843"/>
    <line id="Línea_143" data-name="Línea 143" x1="15.531" y2="36.537" transform="translate(1281.642 231.746)" fill="none" stroke="#fff" stroke-miterlimit="10" stroke-width="2.843"/>
    <circle id="Elipse_4740" data-name="Elipse 4740" cx="12.697" cy="12.697" r="12.697" transform="translate(1283.974 243.921) rotate(-87.689)" fill="#afd9f2"/>
    <path id="Trazado_113611" data-name="Trazado 113611" d="M1338.543,256.761a8.95,8.95,0,1,0-3.607-12.133A8.951,8.951,0,0,0,1338.543,256.761Z" fill="#fda829"/>
    <path id="Trazado_113612" data-name="Trazado 113612" d="M1277.377,204.925a8.95,8.95,0,1,0-3.607-12.133A8.95,8.95,0,0,0,1277.377,204.925Z" fill="#fda829"/>
    <path id="Trazado_113613" data-name="Trazado 113613" d="M1277.378,276.153a8.95,8.95,0,1,0-3.606-12.133A8.949,8.949,0,0,0,1277.378,276.153Z" fill="#e26c1e"/>
    <path id="Trazado_113614" data-name="Trazado 113614" d="M1349.958,303.86a8.95,8.95,0,1,0-3.607-12.133A8.951,8.951,0,0,0,1349.958,303.86Z" fill="#afd9f2"/>
  </g>
</svg>
