<svg xmlns="http://www.w3.org/2000/svg" xmlns:xlink="http://www.w3.org/1999/xlink" width="362.341" height="359.063" viewBox="0 0 362.341 359.063">
  <defs>
    <linearGradient id="linear-gradient" x1="0.5" y1="1" x2="0.5" gradientUnits="objectBoundingBox">
      <stop offset="0" stop-color="#e3e3e3"/>
      <stop offset="1" stop-color="#f3f3f3"/>
    </linearGradient>
    <linearGradient id="linear-gradient-2" x1="0.5" y1="1" x2="0.5" gradientUnits="objectBoundingBox">
      <stop offset="0" stop-color="#f3f3f3"/>
      <stop offset="1" stop-color="#e3e3e3"/>
    </linearGradient>
    <radialGradient id="radial-gradient" cx="0.439" cy="0.692" r="0.702" gradientTransform="matrix(0.948, 0.317, -0.317, 0.948, 0.248, -0.123)" gradientUnits="objectBoundingBox">
      <stop offset="0.396" stop-color="#fff"/>
      <stop offset="0.561" stop-color="#fbfbfb"/>
      <stop offset="0.709" stop-color="#f0f0f0"/>
      <stop offset="0.852" stop-color="#dedede"/>
      <stop offset="0.953" stop-color="#ccc"/>
    </radialGradient>
    <radialGradient id="radial-gradient-2" cx="0.503" cy="0.701" r="0.702" gradientTransform="translate(0)" xlink:href="#radial-gradient"/>
    <radialGradient id="radial-gradient-3" cx="0.503" cy="0.701" r="0.702" gradientTransform="translate(0)" xlink:href="#radial-gradient"/>
    <radialGradient id="radial-gradient-4" cx="0.461" cy="0.697" r="0.702" gradientTransform="matrix(0.978, 0.209, -0.209, 0.978, 0.158, -0.09)" xlink:href="#radial-gradient"/>
    <radialGradient id="radial-gradient-5" cx="0.36" cy="0.645" r="0.702" gradientTransform="translate(0.643 -0.15) rotate(45)" xlink:href="#radial-gradient"/>
    <radialGradient id="radial-gradient-6" cx="0.301" cy="0.528" r="0.702" gradientTransform="translate(1.137 0.115) rotate(82.892)" xlink:href="#radial-gradient"/>
    <radialGradient id="radial-gradient-7" cx="0.456" cy="0.696" r="0.702" gradientTransform="matrix(0.972, 0.235, -0.235, 0.972, 0.179, -0.099)" xlink:href="#radial-gradient"/>
    <radialGradient id="radial-gradient-8" cx="0.321" cy="0.591" r="0.702" gradientTransform="translate(0.912 -0.059) rotate(63.916)" xlink:href="#radial-gradient"/>
    <radialGradient id="radial-gradient-9" cx="0.428" cy="0.688" r="0.702" gradientTransform="translate(0.296 -0.137) rotate(21.762)" xlink:href="#radial-gradient"/>
    <radialGradient id="radial-gradient-10" cx="0.299" cy="0.51" r="0.702" gradientTransform="matrix(0.035, 0.999, -0.999, 0.035, 1.186, 0.174)" xlink:href="#radial-gradient"/>
    <radialGradient id="radial-gradient-11" cx="0.491" cy="0.701" r="0.702" gradientTransform="matrix(0.998, 0.06, -0.06, 0.998, 0.043, -0.029)" xlink:href="#radial-gradient"/>
    <radialGradient id="radial-gradient-12" cx="0.466" cy="0.698" r="0.702" gradientTransform="translate(0.139 -0.081) rotate(10.686)" xlink:href="#radial-gradient"/>
    <radialGradient id="radial-gradient-13" cx="0.36" cy="0.645" r="0.702" gradientTransform="translate(0.643 -0.15) rotate(45)" xlink:href="#radial-gradient"/>
    <radialGradient id="radial-gradient-14" cx="0.497" cy="0.701" r="0.702" gradientTransform="translate(0.023 -0.016) rotate(1.848)" xlink:href="#radial-gradient"/>
    <radialGradient id="radial-gradient-15" cx="0.423" cy="0.686" r="0.702" gradientTransform="translate(0.318 -0.142) rotate(23.279)" xlink:href="#radial-gradient"/>
    <radialGradient id="radial-gradient-16" cx="0.503" cy="0.701" r="0.702" gradientTransform="matrix(1, 0, 0, 1, 0, 0)" xlink:href="#radial-gradient"/>
  </defs>
  <g id="Grupo_876635" data-name="Grupo 876635" transform="translate(-951 -1633)">
    <g id="Grupo_875405" data-name="Grupo 875405" transform="translate(174.955 276.957)">
      <path id="Trazado_118010" data-name="Trazado 118010" d="M923.62,1663.023a25.251,25.251,0,1,0,25.251,25.251A25.279,25.279,0,0,0,923.62,1663.023Zm0,47.8a22.553,22.553,0,1,1,22.552-22.552A22.552,22.552,0,0,1,923.62,1710.826Z" fill="#ebebeb"/>
      <path id="Trazado_118011" data-name="Trazado 118011" d="M923.62,1661.674a26.631,26.631,0,0,0-26.6,26.6h0a26.6,26.6,0,0,0,53.2,0h0A26.631,26.631,0,0,0,923.62,1661.674Zm0,51.85a25.278,25.278,0,0,1-25.25-25.25h0a25.25,25.25,0,1,1,50.5,0h0A25.279,25.279,0,0,1,923.62,1713.524Z" fill="url(#linear-gradient)"/>
      <path id="Trazado_118012" data-name="Trazado 118012" d="M923.62,1665.721a22.553,22.553,0,1,0,22.552,22.553A22.553,22.553,0,0,0,923.62,1665.721Zm0,43.756a21.228,21.228,0,0,1-21.2-21.2h0a21.2,21.2,0,0,1,42.406,0h0A21.228,21.228,0,0,1,923.62,1709.477Z" fill="url(#linear-gradient-2)"/>
      <circle id="Elipse_4884" data-name="Elipse 4884" cx="21.203" cy="21.203" r="21.203" transform="matrix(0.948, -0.317, 0.317, 0.948, 896.788, 1674.887)" fill="#e2354c"/>
      <circle id="Elipse_4885" data-name="Elipse 4885" cx="21.203" cy="21.203" r="21.203" transform="matrix(0.948, -0.317, 0.317, 0.948, 896.788, 1674.887)" fill="url(#radial-gradient)" style="mix-blend-mode: multiply;isolation: isolate"/>
      <path id="Trazado_118013" data-name="Trazado 118013" d="M923.614,1696.054a3.959,3.959,0,0,1-3.5-2.081,13.178,13.178,0,0,1,0-11.4,3.986,3.986,0,0,1,7.006.006,13.084,13.084,0,0,1,0,11.38A3.968,3.968,0,0,1,923.614,1696.054Zm0-13.884a2.318,2.318,0,0,0-2.1,1.6,13.968,13.968,0,0,0,0,9.031,2.184,2.184,0,0,0,4.21,0,13.968,13.968,0,0,0,0-9.031A2.324,2.324,0,0,0,923.614,1682.17Z" fill="#fff"/>
    </g>
    <g id="Grupo_875406" data-name="Grupo 875406" transform="translate(174.955 276.957)">
      <path id="Trazado_118014" data-name="Trazado 118014" d="M865.2,1637.288a25.25,25.25,0,1,0,25.25,25.25A25.279,25.279,0,0,0,865.2,1637.288Zm0,47.8a22.552,22.552,0,1,1,22.552-22.553A22.553,22.553,0,0,1,865.2,1685.091Z" fill="#ebebeb"/>
      <path id="Trazado_118015" data-name="Trazado 118015" d="M865.2,1635.939a26.63,26.63,0,0,0-26.6,26.6h0a26.6,26.6,0,0,0,53.2,0h0A26.63,26.63,0,0,0,865.2,1635.939Zm0,51.85a25.279,25.279,0,0,1-25.251-25.251h0a25.25,25.25,0,0,1,50.5,0h0A25.279,25.279,0,0,1,865.2,1687.789Z" fill="url(#linear-gradient)"/>
      <path id="Trazado_118016" data-name="Trazado 118016" d="M865.2,1639.986a22.552,22.552,0,1,0,22.552,22.552A22.552,22.552,0,0,0,865.2,1639.986Zm0,43.756a21.227,21.227,0,0,1-21.2-21.2h0a21.2,21.2,0,1,1,42.406,0h0A21.228,21.228,0,0,1,865.2,1683.742Z" fill="url(#linear-gradient-2)"/>
      <circle id="Elipse_4886" data-name="Elipse 4886" cx="21.203" cy="21.203" r="21.203" transform="translate(843.995 1641.335)" fill="#e86540"/>
      <circle id="Elipse_4887" data-name="Elipse 4887" cx="21.203" cy="21.203" r="21.203" transform="translate(843.995 1641.335)" fill="url(#radial-gradient-2)" style="mix-blend-mode: multiply;isolation: isolate"/>
      <path id="Trazado_118017" data-name="Trazado 118017" d="M862.1,1657.35l-.228.035a.879.879,0,0,1-.135.011.854.854,0,0,1-.593-.2.737.737,0,0,1-.029-1.037,1.233,1.233,0,0,1,.575-.317l3.482-.938a2.07,2.07,0,0,1,.252-.053,1.921,1.921,0,0,1,.253-.017.4.4,0,0,1,.352.205,1.039,1.039,0,0,1,.128.557v12.687h1.877a3.153,3.153,0,0,1,1.325.17.687.687,0,0,1,.281.639.811.811,0,0,1-.234.634,1.028,1.028,0,0,1-.7.211h-7.012a1.028,1.028,0,0,1-.7-.211.811.811,0,0,1-.234-.634.687.687,0,0,1,.281-.639,3.15,3.15,0,0,1,1.325-.17h1.947v-11.456Z" fill="#fff"/>
    </g>
    <g id="Grupo_875407" data-name="Grupo 875407" transform="translate(174.955 276.957)">
      <path id="Trazado_118018" data-name="Trazado 118018" d="M822.406,1589.735a25.25,25.25,0,1,0,25.251,25.251A25.279,25.279,0,0,0,822.406,1589.735Zm0,47.8a22.552,22.552,0,1,1,22.552-22.552A22.552,22.552,0,0,1,822.406,1637.538Z" fill="#ebebeb"/>
      <path id="Trazado_118019" data-name="Trazado 118019" d="M822.406,1588.386a26.63,26.63,0,0,0-26.6,26.6h0a26.6,26.6,0,0,0,53.2,0h0A26.63,26.63,0,0,0,822.406,1588.386Zm0,51.85a25.278,25.278,0,0,1-25.25-25.25h0a25.25,25.25,0,1,1,50.5,0h0A25.279,25.279,0,0,1,822.406,1640.236Z" fill="url(#linear-gradient)"/>
      <path id="Trazado_118020" data-name="Trazado 118020" d="M822.406,1592.433a22.552,22.552,0,1,0,22.552,22.553A22.552,22.552,0,0,0,822.406,1592.433Zm0,43.756a21.227,21.227,0,0,1-21.2-21.2h0a21.2,21.2,0,1,1,42.406,0h0A21.227,21.227,0,0,1,822.406,1636.189Z" fill="url(#linear-gradient-2)"/>
      <circle id="Elipse_4888" data-name="Elipse 4888" cx="21.203" cy="21.203" r="21.203" transform="translate(801.203 1593.782)" fill="#f4b046"/>
      <circle id="Elipse_4889" data-name="Elipse 4889" cx="21.203" cy="21.203" r="21.203" transform="translate(801.203 1593.782)" fill="url(#radial-gradient-3)" style="mix-blend-mode: multiply;isolation: isolate"/>
      <path id="Trazado_118021" data-name="Trazado 118021" d="M818.742,1622.379a1.408,1.408,0,0,1-.921-.252.965.965,0,0,1-.3-.78q0-.762,2.252-2.861l.34-.329q.339-.327.985-.938,4.058-3.822,4.057-5.569a2.891,2.891,0,0,0-.715-2.035,2.4,2.4,0,0,0-1.853-.78,3.4,3.4,0,0,0-1.413.305,2.869,2.869,0,0,0-1.085.821c-.047.063-.121.168-.222.317q-.435.785-.974.785a.673.673,0,0,1-.6-.257,1.913,1.913,0,0,1-.175-.986,1.709,1.709,0,0,1,.081-.615,1.39,1.39,0,0,1,.3-.416,5.451,5.451,0,0,1,1.859-1.155,6.234,6.234,0,0,1,2.269-.428,4.515,4.515,0,0,1,3.254,1.255,4.114,4.114,0,0,1,1.307,3.087q0,2.3-3.987,6.114-1.02.951-1.559,1.491l-1.442,1.385h5.359a1.358,1.358,0,0,1,.275-.777.846.846,0,0,1,1.225-.009,1.04,1.04,0,0,1,.223.7,1.082,1.082,0,0,1-.012.123c-.007.058-.012.1-.012.123l-.093.9a1,1,0,0,1-.211.568.576.576,0,0,1-.458.206Z" fill="#fff"/>
    </g>
    <g id="Grupo_875408" data-name="Grupo 875408" transform="translate(174.955 276.957)">
      <path id="Trazado_118022" data-name="Trazado 118022" d="M802.644,1528.941a25.25,25.25,0,1,0,25.251,25.251A25.279,25.279,0,0,0,802.644,1528.941Zm0,47.8a22.552,22.552,0,1,1,22.553-22.552A22.552,22.552,0,0,1,802.644,1576.744Z" fill="#ebebeb"/>
      <path id="Trazado_118023" data-name="Trazado 118023" d="M802.644,1527.592a26.629,26.629,0,0,0-26.6,26.6h0a26.6,26.6,0,0,0,53.2,0h0A26.63,26.63,0,0,0,802.644,1527.592Zm0,51.85a25.278,25.278,0,0,1-25.25-25.25h0a25.251,25.251,0,1,1,50.5,0h0A25.279,25.279,0,0,1,802.644,1579.442Z" fill="url(#linear-gradient)"/>
      <path id="Trazado_118024" data-name="Trazado 118024" d="M802.644,1531.639a22.552,22.552,0,1,0,22.553,22.553A22.552,22.552,0,0,0,802.644,1531.639Zm0,43.756a21.227,21.227,0,0,1-21.2-21.2h0a21.2,21.2,0,1,1,42.407,0h0A21.228,21.228,0,0,1,802.644,1575.4Z" fill="url(#linear-gradient-2)"/>
      <circle id="Elipse_4890" data-name="Elipse 4890" cx="21.203" cy="21.203" r="21.203" transform="matrix(0.978, -0.209, 0.209, 0.978, 777.478, 1537.888)" fill="#fff455"/>
      <circle id="Elipse_4891" data-name="Elipse 4891" cx="21.203" cy="21.203" r="21.203" transform="matrix(0.978, -0.209, 0.209, 0.978, 777.478, 1537.888)" fill="url(#radial-gradient-4)" style="mix-blend-mode: multiply;isolation: isolate"/>
      <path id="Trazado_118025" data-name="Trazado 118025" d="M804.649,1553.517a3.705,3.705,0,0,1,2.885,3.788,4.312,4.312,0,0,1-1.454,3.359,5.413,5.413,0,0,1-3.764,1.308,7.077,7.077,0,0,1-3.172-.686q-1.389-.686-1.389-1.507a.744.744,0,0,1,.252-.58.88.88,0,0,1,.615-.229,6.875,6.875,0,0,1,1.448.6,5.422,5.422,0,0,0,2.328.6,3.235,3.235,0,0,0,2.269-.8,2.879,2.879,0,0,0,.27-3.828,2.753,2.753,0,0,0-1.66-.921,7.764,7.764,0,0,0-.832-.093q-.985-.058-.985-.821,0-.691.961-.809c.25-.024.458-.051.622-.082a2.449,2.449,0,0,0,1.478-.751,2.1,2.1,0,0,0,.562-1.477,2.48,2.48,0,0,0-.692-1.818,2.361,2.361,0,0,0-1.759-.7,3.98,3.98,0,0,0-2.022.61,4.175,4.175,0,0,1-1.3.609.747.747,0,0,1-.545-.211.7.7,0,0,1-.217-.528q0-.714,1.313-1.424a6.02,6.02,0,0,1,2.908-.709,4.339,4.339,0,0,1,3.043,1.108,3.546,3.546,0,0,1,1.214,2.726,3.361,3.361,0,0,1-.581,2.029A3.73,3.73,0,0,1,804.649,1553.517Z" fill="#fff"/>
    </g>
    <g id="Grupo_875409" data-name="Grupo 875409" transform="translate(174.955 276.957)">
      <path id="Trazado_118026" data-name="Trazado 118026" d="M809.329,1465.338a25.25,25.25,0,1,0,25.251,25.25A25.279,25.279,0,0,0,809.329,1465.338Zm0,47.8a22.552,22.552,0,1,1,22.552-22.552A22.552,22.552,0,0,1,809.329,1513.141Z" fill="#ebebeb"/>
      <path id="Trazado_118027" data-name="Trazado 118027" d="M809.329,1463.989a26.63,26.63,0,0,0-26.6,26.6h0a26.6,26.6,0,0,0,53.2,0h0A26.63,26.63,0,0,0,809.329,1463.989Zm0,51.85a25.278,25.278,0,0,1-25.25-25.25h0a25.251,25.251,0,0,1,50.5,0h0A25.279,25.279,0,0,1,809.329,1515.839Z" fill="url(#linear-gradient)"/>
      <path id="Trazado_118028" data-name="Trazado 118028" d="M809.329,1468.036a22.552,22.552,0,1,0,22.552,22.553A22.552,22.552,0,0,0,809.329,1468.036Zm0,43.756a21.227,21.227,0,0,1-21.2-21.2h0a21.2,21.2,0,0,1,42.406,0h0A21.227,21.227,0,0,1,809.329,1511.792Z" fill="url(#linear-gradient-2)"/>
      <circle id="Elipse_4892" data-name="Elipse 4892" cx="21.203" cy="21.203" r="21.203" transform="translate(779.343 1490.589) rotate(-45)" fill="#cce94e"/>
      <circle id="Elipse_4893" data-name="Elipse 4893" cx="21.203" cy="21.203" r="21.203" transform="translate(779.343 1490.589) rotate(-45)" fill="url(#radial-gradient-5)" style="mix-blend-mode: multiply;isolation: isolate"/>
      <path id="Trazado_118029" data-name="Trazado 118029" d="M809.306,1497.982a1.167,1.167,0,0,1-.763-.182.881.881,0,0,1-.2-.663.81.81,0,0,1,.205-.615.946.946,0,0,1,.663-.194h1.36v-1.97H805.1a.578.578,0,0,1-.458-.187.8.8,0,0,1-.163-.54v-.809a1.8,1.8,0,0,1,.34-.985c.039-.062.07-.113.093-.152l4.949-8.4a1.366,1.366,0,0,1,.269-.375.447.447,0,0,1,.282-.082,2.3,2.3,0,0,1,.246.023l.094.024,1.2.187a.368.368,0,0,1,.264.182.776.776,0,0,1,.1.416v8.912h.6a.457.457,0,0,0,.4-.205.392.392,0,0,1,.317-.206.526.526,0,0,1,.4.177.612.612,0,0,1,.164.434,1.62,1.62,0,0,1-.012.193.849.849,0,0,1-.047.181l-.094.481a1.109,1.109,0,0,1-.24.575.7.7,0,0,1-.5.152h-.985v1.97h.411a2.059,2.059,0,0,1,1.032.182.689.689,0,0,1,.281.627.811.811,0,0,1-.234.634,1.028,1.028,0,0,1-.7.211Zm1.266-5.406v-7.95l-4.444,7.95Z" fill="#fff"/>
    </g>
    <g id="Grupo_875410" data-name="Grupo 875410" transform="translate(174.955 276.957)">
      <path id="Trazado_118030" data-name="Trazado 118030" d="M841.3,1409.96a25.251,25.251,0,1,0,25.251,25.251A25.279,25.279,0,0,0,841.3,1409.96Zm0,47.8a22.552,22.552,0,1,1,22.553-22.552A22.552,22.552,0,0,1,841.3,1457.763Z" fill="#ebebeb"/>
      <path id="Trazado_118031" data-name="Trazado 118031" d="M841.3,1408.611a26.63,26.63,0,0,0-26.6,26.6h0a26.6,26.6,0,0,0,53.2,0h0A26.63,26.63,0,0,0,841.3,1408.611Zm0,51.85a25.278,25.278,0,0,1-25.25-25.25h0a25.25,25.25,0,1,1,50.5,0h0A25.279,25.279,0,0,1,841.3,1460.461Z" fill="url(#linear-gradient)"/>
      <path id="Trazado_118032" data-name="Trazado 118032" d="M841.3,1412.658a22.552,22.552,0,1,0,22.553,22.553A22.552,22.552,0,0,0,841.3,1412.658Zm0,43.756a21.227,21.227,0,0,1-21.2-21.2h0a21.2,21.2,0,0,1,42.407,0h0A21.228,21.228,0,0,1,841.3,1456.414Z" fill="url(#linear-gradient-2)"/>
      <circle id="Elipse_4894" data-name="Elipse 4894" cx="21.203" cy="21.203" r="21.203" transform="translate(817.641 1453.627) rotate(-82.892)" fill="#95d143"/>
      <circle id="Elipse_4895" data-name="Elipse 4895" cx="21.203" cy="21.203" r="21.203" transform="translate(817.641 1453.627) rotate(-82.892)" fill="url(#radial-gradient-6)" style="mix-blend-mode: multiply;isolation: isolate"/>
      <path id="Trazado_118033" data-name="Trazado 118033" d="M838.842,1433.434a10.37,10.37,0,0,1,1.431-.416,6.238,6.238,0,0,1,1.255-.135,4.536,4.536,0,0,1,3.417,1.425,5.263,5.263,0,0,1-.146,7.229,5.357,5.357,0,0,1-3.87,1.454,8.9,8.9,0,0,1-3.3-.534q-1.332-.532-1.331-1.3a.746.746,0,0,1,.246-.546.8.8,0,0,1,.574-.24,10.749,10.749,0,0,1,1.378.451,6.852,6.852,0,0,0,2.316.452,3.519,3.519,0,0,0,2.55-.944,3.23,3.23,0,0,0,.98-2.433,3.362,3.362,0,0,0-.927-2.422,3.1,3.1,0,0,0-2.333-.967,4.434,4.434,0,0,0-2.07.528,4.7,4.7,0,0,1-1.225.527.528.528,0,0,1-.5-.257,2.1,2.1,0,0,1-.146-.939v-5.85a.635.635,0,0,1,.24-.557,1.512,1.512,0,0,1,.839-.171h5.933a1.313,1.313,0,0,1,.844.23.84.84,0,0,1,.282.691.83.83,0,0,1-.294.678,1.267,1.267,0,0,1-.832.242h-5.312Z" fill="#fff"/>
    </g>
    <g id="Grupo_875411" data-name="Grupo 875411" transform="translate(174.955 276.957)">
      <path id="Trazado_118034" data-name="Trazado 118034" d="M893.042,1371.979a25.25,25.25,0,1,0,25.251,25.25A25.279,25.279,0,0,0,893.042,1371.979Zm0,47.8a22.552,22.552,0,1,1,22.552-22.553A22.552,22.552,0,0,1,893.042,1419.782Z" fill="#ebebeb"/>
      <path id="Trazado_118035" data-name="Trazado 118035" d="M893.042,1370.63a26.63,26.63,0,0,0-26.6,26.6h0a26.6,26.6,0,0,0,53.2,0h0A26.63,26.63,0,0,0,893.042,1370.63Zm0,51.85a25.28,25.28,0,0,1-25.251-25.251h0a25.251,25.251,0,0,1,50.5,0h0A25.28,25.28,0,0,1,893.042,1422.48Z" fill="url(#linear-gradient)"/>
      <path id="Trazado_118036" data-name="Trazado 118036" d="M893.042,1374.677a22.552,22.552,0,1,0,22.552,22.552A22.552,22.552,0,0,0,893.042,1374.677Zm0,43.755a21.227,21.227,0,0,1-21.2-21.2h0a21.2,21.2,0,1,1,42.406,0h0A21.227,21.227,0,0,1,893.042,1418.432Z" fill="url(#linear-gradient-2)"/>
      <circle id="Elipse_4896" data-name="Elipse 4896" cx="21.203" cy="21.203" r="21.203" transform="translate(867.45 1381.603) rotate(-13.592)" fill="#68b73a"/>
      <circle id="Elipse_4897" data-name="Elipse 4897" cx="21.203" cy="21.203" r="21.203" transform="translate(867.45 1381.603) rotate(-13.592)" fill="url(#radial-gradient-7)" style="mix-blend-mode: multiply;isolation: isolate"/>
      <path id="Trazado_118037" data-name="Trazado 118037" d="M890.281,1396.942a4.387,4.387,0,0,1,1.407-1.231,3.544,3.544,0,0,1,1.688-.411,4.137,4.137,0,0,1,3.149,1.4,4.858,4.858,0,0,1,1.295,3.436,4.993,4.993,0,0,1-1.254,3.505,4.159,4.159,0,0,1-3.213,1.372,4.407,4.407,0,0,1-3.7-1.835,7.9,7.9,0,0,1-1.39-4.895,9.581,9.581,0,0,1,2.052-6.409,6.752,6.752,0,0,1,5.417-2.421,4.37,4.37,0,0,1,1.5.164.62.62,0,0,1,.364.622q0,.75-1.384.773a8.871,8.871,0,0,0-1.466.118,4.805,4.805,0,0,0-3.008,1.858A8.016,8.016,0,0,0,890.281,1396.942Zm.258,3.119a3.535,3.535,0,0,0,.762,2.351,2.44,2.44,0,0,0,1.958.909,2.31,2.31,0,0,0,1.847-.856,3.358,3.358,0,0,0,.721-2.24,3.5,3.5,0,0,0-.744-2.321,2.5,2.5,0,0,0-3.8-.036A3.223,3.223,0,0,0,890.539,1400.061Z" fill="#fff"/>
    </g>
    <g id="Grupo_875412" data-name="Grupo 875412" transform="translate(174.955 276.957)">
      <path id="Trazado_118038" data-name="Trazado 118038" d="M955.6,1359.159a25.25,25.25,0,1,0,25.25,25.25A25.279,25.279,0,0,0,955.6,1359.159Zm0,47.8a22.552,22.552,0,1,1,22.552-22.553A22.553,22.553,0,0,1,955.6,1406.962Z" fill="#ebebeb"/>
      <path id="Trazado_118039" data-name="Trazado 118039" d="M955.6,1357.81a26.629,26.629,0,0,0-26.6,26.6h0a26.6,26.6,0,1,0,53.2,0h0A26.629,26.629,0,0,0,955.6,1357.81Zm0,51.85a25.279,25.279,0,0,1-25.251-25.251h0a25.251,25.251,0,0,1,50.5,0h0A25.279,25.279,0,0,1,955.6,1409.66Z" fill="url(#linear-gradient)"/>
      <path id="Trazado_118040" data-name="Trazado 118040" d="M955.6,1361.857a22.552,22.552,0,1,0,22.552,22.552A22.552,22.552,0,0,0,955.6,1361.857Zm0,43.755a21.227,21.227,0,0,1-21.2-21.2h0a21.2,21.2,0,0,1,42.407,0h0A21.227,21.227,0,0,1,955.6,1405.612Z" fill="url(#linear-gradient-2)"/>
      <circle id="Elipse_4898" data-name="Elipse 4898" cx="21.203" cy="21.203" r="21.203" transform="translate(927.229 1394.13) rotate(-63.916)" fill="#489e31"/>
      <circle id="Elipse_4899" data-name="Elipse 4899" cx="21.203" cy="21.203" r="21.203" transform="translate(927.229 1394.13) rotate(-63.916)" fill="url(#radial-gradient-8)" style="mix-blend-mode: multiply;isolation: isolate"/>
      <path id="Trazado_118041" data-name="Trazado 118041" d="M955.871,1391.568a1.05,1.05,0,0,1-.176.363.431.431,0,0,1-.3.082h-1.032a.633.633,0,0,1-.369-.094.3.3,0,0,1-.135-.257.9.9,0,0,1,.018-.182c.011-.059.029-.127.052-.206l4.609-12.511h-5.957a1.458,1.458,0,0,1-.246.815.749.749,0,0,1-.622.264.791.791,0,0,1-.592-.2.866.866,0,0,1-.193-.622c0-.078,0-.137.005-.176a.719.719,0,0,1,.018-.1l.118-1.056a.732.732,0,0,1,.24-.5.826.826,0,0,1,.557-.176h7.751a.716.716,0,0,1,.5.147.606.606,0,0,1,.158.463v.4a1.512,1.512,0,0,1-.059.369q-.059.23-.187.616Z" fill="#fff"/>
    </g>
    <g id="Grupo_875415" data-name="Grupo 875415" transform="translate(174.955 276.957)">
      <g id="Grupo_875413" data-name="Grupo 875413">
        <path id="Trazado_118042" data-name="Trazado 118042" d="M955.594,1414.009l-10.926,101.145H966.52Z" fill="#b0b0b0"/>
        <path id="Trazado_118043" data-name="Trazado 118043" d="M955.594,1515.153H966.52l-10.926-101.145Z" fill="#ccc"/>
      </g>
      <g id="Grupo_875414" data-name="Grupo 875414">
        <path id="Trazado_118044" data-name="Trazado 118044" d="M955.594,1511.106a25.251,25.251,0,1,0,25.25,25.251A25.279,25.279,0,0,0,955.594,1511.106Zm0,47.8a22.553,22.553,0,1,1,22.552-22.552A22.552,22.552,0,0,1,955.594,1558.909Z" fill="#ebebeb"/>
        <path id="Trazado_118045" data-name="Trazado 118045" d="M955.594,1509.757a26.63,26.63,0,0,0-26.6,26.6h0a26.6,26.6,0,0,0,53.2,0h0A26.63,26.63,0,0,0,955.594,1509.757Zm0,51.85a25.279,25.279,0,0,1-25.251-25.25h0a25.25,25.25,0,1,1,50.5,0h0A25.278,25.278,0,0,1,955.594,1561.607Z" fill="url(#linear-gradient)"/>
        <path id="Trazado_118046" data-name="Trazado 118046" d="M955.594,1513.8a22.553,22.553,0,1,0,22.552,22.553A22.553,22.553,0,0,0,955.594,1513.8Zm0,43.756a21.227,21.227,0,0,1-21.2-21.2h0a21.2,21.2,0,1,1,42.406,0h0A21.228,21.228,0,0,1,955.594,1557.56Z" fill="url(#linear-gradient-2)"/>
        <circle id="Elipse_4900" data-name="Elipse 4900" cx="21.203" cy="21.203" r="21.203" transform="translate(928.041 1524.526) rotate(-21.762)" fill="gray"/>
        <circle id="Elipse_4901" data-name="Elipse 4901" cx="21.203" cy="21.203" r="21.203" transform="translate(928.041 1524.526) rotate(-21.762)" fill="url(#radial-gradient-9)" style="mix-blend-mode: multiply;isolation: isolate"/>
      </g>
    </g>
    <g id="Grupo_875416" data-name="Grupo 875416" transform="translate(174.955 276.957)">
      <path id="Trazado_118047" data-name="Trazado 118047" d="M1018.149,1371.979a25.25,25.25,0,1,0,25.251,25.25A25.278,25.278,0,0,0,1018.149,1371.979Zm0,47.8a22.552,22.552,0,1,1,22.552-22.553A22.552,22.552,0,0,1,1018.149,1419.782Z" fill="#ebebeb"/>
      <path id="Trazado_118048" data-name="Trazado 118048" d="M1018.149,1370.63a26.629,26.629,0,0,0-26.6,26.6h0a26.6,26.6,0,1,0,53.2,0h0A26.63,26.63,0,0,0,1018.149,1370.63Zm0,51.85a25.279,25.279,0,0,1-25.25-25.251h0a25.251,25.251,0,0,1,50.5,0h0A25.28,25.28,0,0,1,1018.149,1422.48Z" fill="url(#linear-gradient)"/>
      <path id="Trazado_118049" data-name="Trazado 118049" d="M1018.149,1374.677a22.552,22.552,0,1,0,22.552,22.552A22.552,22.552,0,0,0,1018.149,1374.677Zm0,43.755a21.227,21.227,0,0,1-21.2-21.2h0a21.2,21.2,0,0,1,42.406,0h0A21.226,21.226,0,0,1,1018.149,1418.432Z" fill="url(#linear-gradient-2)"/>
      <circle id="Elipse_4902" data-name="Elipse 4902" cx="21.203" cy="21.203" r="21.203" transform="translate(996.215 1417.676) rotate(-87.989)" fill="#51b06d"/>
      <circle id="Elipse_4903" data-name="Elipse 4903" cx="21.203" cy="21.203" r="21.203" transform="translate(996.215 1417.676) rotate(-87.989)" fill="url(#radial-gradient-10)" style="mix-blend-mode: multiply;isolation: isolate"/>
      <path id="Trazado_118050" data-name="Trazado 118050" d="M1015.8,1397.042a4.273,4.273,0,0,1-1.712-1.426,3.546,3.546,0,0,1-.574-2.013,3.834,3.834,0,0,1,1.3-2.986,5.3,5.3,0,0,1,6.649.006,3.683,3.683,0,0,1,1.325,2.863,3.826,3.826,0,0,1-.563,2.124,4.118,4.118,0,0,1-1.747,1.432,3.9,3.9,0,0,1,1.817,1.412,3.793,3.793,0,0,1,.633,2.185,4.082,4.082,0,0,1-1.33,3.152,4.918,4.918,0,0,1-3.454,1.218,4.864,4.864,0,0,1-3.447-1.23,4.149,4.149,0,0,1-1.325-3.187,3.7,3.7,0,0,1,.633-2.127A3.979,3.979,0,0,1,1015.8,1397.042Zm-.5,3.547a2.721,2.721,0,0,0,.779,2.017,2.813,2.813,0,0,0,2.07.773,2.879,2.879,0,0,0,2.082-.75,2.641,2.641,0,0,0,.779-1.993,2.6,2.6,0,0,0-.8-1.976,3.2,3.2,0,0,0-4.116-.012A2.536,2.536,0,0,0,1015.294,1400.589Zm.117-6.983a2.529,2.529,0,0,0,.768,1.9,2.983,2.983,0,0,0,3.94-.006,2.561,2.561,0,0,0,.768-1.921,2.465,2.465,0,0,0-.768-1.863,3.016,3.016,0,0,0-3.946,0A2.5,2.5,0,0,0,1015.411,1393.606Z" fill="#fff"/>
    </g>
    <g id="Grupo_875417" data-name="Grupo 875417" transform="translate(174.955 276.957)">
      <path id="Trazado_118051" data-name="Trazado 118051" d="M1069.887,1409.961a25.25,25.25,0,1,0,25.25,25.251A25.279,25.279,0,0,0,1069.887,1409.961Zm0,47.8a22.552,22.552,0,1,1,22.552-22.552A22.552,22.552,0,0,1,1069.887,1457.764Z" fill="#ebebeb"/>
      <path id="Trazado_118052" data-name="Trazado 118052" d="M1069.887,1408.612a26.63,26.63,0,0,0-26.6,26.6h0a26.6,26.6,0,0,0,53.2,0h0A26.63,26.63,0,0,0,1069.887,1408.612Zm0,51.85a25.279,25.279,0,0,1-25.251-25.25h0a25.25,25.25,0,1,1,50.5,0h0A25.278,25.278,0,0,1,1069.887,1460.462Z" fill="url(#linear-gradient)"/>
      <path id="Trazado_118053" data-name="Trazado 118053" d="M1069.887,1412.659a22.552,22.552,0,1,0,22.552,22.553A22.553,22.553,0,0,0,1069.887,1412.659Zm0,43.756a21.228,21.228,0,0,1-21.2-21.2h0a21.2,21.2,0,1,1,42.407,0h0A21.228,21.228,0,0,1,1069.887,1456.415Z" fill="url(#linear-gradient-2)"/>
      <circle id="Elipse_4904" data-name="Elipse 4904" cx="21.203" cy="21.203" r="21.203" transform="matrix(0.998, -0.06, 0.06, 0.998, 1047.455, 1415.313)" fill="#56c0c2"/>
      <circle id="Elipse_4905" data-name="Elipse 4905" cx="21.203" cy="21.203" r="21.203" transform="matrix(0.998, -0.06, 0.06, 0.998, 1047.455, 1415.313)" fill="url(#radial-gradient-11)" style="mix-blend-mode: multiply;isolation: isolate"/>
      <path id="Trazado_118054" data-name="Trazado 118054" d="M1072.625,1435.523a4.359,4.359,0,0,1-1.4,1.207,3.559,3.559,0,0,1-1.676.4,4.145,4.145,0,0,1-3.149-1.389,4.826,4.826,0,0,1-1.3-3.419,5.034,5.034,0,0,1,1.249-3.512,4.122,4.122,0,0,1,3.2-1.377,4.437,4.437,0,0,1,3.705,1.846,7.874,7.874,0,0,1,1.407,4.9,9.523,9.523,0,0,1-2.058,6.42,6.887,6.887,0,0,1-5.505,2.4,4.11,4.11,0,0,1-1.448-.164.61.61,0,0,1-.358-.61q0-.75,1.4-.786a9.067,9.067,0,0,0,1.466-.129,4.757,4.757,0,0,0,3.008-1.841A7.964,7.964,0,0,0,1072.625,1435.523Zm-.247-3.143a3.536,3.536,0,0,0-.767-2.363,2.462,2.462,0,0,0-1.965-.909,2.271,2.271,0,0,0-1.841.856,3.422,3.422,0,0,0-.7,2.24,3.541,3.541,0,0,0,.738,2.327,2.349,2.349,0,0,0,1.9.9,2.4,2.4,0,0,0,1.888-.862A3.213,3.213,0,0,0,1072.378,1432.38Z" fill="#fff"/>
    </g>
    <g id="Grupo_875419" data-name="Grupo 875419" transform="translate(174.955 276.957)">
      <path id="Trazado_118055" data-name="Trazado 118055" d="M1101.862,1465.337a25.25,25.25,0,1,0,25.251,25.251A25.279,25.279,0,0,0,1101.862,1465.337Zm0,47.8a22.552,22.552,0,1,1,22.553-22.552A22.552,22.552,0,0,1,1101.862,1513.14Z" fill="#ebebeb"/>
      <path id="Trazado_118056" data-name="Trazado 118056" d="M1101.862,1463.988a26.63,26.63,0,0,0-26.6,26.6h0a26.6,26.6,0,0,0,53.2,0h0A26.63,26.63,0,0,0,1101.862,1463.988Zm0,51.85a25.278,25.278,0,0,1-25.25-25.25h0a25.25,25.25,0,1,1,50.5,0h0A25.279,25.279,0,0,1,1101.862,1515.838Z" fill="url(#linear-gradient)"/>
      <path id="Trazado_118057" data-name="Trazado 118057" d="M1101.862,1468.036a22.552,22.552,0,1,0,22.553,22.552A22.552,22.552,0,0,0,1101.862,1468.036Zm0,43.755a21.227,21.227,0,0,1-21.2-21.2h0a21.2,21.2,0,0,1,42.407,0h0A21.228,21.228,0,0,1,1101.862,1511.791Z" fill="url(#linear-gradient-2)"/>
      <circle id="Elipse_4906" data-name="Elipse 4906" cx="21.203" cy="21.203" r="21.203" transform="translate(1077.095 1473.684) rotate(-10.686)" fill="#3f8dd1"/>
      <circle id="Elipse_4907" data-name="Elipse 4907" cx="21.203" cy="21.203" r="21.203" transform="translate(1077.095 1473.684) rotate(-10.686)" fill="url(#radial-gradient-12)" style="mix-blend-mode: multiply;isolation: isolate"/>
      <g id="Grupo_875418" data-name="Grupo 875418">
        <path id="Trazado_118058" data-name="Trazado 118058" d="M1091.526,1485.4l-.229.035a.866.866,0,0,1-.134.012.854.854,0,0,1-.593-.205.738.738,0,0,1-.029-1.038,1.221,1.221,0,0,1,.575-.316l3.482-.938a1.9,1.9,0,0,1,.252-.053,1.754,1.754,0,0,1,.252-.018.4.4,0,0,1,.353.2,1.05,1.05,0,0,1,.128.557v12.688h1.877a3.127,3.127,0,0,1,1.324.17.683.683,0,0,1,.282.639.81.81,0,0,1-.234.633,1.023,1.023,0,0,1-.7.211h-7.012a1.022,1.022,0,0,1-.7-.211.81.81,0,0,1-.234-.633.685.685,0,0,1,.281-.639,3.133,3.133,0,0,1,1.325-.17h1.946v-11.457Z" fill="#fff"/>
        <path id="Trazado_118059" data-name="Trazado 118059" d="M1108.74,1498.368a3.959,3.959,0,0,1-3.5-2.081,13.187,13.187,0,0,1,0-11.4,3.986,3.986,0,0,1,7.006.006,13.084,13.084,0,0,1,0,11.38A3.966,3.966,0,0,1,1108.74,1498.368Zm0-13.884a2.318,2.318,0,0,0-2.1,1.6,13.951,13.951,0,0,0,0,9.031,2.183,2.183,0,0,0,4.209,0,13.951,13.951,0,0,0,0-9.031A2.325,2.325,0,0,0,1108.74,1484.484Z" fill="#fff"/>
      </g>
    </g>
    <g id="Grupo_875421" data-name="Grupo 875421" transform="translate(174.955 276.957)">
      <path id="Trazado_118060" data-name="Trazado 118060" d="M1108.4,1528.58a25.251,25.251,0,1,0,25.251,25.25A25.278,25.278,0,0,0,1108.4,1528.58Zm0,47.8a22.553,22.553,0,1,1,22.553-22.553A22.552,22.552,0,0,1,1108.4,1576.383Z" fill="#ebebeb"/>
      <path id="Trazado_118061" data-name="Trazado 118061" d="M1108.4,1527.23a26.63,26.63,0,0,0-26.6,26.6h0a26.6,26.6,0,1,0,53.2,0h0A26.63,26.63,0,0,0,1108.4,1527.23Zm0,51.851a25.279,25.279,0,0,1-25.25-25.251h0a25.25,25.25,0,0,1,50.5,0h0A25.28,25.28,0,0,1,1108.4,1579.081Z" fill="url(#linear-gradient)"/>
      <path id="Trazado_118062" data-name="Trazado 118062" d="M1108.4,1531.278a22.553,22.553,0,1,0,22.553,22.552A22.552,22.552,0,0,0,1108.4,1531.278Zm0,43.755a21.227,21.227,0,0,1-21.2-21.2h0a21.2,21.2,0,0,1,42.407,0h0A21.228,21.228,0,0,1,1108.4,1575.033Z" fill="url(#linear-gradient-2)"/>
      <circle id="Elipse_4908" data-name="Elipse 4908" cx="21.203" cy="21.203" r="21.203" transform="translate(1078.414 1553.83) rotate(-45)" fill="#1e58dc"/>
      <circle id="Elipse_4909" data-name="Elipse 4909" cx="21.203" cy="21.203" r="21.203" transform="translate(1078.414 1553.83) rotate(-45)" fill="url(#radial-gradient-13)" style="mix-blend-mode: multiply;isolation: isolate"/>
      <g id="Grupo_875420" data-name="Grupo 875420">
        <path id="Trazado_118063" data-name="Trazado 118063" d="M1098.1,1548.642l-.228.035a.863.863,0,0,1-.135.011.854.854,0,0,1-.593-.2.739.739,0,0,1-.029-1.038,1.234,1.234,0,0,1,.575-.316l3.482-.938a2.072,2.072,0,0,1,.252-.053,1.768,1.768,0,0,1,.253-.017.4.4,0,0,1,.352.205,1.038,1.038,0,0,1,.128.557v12.687h1.877a3.153,3.153,0,0,1,1.325.17.686.686,0,0,1,.281.639.809.809,0,0,1-.234.633,1.023,1.023,0,0,1-.7.211h-7.012a1.023,1.023,0,0,1-.7-.211.809.809,0,0,1-.234-.633.686.686,0,0,1,.281-.639,3.149,3.149,0,0,1,1.325-.17h1.947v-11.456Z" fill="#fff"/>
        <path id="Trazado_118064" data-name="Trazado 118064" d="M1112.51,1548.642l-.228.035a.863.863,0,0,1-.135.011.854.854,0,0,1-.593-.2.739.739,0,0,1-.029-1.038,1.229,1.229,0,0,1,.575-.316l3.482-.938a2.072,2.072,0,0,1,.252-.053,1.768,1.768,0,0,1,.253-.017.4.4,0,0,1,.352.205,1.038,1.038,0,0,1,.128.557v12.687h1.877a3.153,3.153,0,0,1,1.325.17.686.686,0,0,1,.281.639.809.809,0,0,1-.234.633,1.023,1.023,0,0,1-.7.211H1112.1a1.023,1.023,0,0,1-.7-.211.809.809,0,0,1-.234-.633.686.686,0,0,1,.281-.639,3.149,3.149,0,0,1,1.325-.17h1.947v-11.456Z" fill="#fff"/>
      </g>
    </g>
    <g id="Grupo_875423" data-name="Grupo 875423" transform="translate(174.955 276.957)">
      <path id="Trazado_118065" data-name="Trazado 118065" d="M1088.785,1589.437a25.25,25.25,0,1,0,25.251,25.251A25.28,25.28,0,0,0,1088.785,1589.437Zm0,47.8a22.552,22.552,0,1,1,22.552-22.552A22.552,22.552,0,0,1,1088.785,1637.24Z" fill="#ebebeb"/>
      <path id="Trazado_118066" data-name="Trazado 118066" d="M1088.785,1588.088a26.63,26.63,0,0,0-26.6,26.6h0a26.6,26.6,0,0,0,53.2,0h0A26.63,26.63,0,0,0,1088.785,1588.088Zm0,51.85a25.28,25.28,0,0,1-25.251-25.25h0a25.251,25.251,0,0,1,50.5,0h0A25.279,25.279,0,0,1,1088.785,1639.938Z" fill="url(#linear-gradient)"/>
      <path id="Trazado_118067" data-name="Trazado 118067" d="M1088.785,1592.135a22.552,22.552,0,1,0,22.552,22.553A22.552,22.552,0,0,0,1088.785,1592.135Zm0,43.756a21.227,21.227,0,0,1-21.2-21.2h0a21.2,21.2,0,1,1,42.406,0h0A21.228,21.228,0,0,1,1088.785,1635.891Z" fill="url(#linear-gradient-2)"/>
      <circle id="Elipse_4910" data-name="Elipse 4910" cx="21.203" cy="21.203" r="21.203" transform="translate(1066.909 1594.179) rotate(-1.848)" fill="#344ad4"/>
      <circle id="Elipse_4911" data-name="Elipse 4911" cx="21.203" cy="21.203" r="21.203" transform="translate(1066.909 1594.179) rotate(-1.848)" fill="url(#radial-gradient-14)" style="mix-blend-mode: multiply;isolation: isolate"/>
      <g id="Grupo_875422" data-name="Grupo 875422">
        <path id="Trazado_118068" data-name="Trazado 118068" d="M1078.619,1609.5l-.229.035a.893.893,0,0,1-.135.012.851.851,0,0,1-.592-.205.7.7,0,0,1-.228-.546.691.691,0,0,1,.2-.492,1.231,1.231,0,0,1,.574-.317l3.483-.938a2.028,2.028,0,0,1,.252-.053,1.9,1.9,0,0,1,.252-.017.4.4,0,0,1,.352.2,1.038,1.038,0,0,1,.129.557v12.687h1.876a3.149,3.149,0,0,1,1.325.17.685.685,0,0,1,.281.639.811.811,0,0,1-.234.634,1.028,1.028,0,0,1-.7.211h-7.012a1.024,1.024,0,0,1-.7-.211.808.808,0,0,1-.235-.634.687.687,0,0,1,.281-.639,3.155,3.155,0,0,1,1.326-.17h1.946v-11.456Z" fill="#fff"/>
        <path id="Trazado_118069" data-name="Trazado 118069" d="M1091.751,1622.081a1.406,1.406,0,0,1-.92-.252.964.964,0,0,1-.3-.78q0-.762,2.252-2.861l.339-.329q.34-.328.986-.938,4.056-3.822,4.057-5.57a2.891,2.891,0,0,0-.716-2.034,2.4,2.4,0,0,0-1.852-.78,3.392,3.392,0,0,0-1.413.305,2.861,2.861,0,0,0-1.085.821c-.047.063-.121.168-.223.316q-.433.786-.973.786a.671.671,0,0,1-.6-.258,1.9,1.9,0,0,1-.176-.985,1.678,1.678,0,0,1,.082-.615,1.372,1.372,0,0,1,.3-.416,5.461,5.461,0,0,1,1.859-1.156,6.256,6.256,0,0,1,2.269-.427,4.516,4.516,0,0,1,3.254,1.255,4.114,4.114,0,0,1,1.307,3.087q0,2.3-3.987,6.114-1.02.951-1.56,1.491l-1.441,1.385h5.358a1.358,1.358,0,0,1,.276-.777.846.846,0,0,1,1.225-.009,1.044,1.044,0,0,1,.223.7,1.067,1.067,0,0,1-.012.124,1.057,1.057,0,0,0-.012.123l-.093.9a1.01,1.01,0,0,1-.211.568.576.576,0,0,1-.458.206Z" fill="#fff"/>
      </g>
    </g>
    <g id="Grupo_875425" data-name="Grupo 875425" transform="translate(174.955 276.957)">
      <path id="Trazado_118070" data-name="Trazado 118070" d="M1045.993,1637.288a25.25,25.25,0,1,0,25.251,25.25A25.278,25.278,0,0,0,1045.993,1637.288Zm0,47.8a22.552,22.552,0,1,1,22.553-22.553A22.552,22.552,0,0,1,1045.993,1685.091Z" fill="#ebebeb"/>
      <path id="Trazado_118071" data-name="Trazado 118071" d="M1045.993,1635.939a26.629,26.629,0,0,0-26.6,26.6h0a26.6,26.6,0,1,0,53.2,0h0A26.63,26.63,0,0,0,1045.993,1635.939Zm0,51.85a25.279,25.279,0,0,1-25.25-25.251h0a25.251,25.251,0,0,1,50.5,0h0A25.279,25.279,0,0,1,1045.993,1687.789Z" fill="url(#linear-gradient)"/>
      <path id="Trazado_118072" data-name="Trazado 118072" d="M1045.993,1639.986a22.552,22.552,0,1,0,22.553,22.552A22.552,22.552,0,0,0,1045.993,1639.986Zm0,43.756a21.228,21.228,0,0,1-21.2-21.2h0a21.2,21.2,0,0,1,42.407,0h0A21.228,21.228,0,0,1,1045.993,1683.742Z" fill="url(#linear-gradient-2)"/>
      <circle id="Elipse_4912" data-name="Elipse 4912" cx="21.203" cy="21.203" r="21.203" transform="translate(1018.137 1651.441) rotate(-23.279)" fill="#543ecb"/>
      <circle id="Elipse_4913" data-name="Elipse 4913" cx="21.203" cy="21.203" r="21.203" transform="translate(1018.137 1651.441) rotate(-23.279)" fill="url(#radial-gradient-15)" style="mix-blend-mode: multiply;isolation: isolate"/>
      <g id="Grupo_875424" data-name="Grupo 875424">
        <path id="Trazado_118073" data-name="Trazado 118073" d="M1035.7,1657.35l-.229.035a.868.868,0,0,1-.135.011.853.853,0,0,1-.592-.2.737.737,0,0,1-.029-1.037,1.23,1.23,0,0,1,.574-.317l3.483-.938a2.038,2.038,0,0,1,.252-.053,1.9,1.9,0,0,1,.252-.017.4.4,0,0,1,.352.205,1.038,1.038,0,0,1,.129.557v12.687h1.876a3.146,3.146,0,0,1,1.325.17.686.686,0,0,1,.282.639.808.808,0,0,1-.235.634,1.026,1.026,0,0,1-.7.211h-7.012a1.025,1.025,0,0,1-.7-.211.808.808,0,0,1-.235-.634.686.686,0,0,1,.282-.639,3.146,3.146,0,0,1,1.325-.17h1.946v-11.456Z" fill="#fff"/>
        <path id="Trazado_118074" data-name="Trazado 118074" d="M1054.747,1661.864a3.706,3.706,0,0,1,2.884,3.788,4.312,4.312,0,0,1-1.454,3.359,5.413,5.413,0,0,1-3.764,1.308,7.082,7.082,0,0,1-3.172-.686q-1.389-.687-1.389-1.507a.751.751,0,0,1,.252-.581.885.885,0,0,1,.616-.229,6.954,6.954,0,0,1,1.448.6,5.43,5.43,0,0,0,2.327.6,3.233,3.233,0,0,0,2.269-.8,2.876,2.876,0,0,0,.27-3.828,2.755,2.755,0,0,0-1.659-.921,7.548,7.548,0,0,0-.833-.093q-.984-.059-.985-.821,0-.692.962-.809.375-.036.621-.082a2.45,2.45,0,0,0,1.478-.751,2.1,2.1,0,0,0,.562-1.477,2.483,2.483,0,0,0-.691-1.818,2.364,2.364,0,0,0-1.759-.7,3.981,3.981,0,0,0-2.023.61,4.176,4.176,0,0,1-1.3.609.749.749,0,0,1-.545-.211.708.708,0,0,1-.217-.528q0-.714,1.313-1.424a6.02,6.02,0,0,1,2.908-.71,4.343,4.343,0,0,1,3.044,1.108,3.552,3.552,0,0,1,1.213,2.727,3.364,3.364,0,0,1-.58,2.028A3.725,3.725,0,0,1,1054.747,1661.864Z" fill="#fff"/>
      </g>
    </g>
    <g id="Grupo_875427" data-name="Grupo 875427" transform="translate(174.955 276.957)">
      <path id="Trazado_118075" data-name="Trazado 118075" d="M987.571,1663.023a25.251,25.251,0,1,0,25.251,25.251A25.279,25.279,0,0,0,987.571,1663.023Zm0,47.8a22.553,22.553,0,1,1,22.552-22.552A22.552,22.552,0,0,1,987.571,1710.826Z" fill="#ebebeb"/>
      <path id="Trazado_118076" data-name="Trazado 118076" d="M987.571,1661.674a26.63,26.63,0,0,0-26.6,26.6h0a26.6,26.6,0,0,0,53.2,0h0A26.631,26.631,0,0,0,987.571,1661.674Zm0,51.85a25.278,25.278,0,0,1-25.25-25.25h0a25.251,25.251,0,1,1,50.5,0h0A25.279,25.279,0,0,1,987.571,1713.524Z" fill="url(#linear-gradient)"/>
      <path id="Trazado_118077" data-name="Trazado 118077" d="M987.571,1665.721a22.553,22.553,0,1,0,22.552,22.553A22.553,22.553,0,0,0,987.571,1665.721Zm0,43.756a21.228,21.228,0,0,1-21.2-21.2h0a21.2,21.2,0,1,1,42.406,0h0A21.227,21.227,0,0,1,987.571,1709.477Z" fill="url(#linear-gradient-2)"/>
      <circle id="Elipse_4914" data-name="Elipse 4914" cx="21.203" cy="21.203" r="21.203" transform="translate(966.368 1667.071)" fill="#48319f"/>
      <circle id="Elipse_4915" data-name="Elipse 4915" cx="21.203" cy="21.203" r="21.203" transform="translate(966.368 1667.071)" fill="url(#radial-gradient-16)" style="mix-blend-mode: multiply;isolation: isolate"/>
      <g id="Grupo_875426" data-name="Grupo 875426">
        <path id="Trazado_118078" data-name="Trazado 118078" d="M977.34,1683.085l-.228.035a.876.876,0,0,1-.135.012.854.854,0,0,1-.593-.2.738.738,0,0,1-.029-1.038,1.225,1.225,0,0,1,.575-.316l3.482-.939a2.247,2.247,0,0,1,.252-.053,1.9,1.9,0,0,1,.253-.017.4.4,0,0,1,.352.205,1.042,1.042,0,0,1,.128.557v12.688h1.877a3.137,3.137,0,0,1,1.325.17.685.685,0,0,1,.281.639.811.811,0,0,1-.234.633,1.023,1.023,0,0,1-.7.211H976.93a1.023,1.023,0,0,1-.7-.211.811.811,0,0,1-.234-.633.685.685,0,0,1,.281-.639,3.133,3.133,0,0,1,1.325-.17h1.947v-11.457Z" fill="#fff"/>
        <path id="Trazado_118079" data-name="Trazado 118079" d="M994.273,1695.667a1.164,1.164,0,0,1-.762-.182.875.875,0,0,1-.2-.662.811.811,0,0,1,.206-.616.942.942,0,0,1,.662-.193h1.36v-1.971h-5.476a.575.575,0,0,1-.457-.187.791.791,0,0,1-.164-.539v-.81a1.8,1.8,0,0,1,.34-.984l.094-.153,4.948-8.4a1.341,1.341,0,0,1,.27-.375.443.443,0,0,1,.281-.082,2.306,2.306,0,0,1,.246.023c.031.009.063.016.094.024l1.2.187a.369.369,0,0,1,.264.182.779.779,0,0,1,.1.417v8.911h.6a.454.454,0,0,0,.4-.2.392.392,0,0,1,.317-.205.528.528,0,0,1,.4.176.614.614,0,0,1,.164.434,1.429,1.429,0,0,1-.012.193.814.814,0,0,1-.047.182l-.094.481a1.109,1.109,0,0,1-.24.574.7.7,0,0,1-.5.152h-.985v1.971h.41a2.061,2.061,0,0,1,1.032.181.69.69,0,0,1,.281.628.811.811,0,0,1-.234.633,1.023,1.023,0,0,1-.7.211Zm1.266-5.406v-7.95l-4.444,7.95Z" fill="#fff"/>
      </g>
    </g>
    <path id="Trazado_120684" data-name="Trazado 120684" d="M-48.091-6.035h-5.391v3.4h6.367V0h-9.795V-14.219h9.814v2.646h-6.387v3h5.391Zm7.754,3.066a.76.76,0,0,0-.439-.674,6.685,6.685,0,0,0-1.67-.527,7.615,7.615,0,0,1-2.031-.718A3.4,3.4,0,0,1-45.7-5.967a2.577,2.577,0,0,1-.42-1.455,2.92,2.92,0,0,1,1.2-2.4,4.948,4.948,0,0,1,3.145-.942,5.482,5.482,0,0,1,3.359.947,2.962,2.962,0,0,1,1.27,2.49h-3.3q0-1.27-1.338-1.27a1.326,1.326,0,0,0-.869.288A.892.892,0,0,0-43-7.588a.819.819,0,0,0,.43.713,4.06,4.06,0,0,0,1.372.449,11.857,11.857,0,0,1,1.655.42,3.007,3.007,0,0,1,2.383,2.939A2.767,2.767,0,0,1-38.447-.713,5.632,5.632,0,0,1-41.772.2a5.747,5.747,0,0,1-2.422-.488,4.05,4.05,0,0,1-1.66-1.328,3.007,3.007,0,0,1-.6-1.768h3.076a1.272,1.272,0,0,0,.488,1.069,2.009,2.009,0,0,0,1.2.337,1.58,1.58,0,0,0,1.011-.273A.875.875,0,0,0-40.337-2.969Zm9.18.625a1.464,1.464,0,0,0,1.074-.376,1.379,1.379,0,0,0,.371-1.05h3.086A3.653,3.653,0,0,1-27.871-.918,4.631,4.631,0,0,1-31.079.2,4.689,4.689,0,0,1-34.712-1.25a5.7,5.7,0,0,1-1.328-4v-.137a6.436,6.436,0,0,1,.591-2.827,4.3,4.3,0,0,1,1.7-1.885,5.081,5.081,0,0,1,2.637-.659,4.573,4.573,0,0,1,3.271,1.143,4.053,4.053,0,0,1,1.211,3.1h-3.086a1.807,1.807,0,0,0-.4-1.26,1.382,1.382,0,0,0-1.074-.439q-1.279,0-1.494,1.631a11.507,11.507,0,0,0-.068,1.426,4.52,4.52,0,0,0,.381,2.207A1.319,1.319,0,0,0-31.157-2.344ZM-19.282,0a3.716,3.716,0,0,1-.312-.947A3.06,3.06,0,0,1-22.134.2a3.749,3.749,0,0,1-2.539-.9,2.875,2.875,0,0,1-1.045-2.271,2.955,2.955,0,0,1,1.27-2.6,6.468,6.468,0,0,1,3.691-.879h1.016v-.559q0-1.462-1.26-1.462a1.03,1.03,0,0,0-1.172,1.158h-3.291a2.95,2.95,0,0,1,1.3-2.487,5.479,5.479,0,0,1,3.325-.956,4.8,4.8,0,0,1,3.193.986,3.429,3.429,0,0,1,1.2,2.705v4.678a4.79,4.79,0,0,0,.449,2.227V0Zm-2.061-2.148a1.836,1.836,0,0,0,1.021-.264,1.653,1.653,0,0,0,.581-.6V-4.7H-20.7q-1.719,0-1.719,1.543a.942.942,0,0,0,.3.728A1.1,1.1,0,0,0-21.343-2.148ZM-11.147,0h-3.3V-15h3.3Zm7.979,0a3.716,3.716,0,0,1-.312-.947A3.06,3.06,0,0,1-6.021.2a3.749,3.749,0,0,1-2.539-.9A2.875,2.875,0,0,1-9.6-2.979a2.955,2.955,0,0,1,1.27-2.6,6.468,6.468,0,0,1,3.691-.879h1.016v-.559q0-1.462-1.26-1.462A1.03,1.03,0,0,0-6.06-7.319H-9.351a2.95,2.95,0,0,1,1.3-2.487,5.479,5.479,0,0,1,3.325-.956,4.8,4.8,0,0,1,3.193.986A3.429,3.429,0,0,1-.327-7.07v4.678A4.79,4.79,0,0,0,.122-.166V0ZM-5.229-2.148a1.836,1.836,0,0,0,1.021-.264,1.653,1.653,0,0,0,.581-.6V-4.7h-.957Q-6.3-4.7-6.3-3.154a.942.942,0,0,0,.3.728A1.1,1.1,0,0,0-5.229-2.148ZM6.06-5.361A6.455,6.455,0,0,1,7.144-9.316a3.568,3.568,0,0,1,3.027-1.445,3.035,3.035,0,0,1,2.383,1.113V-15h3.3V0H12.9l-.166-1.133A3.116,3.116,0,0,1,10.151.2,3.562,3.562,0,0,1,7.163-1.25,6.659,6.659,0,0,1,6.06-5.361Zm3.291.205q0,2.813,1.641,2.813a1.62,1.62,0,0,0,1.563-.918V-7.285a1.576,1.576,0,0,0-1.543-.937q-1.523,0-1.65,2.461ZM22.837.2A5.432,5.432,0,0,1,18.9-1.255a5.008,5.008,0,0,1-1.5-3.774V-5.3A6.489,6.489,0,0,1,18-8.164a4.395,4.395,0,0,1,1.753-1.919,5.292,5.292,0,0,1,2.734-.679A4.574,4.574,0,0,1,26-9.38,5.43,5.43,0,0,1,27.29-5.527v1.279H20.747a2.372,2.372,0,0,0,.771,1.4,2.3,2.3,0,0,0,1.543.508A2.958,2.958,0,0,0,25.5-3.437l1.5,1.777A4.2,4.2,0,0,1,25.264-.308,5.891,5.891,0,0,1,22.837.2Zm-.371-8.418q-1.445,0-1.719,1.914h3.32v-.254a1.63,1.63,0,0,0-.4-1.226A1.593,1.593,0,0,0,22.466-8.223ZM43.4-5.205a6.372,6.372,0,0,1-1.108,3.931A3.554,3.554,0,0,1,39.3.2,3.046,3.046,0,0,1,36.909-.869V4.063H33.618V-10.566h3.076l.1.977a3.046,3.046,0,0,1,2.49-1.172,3.582,3.582,0,0,1,3.037,1.44A6.45,6.45,0,0,1,43.4-5.361ZM40.112-5.41q0-2.812-1.641-2.812a1.549,1.549,0,0,0-1.562.84v4.16a1.6,1.6,0,0,0,1.582.879q1.572,0,1.621-2.715ZM56.89,0H53.481V-5.937H48.433V0H45V-14.219h3.428v5.645h5.049v-5.645H56.89Z" transform="translate(1130.341 1866)" fill="#12263f"/>
  </g>
</svg>
