<svg xmlns="http://www.w3.org/2000/svg" width="1268.667" height="888.661" viewBox="0 0 1268.667 888.661">
  <g id="Grupo_876843" data-name="Grupo 876843" transform="translate(-151.333 -407)">
    <g id="Grupo_876842" data-name="Grupo 876842">
      <rect id="Rectángulo_293688" data-name="Rectángulo 293688" width="140.059" height="37.707" rx="5" transform="translate(849.243 983)" fill="#eae696"/>
      <text id="_" data-name=" " transform="translate(151.333 708.247)" font-size="11" font-family="Calibri"><tspan x="0" y="0"> </tspan></text>
      <rect id="Rectángulo_293689" data-name="Rectángulo 293689" width="398.117" height="37.707" rx="5" transform="translate(193.333 572)" fill="#ae9878"/>
      <text id="Disponibilidad" transform="translate(392.333 596)" fill="#0c1d30" font-size="16" font-family="Roboto-Regular, Roboto"><tspan x="-50.406" y="0">Disponibilidad</tspan></text>
      <rect id="Rectángulo_293690" data-name="Rectángulo 293690" width="456.91" height="53.857" rx="5" transform="translate(592.333 488)" fill="#87c8c0"/>
      <text id="Recurso_primordial_para_el_mantenimiento_del_planeta" data-name="Recurso primordial para el mantenimiento del planeta" transform="translate(820.333 521)" fill="#0c1d30" font-size="16" font-family="Roboto-Regular, Roboto" letter-spacing="0.004em"><tspan x="-191.534" y="0">Recurso primordial para el mantenimiento del planeta</tspan></text>
      <rect id="Rectángulo_293691" data-name="Rectángulo 293691" width="416.852" height="37.707" rx="5" transform="translate(710.847 572)" fill="#eae696"/>
      <rect id="Rectángulo_293692" data-name="Rectángulo 293692" width="215.923" height="37.707" rx="5" transform="translate(811.312 653.865)" fill="#eae696"/>
      <text id="Calidad" transform="translate(917.917 596)" fill="#0c1d30" font-size="16" font-family="Roboto-Regular, Roboto"><tspan x="-26.816" y="0">Calidad</tspan></text>
      <text id="Características" transform="translate(915.921 674.413)" fill="#0c1d30" font-size="16" font-family="Roboto-Regular, Roboto"><tspan x="-53.527" y="0">Características</tspan></text>
      <rect id="Rectángulo_293693" data-name="Rectángulo 293693" width="215.923" height="37.707" rx="5" transform="translate(660.739 728)" fill="#eae696"/>
      <text id="Fisicoquímicas" transform="translate(765.347 752)" fill="#0c1d30" font-size="16" font-family="Roboto-Regular, Roboto"><tspan x="-53.73" y="0">Fisicoquímicas</tspan></text>
      <text id="Muestreo" transform="translate(917.347 1007)" fill="#0c1d30" font-size="16" font-family="Roboto-Regular, Roboto"><tspan x="-33.879" y="0">Muestreo</tspan></text>
      <rect id="Rectángulo_293694" data-name="Rectángulo 293694" width="140.059" height="37.707" rx="5" transform="translate(781.085 1047)" fill="#eae696"/>
      <text id="Protocolo" transform="translate(850.831 1071)" fill="#0c1d30" font-size="16" font-family="Roboto-Regular, Roboto"><tspan x="-34.59" y="0">Protocolo</tspan></text>
      <rect id="Rectángulo_293695" data-name="Rectángulo 293695" width="140.059" height="37.707" rx="5" transform="translate(1116.226 1047)" fill="#eae696"/>
      <text id="Recursos" transform="translate(1183.329 1071)" fill="#0c1d30" font-size="16" font-family="Roboto-Regular, Roboto"><tspan x="-33.281" y="0">Recursos</tspan></text>
      <rect id="Rectángulo_293696" data-name="Rectángulo 293696" width="140.059" height="37.707" rx="5" transform="translate(952.51 1113)" fill="#eae696"/>
      <text id="Equipos" transform="translate(1023.185 1137)" fill="#0c1d30" font-size="16" font-family="Roboto-Regular, Roboto"><tspan x="-28.621" y="0">Equipos</tspan></text>
      <rect id="Rectángulo_293697" data-name="Rectángulo 293697" width="140.059" height="69.745" rx="5" transform="translate(952.51 1167)" fill="#eae696"/>
      <text id="Geoposicionador_Altímetro_Cronómetro" data-name="Geoposicionador
Altímetro
Cronómetro" transform="translate(1019.259 1190)" fill="#0c1d30" font-size="16" font-family="Roboto-Regular, Roboto"><tspan x="-60.605" y="0">Geoposicionador</tspan><tspan x="-32.805" y="18">Altímetro</tspan><tspan x="-42.43" y="36">Cronómetro</tspan></text>
      <rect id="Rectángulo_293698" data-name="Rectángulo 293698" width="140.059" height="37.707" rx="5" transform="translate(1116.226 1113)" fill="#eae696"/>
      <text id="Material" transform="translate(1183.615 1137)" fill="#0c1d30" font-size="16" font-family="Roboto-Regular, Roboto"><tspan x="-29.129" y="0">Material</tspan></text>
      <rect id="Rectángulo_293699" data-name="Rectángulo 293699" width="140.059" height="69.745" rx="5" transform="translate(1116.226 1167)" fill="#eae696"/>
      <text id="Baldes_Recipientes_Nevera" data-name="Baldes
Recipientes
Nevera" transform="translate(1182.759 1190)" fill="#0c1d30" font-size="16" font-family="Roboto-Regular, Roboto"><tspan x="-24.148" y="0">Baldes</tspan><tspan x="-41.352" y="18">Recipientes</tspan><tspan x="-24.906" y="36">Nevera</tspan></text>
      <rect id="Rectángulo_293700" data-name="Rectángulo 293700" width="140.059" height="37.707" rx="5" transform="translate(1279.94 1113)" fill="#eae696"/>
      <text id="Insumos" transform="translate(1348.33 1137)" fill="#0c1d30" font-size="16" font-family="Roboto-Regular, Roboto"><tspan x="-30.824" y="0">Insumos</tspan></text>
      <rect id="Rectángulo_293701" data-name="Rectángulo 293701" width="140.059" height="69.745" rx="5" transform="translate(1279.94 1167)" fill="#eae696"/>
      <text id="Formatos_Rótulos_Reactivos" data-name="Formatos
Rótulos
Reactivos" transform="translate(1348.044 1190)" fill="#0c1d30" font-size="16" font-family="Roboto-Regular, Roboto"><tspan x="-34.195" y="0">Formatos</tspan><tspan x="-27.141" y="18">Rótulos</tspan><tspan x="-34.762" y="36">Reactivos</tspan></text>
      <rect id="Rectángulo_293702" data-name="Rectángulo 293702" width="140.059" height="37.707" rx="5" transform="translate(609.659 1047)" fill="#eae696"/>
      <text id="Tipos" transform="translate(679.904 1071)" fill="#0c1d30" font-size="16" font-family="Roboto-Regular, Roboto"><tspan x="-19.891" y="0">Tipos</tspan></text>
      <rect id="Rectángulo_293703" data-name="Rectángulo 293703" width="176.059" height="182.66" rx="5" transform="translate(763.085 1113)" fill="#eae696"/>
      <text id="Tipo_envase_Objeto_estudio_Puntos_estratégicos_Rotulación_Recolección_Transporte_Análisis_Cadena_de_custodia_Informes" data-name="Tipo envase
Objeto estudio
Puntos estratégicos
Rotulación
Recolección
Transporte
Análisis
Cadena de custodia
Informes" transform="translate(847.62 1133.547)" fill="#0c1d30" font-size="16" font-family="Roboto-Regular, Roboto"><tspan x="-42.93" y="0">Tipo envase</tspan><tspan x="-51.617" y="18">Objeto estudio</tspan><tspan x="-71.109" y="36">Puntos estratégicos</tspan><tspan x="-37.91" y="54">Rotulación</tspan><tspan x="-43.387" y="72">Recolección</tspan><tspan x="-38.727" y="90">Transporte</tspan><tspan x="-28.059" y="108">Análisis</tspan><tspan x="-70.41" y="126">Cadena de custodia</tspan><tspan x="-32.012" y="144">Informes</tspan></text>
      <rect id="Rectángulo_293704" data-name="Rectángulo 293704" width="140.059" height="71.969" rx="5" transform="translate(609.659 1113)" fill="#eae696"/>
      <text id="Manual_Automático_Mixto" data-name="Manual
Automático
Mixto" transform="translate(677.835 1133.547)" fill="#0c1d30" font-size="16" font-family="Roboto-Regular, Roboto"><tspan x="-26.453" y="0">Manual</tspan><tspan x="-41.352" y="18">Automático</tspan><tspan x="-19.988" y="36">Mixto</tspan></text>
      <rect id="Rectángulo_293705" data-name="Rectángulo 293705" width="215.923" height="37.707" rx="5" transform="translate(953.008 728)" fill="#eae696"/>
      <text id="Microbiológicas" transform="translate(1056.332 752)" fill="#0c1d30" font-size="16" font-family="Roboto-Regular, Roboto"><tspan x="-56.895" y="0">Microbiológicas</tspan></text>
      <rect id="Rectángulo_293707" data-name="Rectángulo 293707" width="215.923" height="37.707" rx="5" transform="translate(953.008 794)" fill="#eae696"/>
      <text id="Bacterias_Coliformes" data-name="Bacterias Coliformes" transform="translate(1056.19 818)" fill="#0c1d30" font-size="16" font-family="Roboto-Regular, Roboto"><tspan x="-74.551" y="0">Bacterias Coliformes</tspan></text>
      <rect id="Rectángulo_293708" data-name="Rectángulo 293708" width="140.059" height="37.707" rx="5" transform="translate(909.196 860)" fill="#eae696"/>
      <text id="Totales" transform="translate(977.871 885)" fill="#0c1d30" font-size="16" font-family="Roboto-Regular, Roboto"><tspan x="-26.219" y="0">Totales</tspan></text>
      <text id="depende_del" data-name="depende del" transform="translate(349.379 639.505)" fill="#0c1d30" font-size="16" font-family="Roboto-Regular, Roboto"><tspan x="0" y="0">depende del</tspan></text>
      <rect id="Rectángulo_293710" data-name="Rectángulo 293710" width="227.51" height="29.92" rx="5" transform="translate(278.28 657.281)" fill="#ae9878"/>
      <text id="Movimiento_entre_depósitos" data-name="Movimiento entre depósitos" transform="translate(391.237 675.913)" fill="#0c1d30" font-size="16" font-family="Roboto-Regular, Roboto"><tspan x="-99.27" y="0">Movimiento entre depósitos</tspan></text>
      <text id="gracias_a" data-name="gracias a" transform="translate(357.916 716.331)" fill="#0c1d30" font-size="16" font-family="Roboto-Regular, Roboto"><tspan x="0" y="0">gracias a</tspan></text>
      <rect id="Rectángulo_293711" data-name="Rectángulo 293711" width="207.51" height="29.92" rx="5" transform="translate(288.28 737)" fill="#ae9878"/>
      <text id="Ciclo_hidrológico" data-name="Ciclo hidrológico" transform="translate(387.754 757)" fill="#0c1d30" font-size="16" font-family="Roboto-Regular, Roboto"><tspan x="-59.555" y="0">Ciclo hidrológico</tspan></text>
      <rect id="Rectángulo_293712" data-name="Rectángulo 293712" width="207.51" height="29.92" rx="5" transform="translate(288.28 794)" fill="#ae9878"/>
      <text id="Consiste_en_procesos_de" data-name="Consiste en procesos de" transform="translate(385.757 815)" fill="#0c1d30" font-size="16" font-family="Roboto-Regular, Roboto"><tspan x="-87.488" y="0">Consiste en procesos de</tspan></text>
      <rect id="Rectángulo_293713" data-name="Rectángulo 293713" width="120.406" height="29.92" rx="5" transform="translate(195.333 855)" fill="#ae9878"/>
      <text id="Evaporación" transform="translate(255.333 875)" fill="#0c1d30" font-size="16" font-family="Roboto-Regular, Roboto"><tspan x="-43.672" y="0">Evaporación</tspan></text>
      <rect id="Rectángulo_293714" data-name="Rectángulo 293714" width="120.406" height="29.92" rx="5" transform="translate(331.333 855)" fill="#ae9878"/>
      <text id="Condensación" transform="translate(392.333 875)" fill="#0c1d30" font-size="16" font-family="Roboto-Regular, Roboto"><tspan x="-50.93" y="0">Condensación</tspan></text>
      <rect id="Rectángulo_293715" data-name="Rectángulo 293715" width="120.406" height="29.92" rx="5" transform="translate(469.333 855)" fill="#ae9878"/>
      <text id="Precipitación" transform="translate(529.333 875)" fill="#0c1d30" font-size="16" font-family="Roboto-Regular, Roboto"><tspan x="-46.621" y="0">Precipitación</tspan></text>
      <rect id="Rectángulo_293716" data-name="Rectángulo 293716" width="120.406" height="29.92" rx="5" transform="translate(195.333 902)" fill="#ae9878"/>
      <text id="Infiltración" transform="translate(255.333 922)" fill="#0c1d30" font-size="16" font-family="Roboto-Regular, Roboto"><tspan x="-37.582" y="0">Infiltración</tspan></text>
      <rect id="Rectángulo_293717" data-name="Rectángulo 293717" width="120.406" height="29.92" rx="5" transform="translate(195.333 946)" fill="#ae9878"/>
      <text id="Transpiración" transform="translate(255.333 966)" fill="#0c1d30" font-size="16" font-family="Roboto-Regular, Roboto"><tspan x="-48.359" y="0">Transpiración</tspan></text>
      <rect id="Rectángulo_293718" data-name="Rectángulo 293718" width="120.406" height="29.92" rx="5" transform="translate(331.333 902)" fill="#ae9878"/>
      <text id="Escorrentía" transform="translate(392.333 922)" fill="#0c1d30" font-size="16" font-family="Roboto-Regular, Roboto"><tspan x="-40.43" y="0">Escorrentía</tspan></text>
      <rect id="Rectángulo_293719" data-name="Rectángulo 293719" width="120.406" height="29.92" rx="5" transform="translate(469.333 902)" fill="#ae9878"/>
      <text id="Sedimentación" transform="translate(529.333 922)" fill="#0c1d30" font-size="16" font-family="Roboto-Regular, Roboto"><tspan x="-53.172" y="0">Sedimentación</tspan></text>
      <text id="_2" data-name=" " transform="translate(589.835 712.163)" font-size="11" font-family="Calibri"><tspan x="0" y="0"> </tspan></text>
      <text id="_3" data-name=" " transform="translate(597.327 939.032)" font-size="11" font-family="Calibri"><tspan x="0" y="0"> </tspan></text>
      <rect id="Rectángulo_293720" data-name="Rectángulo 293720" width="456.91" height="53.857" rx="5" transform="translate(592.333 407)" fill="#87c8c0"/>
      <text id="Agua" transform="translate(820.333 439)" fill="#0c1d30" font-size="16" font-family="Roboto-Regular, Roboto" letter-spacing="0.004em"><tspan x="-18.565" y="0">Agua</tspan></text>
      <rect id="Rectángulo_293721" data-name="Rectángulo 293721" width="1.642" height="26.474" transform="translate(819.771 460.5)" fill="#0c1d30"/>
      <circle id="Elipse_4963" data-name="Elipse 4963" cx="3.088" cy="3.088" r="3.088" transform="translate(817.504 483.731)" fill="#0c1d30"/>
      <path id="Trazado_120567" data-name="Trazado 120567" d="M685.626,288.708h-1.643V277.759H157.53v10.949h-1.643V276.117h529.74Z" transform="translate(235.35 280.081)" fill="#0c1d30"/>
      <circle id="Elipse_4964" data-name="Elipse 4964" cx="3.088" cy="3.088" r="3.088" transform="translate(388.97 565.546)" fill="#0c1d30"/>
      <circle id="Elipse_4965" data-name="Elipse 4965" cx="3.088" cy="3.088" r="3.088" transform="translate(917.067 565.546)" fill="#0c1d30"/>
      <rect id="Rectángulo_293722" data-name="Rectángulo 293722" width="1.643" height="10.976" transform="translate(391.237 609.429)" fill="#0c1d30"/>
      <path id="Trazado_120568" data-name="Trazado 120568" d="M154.507,316.318a3.088,3.088,0,1,0,3.088-3.088A3.089,3.089,0,0,0,154.507,316.318Z" transform="translate(234.463 303.932)" fill="#0c1d30"/>
      <path id="Trazado_120569" data-name="Trazado 120569" d="M386.814,375.35h-1.643V364.259l154.543-.035V349.717h1.643v16.149l-154.543.035Z" transform="translate(382.707 341.855)" fill="#0c1d30"/>
      <path id="Trazado_120570" data-name="Trazado 120570" d="M383.791,366.435a3.088,3.088,0,1,0,3.088-3.088A3.089,3.089,0,0,0,383.791,366.435Z" transform="translate(381.82 350.616)" fill="#0c1d30"/>
      <rect id="Rectángulo_293723" data-name="Rectángulo 293723" width="1.643" height="10.029" transform="translate(390.416 687.201)" fill="#0c1d30"/>
      <path id="Trazado_120571" data-name="Trazado 120571" d="M154.007,359.678a3.088,3.088,0,1,0,3.088-3.088A3.089,3.089,0,0,0,154.007,359.678Z" transform="translate(234.142 337.397)" fill="#0c1d30"/>
      <rect id="Rectángulo_293724" data-name="Rectángulo 293724" width="1.643" height="10.112" transform="translate(391.237 734.08)" fill="#0c1d30"/>
      <path id="Trazado_120572" data-name="Trazado 120572" d="M154.507,377.666a3.088,3.088,0,1,0,3.088-3.088A3.089,3.089,0,0,0,154.507,377.666Z" transform="translate(234.463 347.926)" fill="#0c1d30"/>
      <rect id="Rectángulo_293725" data-name="Rectángulo 293725" width="1.643" height="10.112" transform="translate(391.237 644.672)" fill="#0c1d30"/>
      <path id="Trazado_120573" data-name="Trazado 120573" d="M154.507,333.838a3.088,3.088,0,1,0,3.088-3.088A3.089,3.089,0,0,0,154.507,333.838Z" transform="translate(234.463 320.791)" fill="#0c1d30"/>
      <rect id="Rectángulo_293726" data-name="Rectángulo 293726" width="1.643" height="24.754" transform="translate(391.237 766.601)" fill="#0c1d30"/>
      <circle id="Elipse_4966" data-name="Elipse 4966" cx="3.088" cy="3.088" r="3.088" transform="translate(388.97 788.112)" fill="#0c1d30"/>
      <path id="Trazado_120574" data-name="Trazado 120574" d="M39.936,478.127H27.346v-31.6h210.33V431.621h1.643v16.552H28.989v28.311H39.936Z" transform="translate(152.739 392.587)" fill="#0c1d30"/>
      <path id="Trazado_120575" data-name="Trazado 120575" d="M36.124,463.728a3.088,3.088,0,1,0-3.088-3.088A3.089,3.089,0,0,0,36.124,463.728Z" transform="translate(156.396 409.252)" fill="#0c1d30"/>
      <rect id="Rectángulo_293727" data-name="Rectángulo 293727" width="11.768" height="1.643" transform="translate(315.606 869.07)" fill="#0c1d30"/>
      <path id="Trazado_120576" data-name="Trazado 120576" d="M118.124,463.728a3.088,3.088,0,1,0-3.088-3.088A3.089,3.089,0,0,0,118.124,463.728Z" transform="translate(209.096 409.252)" fill="#0c1d30"/>
      <rect id="Rectángulo_293728" data-name="Rectángulo 293728" width="11.767" height="1.643" transform="translate(452.238 869.07)" fill="#0c1d30"/>
      <path id="Trazado_120577" data-name="Trazado 120577" d="M201.3,463.728a3.088,3.088,0,1,0-3.087-3.088A3.088,3.088,0,0,0,201.3,463.728Z" transform="translate(262.551 409.252)" fill="#0c1d30"/>
      <rect id="Rectángulo_293729" data-name="Rectángulo 293729" width="11.767" height="1.643" transform="translate(456.814 915.694)" fill="#0c1d30"/>
      <path id="Trazado_120578" data-name="Trazado 120578" d="M197.11,485.935a3.088,3.088,0,1,0,3.088,3.088A3.089,3.089,0,0,0,197.11,485.935Z" transform="translate(259.859 427.493)" fill="#0c1d30"/>
      <rect id="Rectángulo_293730" data-name="Rectángulo 293730" width="11.767" height="1.643" transform="translate(320.184 915.694)" fill="#0c1d30"/>
      <path id="Trazado_120579" data-name="Trazado 120579" d="M113.934,485.935a3.088,3.088,0,1,0,3.088,3.088A3.089,3.089,0,0,0,113.934,485.935Z" transform="translate(206.403 427.493)" fill="#0c1d30"/>
      <path id="Trazado_120580" data-name="Trazado 120580" d="M286.1,507.2h-6.514v-1.643h4.871V460.575h-7.8v-1.643H286.1Z" transform="translate(312.965 410.14)" fill="#0c1d30"/>
      <circle id="Elipse_4967" data-name="Elipse 4967" cx="3.088" cy="3.088" r="3.088" transform="translate(589.619 913.429)" fill="#0c1d30"/>
      <path id="Trazado_120581" data-name="Trazado 120581" d="M36.854,534.2H30.34V485.932h9.448v1.643H31.983v44.981h4.871Z" transform="translate(154.663 427.492)" fill="#0c1d30"/>
      <path id="Trazado_120582" data-name="Trazado 120582" d="M35.419,519.112a3.088,3.088,0,1,0-3.088-3.088A3.089,3.089,0,0,0,35.419,519.112Z" transform="translate(155.943 444.847)" fill="#0c1d30"/>
      <rect id="Rectángulo_293731" data-name="Rectángulo 293731" width="1.643" height="27.03" transform="translate(922.422 609.429)" fill="#0c1d30"/>
      <path id="Trazado_120583" data-name="Trazado 120583" d="M477.871,326.091A3.088,3.088,0,1,0,480.959,323,3.087,3.087,0,0,0,477.871,326.091Z" transform="translate(442.284 310.214)" fill="#0c1d30"/>
      <path id="Trazado_120584" data-name="Trazado 120584" d="M618.3,369.674h-1.643V360.19H479.751v-1.643H618.3Z" transform="translate(443.492 347.531)" fill="#0c1d30"/>
      <circle id="Elipse_4968" data-name="Elipse 4968" cx="3.088" cy="3.088" r="3.088" transform="translate(1057.881 713.963)" fill="#0c1d30"/>
      <path id="Trazado_120585" data-name="Trazado 120585" d="M514.974,456.01h-1.643V444.918l84.513-.035V430.376h1.643v16.149l-84.513.035Z" transform="translate(465.073 401.123)" fill="#0c1d30"/>
      <path id="Trazado_120586" data-name="Trazado 120586" d="M511.951,447.1a3.088,3.088,0,1,0,3.088-3.088A3.089,3.089,0,0,0,511.951,447.1Z" transform="translate(464.186 409.883)" fill="#0c1d30"/>
      <path id="Trazado_120587" data-name="Trazado 120587" d="M655.34,450.334H653.7V440.85H565.279v-1.643H655.34Z" transform="translate(498.459 406.799)" fill="#0c1d30"/>
      <path id="Trazado_120588" data-name="Trazado 120588" d="M617.725,447.1a3.087,3.087,0,1,0,3.088-3.088A3.088,3.088,0,0,0,617.725,447.1Z" transform="translate(532.166 409.883)" fill="#0c1d30"/>
      <rect id="Rectángulo_293732" data-name="Rectángulo 293732" width="1.643" height="25.62" transform="translate(767.878 765.287)" fill="#0c1d30"/>
      <circle id="Elipse_4969" data-name="Elipse 4969" cx="3.088" cy="3.088" r="3.088" transform="translate(765.612 787.665)" fill="#0c1d30"/>
      <rect id="Rectángulo_293733" data-name="Rectángulo 293733" width="1.643" height="25.656" transform="translate(1060.149 765.252)" fill="#0c1d30"/>
      <circle id="Elipse_4970" data-name="Elipse 4970" cx="3.088" cy="3.088" r="3.088" transform="translate(1057.882 787.665)" fill="#0c1d30"/>
      <path id="Trazado_120589" data-name="Trazado 120589" d="M539.259,514h-1.643v-9H385.171v-65.93h1.643v64.288H539.259Z" transform="translate(382.707 464.402)" fill="#0c1d30"/>
      <path id="Trazado_120590" data-name="Trazado 120590" d="M476.594,485.8a3.087,3.087,0,1,0,3.087-3.088A3.087,3.087,0,0,0,476.594,485.8Z" transform="translate(441.463 492.449)" fill="#0c1d30"/>
      <path id="Trazado_120591" data-name="Trazado 120591" d="M711.128,484.528H478.474v-1.643H709.486V408.218h1.643Z" transform="translate(442.671 484.877)" fill="#0c1d30"/>
      <rect id="Rectángulo_293734" data-name="Rectángulo 293734" width="1.643" height="71.29" transform="translate(978.404 898.114)" fill="#0c1d30"/>
      <path id="Trazado_120592" data-name="Trazado 120592" d="M744.727,532.867h-1.643v-9.708H477.974V509.426h1.643v12.089h265.11Z" transform="translate(442.35 510.927)" fill="#0c1d30"/>
      <path id="Trazado_120593" data-name="Trazado 120593" d="M637.982,524.81a3.088,3.088,0,1,0,3.088-3.088A3.087,3.087,0,0,0,637.982,524.81Z" transform="translate(545.184 518.829)" fill="#0c1d30"/>
      <path id="Trazado_120594" data-name="Trazado 120594" d="M541.342,574.069H539.7V560.158H703.414V548.436h1.643V561.8H541.342Z" transform="translate(482.02 535.998)" fill="#0c1d30"/>
      <path id="Trazado_120595" data-name="Trazado 120595" d="M538.319,565.154a3.088,3.088,0,1,0,3.088-3.088A3.089,3.089,0,0,0,538.319,565.154Z" transform="translate(481.133 544.758)" fill="#0c1d30"/>
      <rect id="Rectángulo_293735" data-name="Rectángulo 293735" width="1.643" height="15.036" transform="translate(1021.719 1150.707)" fill="#0c1d30"/>
      <path id="Trazado_120596" data-name="Trazado 120596" d="M538.319,599.048a3.088,3.088,0,1,0,3.088-3.087A3.089,3.089,0,0,0,538.319,599.048Z" transform="translate(481.133 566.541)" fill="#0c1d30"/>
      <rect id="Rectángulo_293736" data-name="Rectángulo 293736" width="1.643" height="15.036" transform="translate(1185.434 1150.707)" fill="#0c1d30"/>
      <path id="Trazado_120597" data-name="Trazado 120597" d="M637.982,599.048a3.088,3.088,0,1,0,3.088-3.087A3.089,3.089,0,0,0,637.982,599.048Z" transform="translate(545.184 566.541)" fill="#0c1d30"/>
      <rect id="Rectángulo_293737" data-name="Rectángulo 293737" width="1.643" height="15.036" transform="translate(1349.148 1150.707)" fill="#0c1d30"/>
      <path id="Trazado_120598" data-name="Trazado 120598" d="M737.646,599.048a3.088,3.088,0,1,0,3.088-3.087A3.089,3.089,0,0,0,737.646,599.048Z" transform="translate(609.237 566.541)" fill="#0c1d30"/>
      <path id="Trazado_120599" data-name="Trazado 120599" d="M804.4,569.483h-1.643V557.214H639.862v-1.643H804.4Z" transform="translate(546.393 540.584)" fill="#0c1d30"/>
      <path id="Trazado_120600" data-name="Trazado 120600" d="M737.646,565.154a3.088,3.088,0,1,0,3.088-3.088A3.089,3.089,0,0,0,737.646,565.154Z" transform="translate(609.236 544.758)" fill="#0c1d30"/>
      <rect id="Rectángulo_293738" data-name="Rectángulo 293738" width="1.643" height="17.478" transform="translate(1185.434 1092.589)" fill="#0c1d30"/>
      <path id="Trazado_120601" data-name="Trazado 120601" d="M644.158,565.154a3.088,3.088,0,1,1-3.088-3.088A3.089,3.089,0,0,1,644.158,565.154Z" transform="translate(545.184 544.758)" fill="#0c1d30"/>
      <path id="Trazado_120602" data-name="Trazado 120602" d="M332.628,528.137h-1.643V516.786H573.262v1.643H332.628Z" transform="translate(347.883 515.656)" fill="#0c1d30"/>
      <path id="Trazado_120603" data-name="Trazado 120603" d="M329.605,524.81a3.088,3.088,0,1,0,3.088-3.088A3.087,3.087,0,0,0,329.605,524.81Z" transform="translate(346.996 518.829)" fill="#0c1d30"/>
      <rect id="Rectángulo_293739" data-name="Rectángulo 293739" width="1.643" height="25.633" transform="translate(678.868 1084.434)" fill="#0c1d30"/>
      <path id="Trazado_120604" data-name="Trazado 120604" d="M329.605,565.154a3.088,3.088,0,1,0,3.088-3.088A3.089,3.089,0,0,0,329.605,565.154Z" transform="translate(346.996 544.758)" fill="#0c1d30"/>
      <rect id="Rectángulo_293740" data-name="Rectángulo 293740" width="1.643" height="25.633" transform="translate(850.292 1084.434)" fill="#0c1d30"/>
      <path id="Trazado_120605" data-name="Trazado 120605" d="M433.962,565.154a3.088,3.088,0,1,0,3.088-3.088A3.089,3.089,0,0,0,433.962,565.154Z" transform="translate(414.064 544.758)" fill="#0c1d30"/>
      <rect id="Rectángulo_293741" data-name="Rectángulo 293741" width="1.643" height="13.882" transform="translate(820.591 542.315)" fill="#0c1d30"/>
      <rect id="Rectángulo_293706" data-name="Rectángulo 293706" width="171.846" height="137.191" rx="5" transform="translate(682.333 793.841)" fill="#eae696"/>
      <text id="pH_Temperatura_Oxígeno_Disuelto_Conductividad_Dureza_Olor_Color" data-name="pH 
Temperatura
Oxígeno Disuelto
Conductividad
Dureza
Olor
Color" transform="translate(768.333 814.389)" fill="#0c1d30" font-size="16" font-family="Roboto-Regular, Roboto"><tspan x="-12.172" y="0">pH </tspan><tspan x="-45.578" y="18">Temperatura</tspan><tspan x="-60.125" y="36">Oxígeno Disuelto</tspan><tspan x="-51.039" y="54">Conductividad</tspan><tspan x="-24.918" y="72">Dureza</tspan><tspan x="-14.711" y="90">Olor</tspan><tspan x="-18.98" y="108">Color</tspan></text>
      <rect id="Rectángulo_293709" data-name="Rectángulo 293709" width="140.059" height="37.707" rx="5" transform="translate(1082.948 860)" fill="#eae696"/>
      <text id="Fecales" transform="translate(1148.98 885)" fill="#0c1d30" font-size="16" font-family="Roboto-Regular, Roboto"><tspan x="-27.504" y="0">Fecales</tspan></text>
    </g>
  </g>
</svg>
